SplineFontDB: 3.0
FontName: TheGirlNextDoor
FullName: The Girl Next Door
FamilyName: The Girl Next Door
Weight: Book
Copyright: Copyright (c) 2010, Kimberly Geswein (kimberlygeswein.com)
Version: 1.002 2010
ItalicAngle: 0
UnderlinePosition: -52
UnderlineWidth: 51
Ascent: 819
Descent: 205
sfntRevision: 0x00010083
LayerCount: 2
Layer: 0 1 "Back"  1
Layer: 1 1 "Fore"  0
XUID: [1021 288 713564382 11953630]
FSType: 0
OS2Version: 3
OS2_WeightWidthSlopeOnly: 0
OS2_UseTypoMetrics: 1
CreationTime: 1297251120
ModificationTime: 1303484564
PfmFamily: 17
TTFWeight: 400
TTFWidth: 5
LineGap: 0
VLineGap: 0
Panose: 2 0 0 0 0 0 0 0 0 0
OS2TypoAscent: 1139
OS2TypoAOffset: 0
OS2TypoDescent: -748
OS2TypoDOffset: 0
OS2TypoLinegap: 0
OS2WinAscent: 1139
OS2WinAOffset: 0
OS2WinDescent: 748
OS2WinDOffset: 0
HheadAscent: 1139
HheadAOffset: 0
HheadDescent: -748
HheadDOffset: 0
OS2SubXSize: 717
OS2SubYSize: 666
OS2SubXOff: 0
OS2SubYOff: 143
OS2SupXSize: 717
OS2SupYSize: 666
OS2SupXOff: 0
OS2SupYOff: 488
OS2StrikeYSize: 51
OS2StrikeYPos: 256
OS2Vendor: '    '
OS2CodePages: 00000093.00000000
OS2UnicodeRanges: a000002f.5000004a.00000000.00000000
MarkAttachClasses: 1
DEI: 91125
TtTable: prep
PUSHW_1
 511
SCANCTRL
PUSHB_1
 4
SCANTYPE
EndTTInstrs
ShortTable: maxp 16
  1
  0
  346
  160
  5
  165
  4
  1
  0
  0
  0
  0
  0
  0
  3
  1
EndShort

StartChar: exclam
Encoding: 33 33 4
Width: 140
Flags: W
LayerCount: 2
Fore
SplineSet
48 247 m 1,0,-1
 48 257 l 2,1,2
 48 265 48 265 47.5 273.5 c 128,-1,3
 47 282 47 282 47 290 c 2,4,-1
 47 301 l 2,5,6
 47 350 47 350 49.5 396 c 128,-1,7
 52 442 52 442 55.5 488 c 128,-1,8
 59 534 59 534 64 582 c 128,-1,9
 69 630 69 630 76 684 c 1,10,11
 76 684 76 684 78.5 684.5 c 128,-1,12
 81 685 81 685 82 685 c 0,13,14
 89 685 89 685 93.5 682 c 128,-1,15
 98 679 98 679 103 670 c 1,16,-1
 103 652 l 2,17,18
 103 641 103 641 103 626.5 c 128,-1,19
 103 612 103 612 103 599 c 2,20,-1
 103 559 l 2,21,22
 103 544 103 544 103 530.5 c 128,-1,23
 103 517 103 517 103 506 c 2,24,-1
 103 492 l 1,25,26
 102 483 102 483 101.5 462.5 c 128,-1,27
 101 442 101 442 99.5 416.5 c 128,-1,28
 98 391 98 391 96 362.5 c 128,-1,29
 94 334 94 334 93 308.5 c 128,-1,30
 92 283 92 283 90.5 262.5 c 128,-1,31
 89 242 89 242 88 233 c 0,32,33
 87 233 87 233 81.5 232.5 c 128,-1,34
 76 232 76 232 76 232 c 2,35,36
 66 232 66 232 58.5 233.5 c 128,-1,37
 51 235 51 235 48 247 c 1,0,-1
76 13 m 1,38,39
 77 20 77 20 82.5 24 c 128,-1,40
 88 28 88 28 94.5 29.5 c 128,-1,41
 101 31 101 31 107.5 31 c 128,-1,42
 114 31 114 31 120 31 c 1,43,44
 120 21 120 21 114.5 10 c 128,-1,45
 109 -1 109 -1 95 -1 c 0,46,47
 87 -1 87 -1 83 2 c 128,-1,48
 79 5 79 5 76 13 c 1,38,39
EndSplineSet
EndChar

StartChar: quotedbl
Encoding: 34 34 5
Width: 355
Flags: W
LayerCount: 2
Fore
SplineSet
253 354 m 1,0,1
 252 382 252 382 245 410.5 c 128,-1,2
 238 439 238 439 230 467 c 128,-1,3
 222 495 222 495 216.5 523 c 128,-1,4
 211 551 211 551 211 579 c 1,5,6
 232 579 232 579 246.5 567 c 128,-1,7
 261 555 261 555 270.5 537 c 128,-1,8
 280 519 280 519 285 497 c 128,-1,9
 290 475 290 475 292 452.5 c 128,-1,10
 294 430 294 430 294.5 410.5 c 128,-1,11
 295 391 295 391 295 379 c 0,12,13
 295 365 295 365 291 357 c 128,-1,14
 287 349 287 349 266 340 c 1,15,-1
 253 354 l 1,0,1
89 340 m 1,16,17
 87 368 87 368 82 396 c 128,-1,18
 77 424 77 424 72 452 c 128,-1,19
 67 480 67 480 62.5 507.5 c 128,-1,20
 58 535 58 535 58 563 c 1,21,22
 76 563 76 563 88.5 553.5 c 128,-1,23
 101 544 101 544 109 529 c 128,-1,24
 117 514 117 514 121.5 494 c 128,-1,25
 126 474 126 474 128 455 c 128,-1,26
 130 436 130 436 130.5 418 c 128,-1,27
 131 400 131 400 131 387 c 2,28,-1
 131 378 l 2,29,30
 131 371 131 371 130.5 363 c 128,-1,31
 130 355 130 355 130 349 c 128,-1,32
 130 343 130 343 130 340 c 1,33,34
 125 331 125 331 121 328 c 128,-1,35
 117 325 117 325 109 325 c 0,36,37
 102 325 102 325 97.5 328 c 128,-1,38
 93 331 93 331 89 340 c 1,16,17
EndSplineSet
EndChar

StartChar: numbersign
Encoding: 35 35 6
Width: 684
Flags: W
LayerCount: 2
Fore
SplineSet
260 220 m 1,0,1
 260 211 260 211 258 192 c 128,-1,2
 256 173 256 173 254 151 c 128,-1,3
 252 129 252 129 250 109.5 c 128,-1,4
 248 90 248 90 247 82 c 0,5,6
 240 47 240 47 205 47 c 1,7,-1
 205 226 l 1,8,-1
 28 226 l 1,9,-1
 6 257 l 1,10,-1
 220 287 l 1,11,-1
 220 290 l 2,12,13
 220 293 220 293 220 298 c 2,14,-1
 220 306 l 1,15,16
 221 311 221 311 221 314 c 0,17,18
 221 318 221 318 220.5 324 c 128,-1,19
 220 330 220 330 220 337 c 128,-1,20
 220 344 220 344 220 349.5 c 128,-1,21
 220 355 220 355 220 355 c 1,22,23
 219 361 219 361 213.5 368.5 c 128,-1,24
 208 376 208 376 205 376 c 2,25,-1
 55 376 l 1,26,27
 53 398 53 398 60.5 405 c 128,-1,28
 68 412 68 412 81 411.5 c 128,-1,29
 94 411 94 411 111 407 c 128,-1,30
 128 403 128 403 145 401 c 128,-1,31
 162 399 162 399 177.5 403 c 128,-1,32
 193 407 193 407 204 424 c 128,-1,33
 215 441 215 441 219.5 473.5 c 128,-1,34
 224 506 224 506 220 561 c 1,35,-1
 241 584 l 1,36,-1
 276 425 l 1,37,-1
 425 425 l 2,38,39
 433 425 433 425 435.5 435 c 128,-1,40
 438 445 438 445 439 460.5 c 128,-1,41
 440 476 440 476 440.5 493.5 c 128,-1,42
 441 511 441 511 445 524.5 c 128,-1,43
 449 538 449 538 458.5 545.5 c 128,-1,44
 468 553 468 553 486 547 c 1,45,-1
 486 403 l 1,46,-1
 657 403 l 1,47,-1
 657 363 l 1,48,-1
 492 363 l 2,49,50
 490 363 490 363 485 354.5 c 128,-1,51
 480 346 480 346 479 342 c 0,52,53
 479 341 479 341 479 336 c 128,-1,54
 479 331 479 331 478 325 c 2,55,-1
 477 313 l 2,56,57
 477 307 477 307 477 303 c 0,58,59
 477 289 477 289 485.5 278.5 c 128,-1,60
 494 268 494 268 507.5 262 c 128,-1,61
 521 256 521 256 538 253.5 c 128,-1,62
 555 251 555 251 572 249.5 c 128,-1,63
 589 248 589 248 604 247.5 c 128,-1,64
 619 247 619 247 630 247 c 1,65,-1
 630 211 l 1,66,-1
 479 211 l 1,67,-1
 477 204 l 2,68,69
 475 198 475 198 473 188.5 c 128,-1,70
 471 179 471 179 468.5 168 c 128,-1,71
 466 157 466 157 465 150 c 1,72,-1
 465 144 l 2,73,74
 465 111 465 111 476 76 c 128,-1,75
 487 41 487 41 507 13 c 1,76,77
 503 2 503 2 495.5 0.5 c 128,-1,78
 488 -1 488 -1 479 -1 c 0,79,80
 478 -1 478 -1 472 -0.5 c 128,-1,81
 466 0 466 0 465 0 c 0,82,83
 445 31 445 31 436 55 c 128,-1,84
 427 79 427 79 423 101 c 128,-1,85
 419 123 419 123 417.5 147.5 c 128,-1,86
 416 172 416 172 410 205 c 0,87,88
 409 208 409 208 404.5 213.5 c 128,-1,89
 400 219 400 219 397 220 c 2,90,-1
 274 233 l 1,91,-1
 260 220 l 1,0,1
272 321 m 256,92,93
 272 320 272 320 271.5 313 c 128,-1,94
 271 306 271 306 272 297 c 128,-1,95
 273 288 273 288 276 281 c 128,-1,96
 279 274 279 274 287 274 c 2,97,-1
 410 274 l 1,98,-1
 427 370 l 1,99,-1
 287 370 l 2,100,101
 279 370 279 370 276 362.5 c 128,-1,102
 273 355 273 355 272 346 c 128,-1,103
 271 337 271 337 271.5 329.5 c 128,-1,104
 272 322 272 322 272 321 c 256,92,93
EndSplineSet
EndChar

StartChar: dollar
Encoding: 36 36 7
Width: 519
Flags: W
LayerCount: 2
Fore
SplineSet
202 86 m 0,0,1
 202 104 202 104 193 116 c 128,-1,2
 184 128 184 128 168.5 136.5 c 128,-1,3
 153 145 153 145 134 151 c 128,-1,4
 115 157 115 157 97 165 c 128,-1,5
 79 173 79 173 63 183 c 128,-1,6
 47 193 47 193 37 207 c 0,7,8
 31 215 31 215 24 228.5 c 128,-1,9
 17 242 17 242 10.5 255 c 128,-1,10
 4 268 4 268 -0.5 278 c 128,-1,11
 -5 288 -5 288 -4 289 c 2,12,-1
 10 303 l 1,13,14
 21 281 21 281 40 256 c 128,-1,15
 59 231 59 231 83 211 c 128,-1,16
 107 191 107 191 134 178 c 128,-1,17
 161 165 161 165 188 165 c 0,18,19
 203 165 203 165 212 173.5 c 128,-1,20
 221 182 221 182 225.5 195 c 128,-1,21
 230 208 230 208 231.5 224.5 c 128,-1,22
 233 241 233 241 233 258 c 128,-1,23
 233 275 233 275 231.5 290.5 c 128,-1,24
 230 306 230 306 230 317 c 2,25,-1
 230 325 l 2,26,27
 230 329 230 329 230 333.5 c 128,-1,28
 230 338 230 338 229 341 c 1,29,-1
 229 344 l 1,30,-1
 79 371 l 2,31,32
 66 373 66 373 59.5 381 c 128,-1,33
 53 389 53 389 51 399 c 128,-1,34
 49 409 49 409 49 419.5 c 128,-1,35
 49 430 49 430 49 438 c 0,36,37
 49 485 49 485 67.5 513 c 128,-1,38
 86 541 86 541 116.5 556 c 128,-1,39
 147 571 147 571 185 577.5 c 128,-1,40
 223 584 223 584 263 589 c 1,41,-1
 263 700 l 1,42,-1
 305 700 l 1,43,-1
 305 589 l 1,44,-1
 325 604 l 1,45,-1
 352 741 l 1,46,-1
 366 741 l 1,47,-1
 366 589 l 1,48,49
 377 587 377 587 389 580 c 128,-1,50
 401 573 401 573 411.5 564 c 128,-1,51
 422 555 422 555 429 544.5 c 128,-1,52
 436 534 436 534 436 522 c 0,53,54
 436 520 436 520 436 514.5 c 128,-1,55
 436 509 436 509 435 508 c 1,56,-1
 366 549 l 1,57,58
 361 530 361 530 358 514.5 c 128,-1,59
 355 499 355 499 353.5 485 c 128,-1,60
 352 471 352 471 352 456 c 128,-1,61
 352 441 352 441 352 424 c 0,62,63
 352 400 352 400 361.5 385.5 c 128,-1,64
 371 371 371 371 384.5 360.5 c 128,-1,65
 398 350 398 350 414 342.5 c 128,-1,66
 430 335 430 335 444 324 c 128,-1,67
 458 313 458 313 467.5 297 c 128,-1,68
 477 281 477 281 477 255 c 0,69,70
 477 228 477 228 468.5 210.5 c 128,-1,71
 460 193 460 193 447 181.5 c 128,-1,72
 434 170 434 170 418.5 162.5 c 128,-1,73
 403 155 403 155 389 147 c 128,-1,74
 375 139 375 139 365 127 c 128,-1,75
 355 115 355 115 352 97 c 2,76,-1
 325 -122 l 2,77,78
 323 -134 323 -134 319 -141.5 c 128,-1,79
 315 -149 315 -149 306 -149 c 0,80,81
 302 -149 302 -149 298.5 -148.5 c 128,-1,82
 295 -148 295 -148 291.5 -146.5 c 128,-1,83
 288 -145 288 -145 285.5 -142.5 c 128,-1,84
 283 -140 283 -140 284 -135 c 2,85,-1
 311 97 l 2,86,87
 311 100 311 100 308.5 102.5 c 128,-1,88
 306 105 306 105 301.5 107.5 c 128,-1,89
 297 110 297 110 292 111 c 128,-1,90
 287 112 287 112 284 112 c 1,91,92
 282 111 282 111 277 107 c 128,-1,93
 272 103 272 103 267.5 98.5 c 128,-1,94
 263 94 263 94 259.5 89.5 c 128,-1,95
 256 85 256 85 256 84 c 2,96,-1
 229 -149 l 2,97,98
 229 -156 229 -156 223 -159.5 c 128,-1,99
 217 -163 217 -163 209 -165 c 128,-1,100
 201 -167 201 -167 194 -167 c 128,-1,101
 187 -167 187 -167 184 -167 c 1,102,103
 184 -134 184 -134 187 -102.5 c 128,-1,104
 190 -71 190 -71 193.5 -39.5 c 128,-1,105
 197 -8 197 -8 199.5 23.5 c 128,-1,106
 202 55 202 55 202 86 c 0,0,1
92 432 m 0,107,108
 92 410 92 410 103.5 400.5 c 128,-1,109
 115 391 115 391 132.5 387 c 128,-1,110
 150 383 150 383 171 383.5 c 128,-1,111
 192 384 192 384 209 384 c 2,112,-1
 215 384 l 1,113,114
 217 385 217 385 221 387 c 128,-1,115
 225 389 225 389 229 391 c 128,-1,116
 233 393 233 393 237 395.5 c 128,-1,117
 241 398 241 398 242 399 c 0,118,119
 249 438 249 438 253.5 477.5 c 128,-1,120
 258 517 258 517 258 557 c 1,121,122
 228 557 228 557 198 550.5 c 128,-1,123
 168 544 168 544 144.5 529 c 128,-1,124
 121 514 121 514 106.5 490 c 128,-1,125
 92 466 92 466 92 432 c 0,107,108
352 176 m 1,126,127
 369 176 369 176 384.5 181.5 c 128,-1,128
 400 187 400 187 411 197 c 128,-1,129
 422 207 422 207 429 221.5 c 128,-1,130
 436 236 436 236 436 254 c 0,131,132
 436 317 436 317 373 317 c 0,133,134
 371 317 371 317 363 317 c 128,-1,135
 355 317 355 317 352 317 c 1,136,-1
 352 176 l 1,126,127
270 171 m 2,137,138
 270 163 270 163 276 157 c 128,-1,139
 282 151 282 151 291 151 c 0,140,141
 296 151 296 151 303.5 154 c 128,-1,142
 311 157 311 157 311 166 c 2,143,-1
 311 330 l 1,144,-1
 298 344 l 1,145,-1
 284 330 l 1,146,-1
 282 312 l 2,147,148
 281 295 281 295 278.5 271 c 128,-1,149
 276 247 276 247 273.5 221.5 c 128,-1,150
 271 196 271 196 270 179 c 1,151,-1
 270 171 l 2,137,138
311 549 m 1,152,153
 310 535 310 535 307 515 c 128,-1,154
 304 495 304 495 302 472 c 128,-1,155
 300 449 300 449 298 426 c 128,-1,156
 296 403 296 403 296 384 c 1,157,-1
 311 384 l 1,158,-1
 325 535 l 1,159,-1
 311 549 l 1,152,153
EndSplineSet
EndChar

StartChar: percent
Encoding: 37 37 8
Width: 514
Flags: W
LayerCount: 2
Fore
SplineSet
157 74 m 0,0,1
 157 91 157 91 162.5 124 c 128,-1,2
 168 157 168 157 177.5 200.5 c 128,-1,3
 187 244 187 244 201 294 c 128,-1,4
 215 344 215 344 231 394 c 128,-1,5
 247 444 247 444 265.5 489.5 c 128,-1,6
 284 535 284 535 302.5 570 c 128,-1,7
 321 605 321 605 340 625.5 c 128,-1,8
 359 646 359 646 376 646 c 1,9,-1
 376 602 l 1,10,11
 336 530 336 530 303.5 457 c 128,-1,12
 271 384 271 384 247.5 309 c 128,-1,13
 224 234 224 234 211.5 156 c 128,-1,14
 199 78 199 78 199 -5 c 1,15,16
 185 -5 185 -5 177 4 c 128,-1,17
 169 13 169 13 164.5 25 c 128,-1,18
 160 37 160 37 158.5 50.5 c 128,-1,19
 157 64 157 64 157 74 c 0,0,1
21 561 m 0,20,21
 21 580 21 580 31.5 598 c 128,-1,22
 42 616 42 616 58.5 629.5 c 128,-1,23
 75 643 75 643 94 651 c 128,-1,24
 113 659 113 659 130 659 c 0,25,26
 149 659 149 659 160.5 654 c 128,-1,27
 172 649 172 649 178 639 c 128,-1,28
 184 629 184 629 186.5 615.5 c 128,-1,29
 189 602 189 602 189 586 c 0,30,31
 189 562 189 562 181 548.5 c 128,-1,32
 173 535 173 535 159.5 528.5 c 128,-1,33
 146 522 146 522 128 520 c 128,-1,34
 110 518 110 518 90 518 c 0,35,36
 80 518 80 518 68 518.5 c 128,-1,37
 56 519 56 519 45.5 523 c 128,-1,38
 35 527 35 527 28 536 c 128,-1,39
 21 545 21 545 21 561 c 0,20,21
363 170 m 256,40,41
 363 183 363 183 362 199 c 128,-1,42
 361 215 361 215 363 229 c 128,-1,43
 365 243 365 243 373.5 252.5 c 128,-1,44
 382 262 382 262 400 262 c 0,45,46
 413 262 413 262 430 259 c 128,-1,47
 447 256 447 256 462.5 250 c 128,-1,48
 478 244 478 244 488.5 232.5 c 128,-1,49
 499 221 499 221 499 205 c 0,50,51
 499 185 499 185 489 170 c 128,-1,52
 479 155 479 155 464 144 c 128,-1,53
 449 133 449 133 431 127.5 c 128,-1,54
 413 122 413 122 397 122 c 0,55,56
 383 122 383 122 376.5 125 c 128,-1,57
 370 128 370 128 366.5 133.5 c 128,-1,58
 363 139 363 139 363 148 c 128,-1,59
 363 157 363 157 363 170 c 256,40,41
61 575 m 1,60,61
 63 573 63 573 66.5 569 c 128,-1,62
 70 565 70 565 74.5 560.5 c 128,-1,63
 79 556 79 556 83 552.5 c 128,-1,64
 87 549 87 549 89 547 c 0,65,66
 90 546 90 546 92 546 c 2,67,-1
 95 546 l 2,68,69
 103 546 103 546 112.5 549.5 c 128,-1,70
 122 553 122 553 129 558.5 c 128,-1,71
 136 564 136 564 140.5 572 c 128,-1,72
 145 580 145 580 145 588 c 0,73,74
 145 616 145 616 116 616 c 0,75,76
 95 616 95 616 85 606.5 c 128,-1,77
 75 597 75 597 61 575 c 1,60,61
424 234 m 0,78,79
 415 234 415 234 410.5 227 c 128,-1,80
 406 220 406 220 404.5 209.5 c 128,-1,81
 403 199 403 199 403 188 c 2,82,-1
 403 171 l 2,83,84
 403 168 403 168 403 160 c 128,-1,85
 403 152 403 152 403 150 c 1,86,87
 409 152 409 152 419 157.5 c 128,-1,88
 429 163 429 163 439 170.5 c 128,-1,89
 449 178 449 178 455 186.5 c 128,-1,90
 461 195 461 195 459 205 c 0,91,92
 459 206 459 206 455.5 210 c 128,-1,93
 452 214 452 214 448 218 c 128,-1,94
 444 222 444 222 439 226 c 128,-1,95
 434 230 434 230 431 233 c 0,96,97
 430 233 430 233 427.5 233.5 c 128,-1,98
 425 234 425 234 424 234 c 0,78,79
EndSplineSet
EndChar

StartChar: ampersand
Encoding: 38 38 9
Width: 519
Flags: W
LayerCount: 2
Fore
SplineSet
12 238 m 0,0,1
 12 257 12 257 22.5 271 c 128,-1,2
 33 285 33 285 47 297.5 c 128,-1,3
 61 310 61 310 72.5 322.5 c 128,-1,4
 84 335 84 335 84 349 c 0,5,6
 84 360 84 360 79 366 c 128,-1,7
 74 372 74 372 67 375 c 128,-1,8
 60 378 60 378 52 380 c 128,-1,9
 44 382 44 382 38 387 c 128,-1,10
 32 392 32 392 28.5 400.5 c 128,-1,11
 25 409 25 409 28 425 c 1,12,13
 32 459 32 459 54 478.5 c 128,-1,14
 76 498 76 498 106 507.5 c 128,-1,15
 136 517 136 517 168.5 519 c 128,-1,16
 201 521 201 521 226 521 c 2,17,-1
 241 521 l 2,18,19
 252 521 252 521 264 520.5 c 128,-1,20
 276 520 276 520 286.5 519.5 c 128,-1,21
 297 519 297 519 301 519 c 0,22,23
 308 519 308 519 315 515 c 128,-1,24
 322 511 322 511 328.5 505.5 c 128,-1,25
 335 500 335 500 338.5 493.5 c 128,-1,26
 342 487 342 487 342 479 c 0,27,28
 342 476 342 476 336.5 470.5 c 128,-1,29
 331 465 331 465 328 465 c 1,30,31
 319 479 319 479 306 485 c 128,-1,32
 293 491 293 491 278.5 493 c 128,-1,33
 264 495 264 495 248.5 494.5 c 128,-1,34
 233 494 233 494 220 494 c 0,35,36
 199 494 199 494 172.5 493 c 128,-1,37
 146 492 146 492 122.5 485.5 c 128,-1,38
 99 479 99 479 83 463 c 128,-1,39
 67 447 67 447 67 417 c 0,40,41
 67 409 67 409 70.5 400.5 c 128,-1,42
 74 392 74 392 79.5 385.5 c 128,-1,43
 85 379 85 379 93 374.5 c 128,-1,44
 101 370 101 370 110 370 c 2,45,-1
 260 370 l 1,46,-1
 287 355 l 1,47,-1
 274 342 l 1,48,49
 257 341 257 341 235 339.5 c 128,-1,50
 213 338 213 338 188.5 335 c 128,-1,51
 164 332 164 332 140 325.5 c 128,-1,52
 116 319 116 319 96.5 306.5 c 128,-1,53
 77 294 77 294 65.5 276 c 128,-1,54
 54 258 54 258 54 232 c 0,55,56
 54 218 54 218 62 210 c 128,-1,57
 70 202 70 202 82.5 197.5 c 128,-1,58
 95 193 95 193 111.5 191.5 c 128,-1,59
 128 190 128 190 142.5 190 c 128,-1,60
 157 190 157 190 169.5 190.5 c 128,-1,61
 182 191 182 191 188 191 c 0,62,63
 220 191 220 191 246 191.5 c 128,-1,64
 272 192 272 192 297 193 c 128,-1,65
 322 194 322 194 349 197 c 128,-1,66
 376 200 376 200 410 205 c 0,67,68
 425 207 425 207 437.5 214 c 128,-1,69
 450 221 450 221 462 229.5 c 128,-1,70
 474 238 474 238 486.5 243.5 c 128,-1,71
 499 249 499 249 511 249 c 1,72,73
 511 222 511 222 491.5 205.5 c 128,-1,74
 472 189 472 189 440.5 179.5 c 128,-1,75
 409 170 409 170 371 166.5 c 128,-1,76
 333 163 333 163 296.5 162.5 c 128,-1,77
 260 162 260 162 228 163 c 128,-1,78
 196 164 196 164 178 164 c 2,79,-1
 159 164 l 2,80,81
 146 164 146 164 130 164.5 c 128,-1,82
 114 165 114 165 101 165 c 2,83,-1
 82 165 l 1,84,85
 69 167 69 167 56.5 174.5 c 128,-1,86
 44 182 44 182 34 191.5 c 128,-1,87
 24 201 24 201 18 213 c 128,-1,88
 12 225 12 225 12 238 c 0,0,1
175 606 m 1,89,90
 179 606 179 606 186 606 c 128,-1,91
 193 606 193 606 199.5 604 c 128,-1,92
 206 602 206 602 211.5 598.5 c 128,-1,93
 217 595 217 595 220 588 c 1,94,95
 214 580 214 580 210 577 c 128,-1,96
 206 574 206 574 198 574 c 0,97,98
 185 574 185 574 180 584.5 c 128,-1,99
 175 595 175 595 175 606 c 1,89,90
205 40 m 1,100,101
 206 40 206 40 208.5 40.5 c 128,-1,102
 211 41 211 41 211 41 c 1,103,104
 221 41 221 41 227.5 35 c 128,-1,105
 234 29 234 29 234 20 c 0,106,107
 234 9 234 9 226 5 c 128,-1,108
 218 1 218 1 205 0 c 1,109,-1
 205 40 l 1,100,101
EndSplineSet
EndChar

StartChar: quotesingle
Encoding: 39 39 10
Width: 174
Flags: W
LayerCount: 2
Fore
SplineSet
55 724 m 1,0,1
 56 724 56 724 58 724.5 c 128,-1,2
 60 725 60 725 62 725 c 0,3,4
 84 725 84 725 93.5 712.5 c 128,-1,5
 103 700 103 700 107.5 681.5 c 128,-1,6
 112 663 112 663 111.5 643.5 c 128,-1,7
 111 624 111 624 111 609 c 2,8,-1
 111 597 l 2,9,10
 111 589 111 589 110.5 581.5 c 128,-1,11
 110 574 110 574 110 568 c 2,12,-1
 110 561 l 1,13,14
 109 552 109 552 107 538 c 128,-1,15
 105 524 105 524 103 511 c 128,-1,16
 101 498 101 498 98.5 488.5 c 128,-1,17
 96 479 96 479 95 479 c 2,18,-1
 55 479 l 1,19,-1
 55 724 l 1,0,1
EndSplineSet
EndChar

StartChar: parenleft
Encoding: 40 40 11
Width: 247
Flags: W
LayerCount: 2
Fore
SplineSet
13 278 m 0,0,1
 13 303 13 303 20.5 342 c 128,-1,2
 28 381 28 381 41.5 424.5 c 128,-1,3
 55 468 55 468 74 512.5 c 128,-1,4
 93 557 93 557 116 592 c 128,-1,5
 139 627 139 627 166 649.5 c 128,-1,6
 193 672 193 672 224 672 c 1,7,8
 224 660 224 660 215 647.5 c 128,-1,9
 206 635 206 635 193.5 623 c 128,-1,10
 181 611 181 611 169 599 c 128,-1,11
 157 587 157 587 150 575 c 1,12,13
 133 538 133 538 117.5 503.5 c 128,-1,14
 102 469 102 469 90.5 433.5 c 128,-1,15
 79 398 79 398 73 361.5 c 128,-1,16
 67 325 67 325 67 284 c 0,17,18
 67 247 67 247 70.5 219.5 c 128,-1,19
 74 192 74 192 82 166.5 c 128,-1,20
 90 141 90 141 103.5 114.5 c 128,-1,21
 117 88 117 88 137 55 c 0,22,23
 138 53 138 53 142 49.5 c 128,-1,24
 146 46 146 46 151 41 c 128,-1,25
 156 36 156 36 160 32.5 c 128,-1,26
 164 29 164 29 165 28 c 256,27,28
 166 27 166 27 166 24.5 c 128,-1,29
 166 22 166 22 166 21 c 0,30,31
 166 14 166 14 162 10 c 128,-1,32
 158 6 158 6 153 3.5 c 128,-1,33
 148 1 148 1 141.5 0 c 128,-1,34
 135 -1 135 -1 130 -1 c 0,35,36
 115 -1 115 -1 100.5 18.5 c 128,-1,37
 86 38 86 38 73 67 c 128,-1,38
 60 96 60 96 49 131 c 128,-1,39
 38 166 38 166 30 197 c 128,-1,40
 22 228 22 228 17.5 251 c 128,-1,41
 13 274 13 274 13 278 c 0,0,1
EndSplineSet
EndChar

StartChar: parenright
Encoding: 41 41 12
Width: 220
Flags: W
LayerCount: 2
Fore
SplineSet
12 21 m 256,0,1
 12 22 12 22 12.5 24.5 c 128,-1,2
 13 27 13 27 13 28 c 0,3,4
 52 58 52 58 79 94 c 128,-1,5
 106 130 106 130 122.5 169.5 c 128,-1,6
 139 209 139 209 145.5 253 c 128,-1,7
 152 297 152 297 152 345 c 0,8,9
 152 384 152 384 147 423.5 c 128,-1,10
 142 463 142 463 129.5 500.5 c 128,-1,11
 117 538 117 538 95.5 570.5 c 128,-1,12
 74 603 74 603 41 630 c 1,13,14
 41 630 41 630 44 630 c 128,-1,15
 47 630 47 630 49 630 c 0,16,17
 77 630 77 630 99.5 613 c 128,-1,18
 122 596 122 596 138 568.5 c 128,-1,19
 154 541 154 541 164.5 507 c 128,-1,20
 175 473 175 473 181 439.5 c 128,-1,21
 187 406 187 406 190 376.5 c 128,-1,22
 193 347 193 347 193 329 c 0,23,24
 193 307 193 307 190 277 c 128,-1,25
 187 247 187 247 180.5 213 c 128,-1,26
 174 179 174 179 163 144.5 c 128,-1,27
 152 110 152 110 136.5 81 c 128,-1,28
 121 52 121 52 101 30.5 c 128,-1,29
 81 9 81 9 55 0 c 0,30,31
 53 -1 53 -1 47.5 0.5 c 128,-1,32
 42 2 42 2 35.5 4 c 128,-1,33
 29 6 29 6 23 9 c 128,-1,34
 17 12 17 12 13 13 c 1,35,36
 13 13 13 13 12.5 16.5 c 128,-1,37
 12 20 12 20 12 21 c 256,0,1
EndSplineSet
EndChar

StartChar: asterisk
Encoding: 42 42 13
Width: 576
Flags: W
LayerCount: 2
Fore
SplineSet
319 153 m 2,0,1
 319 142 319 142 310 136 c 128,-1,2
 301 130 301 130 290.5 131.5 c 128,-1,3
 280 133 280 133 271 141 c 128,-1,4
 262 149 262 149 262 166 c 2,5,-1
 262 357 l 1,6,-1
 95 239 l 2,7,8
 87 233 87 233 77 237.5 c 128,-1,9
 67 242 67 242 62 251.5 c 128,-1,10
 57 261 57 261 58 273 c 128,-1,11
 59 285 59 285 73 295 c 2,12,-1
 209 391 l 1,13,-1
 98 391 l 1,14,15
 99 396 99 396 101 400 c 0,16,17
 103 405 103 405 105.5 409 c 128,-1,18
 108 413 108 413 112 417 c 1,19,20
 132 429 132 429 151.5 431 c 128,-1,21
 171 433 171 433 188.5 432 c 128,-1,22
 206 431 206 431 220.5 431 c 128,-1,23
 235 431 235 431 245 440 c 1,24,-1
 161 558 l 1,25,26
 166 560 166 560 171 562 c 1,27,28
 176 562 176 562 180.5 562 c 128,-1,29
 185 562 185 562 191 561 c 1,30,31
 206 554 206 554 217 544.5 c 128,-1,32
 228 535 228 535 235.5 525 c 128,-1,33
 243 515 243 515 249.5 504.5 c 128,-1,34
 256 494 256 494 262 486 c 1,35,36
 263 495 263 495 263 514 c 128,-1,37
 263 533 263 533 263 553 c 128,-1,38
 263 573 263 573 263 591 c 128,-1,39
 263 609 263 609 262 616 c 1,40,41
 263 627 263 627 271.5 630 c 128,-1,42
 280 633 280 633 290.5 631.5 c 128,-1,43
 301 630 301 630 310 626.5 c 128,-1,44
 319 623 319 623 319 621 c 2,45,-1
 319 472 l 1,46,47
 322 473 322 473 325 474.5 c 128,-1,48
 328 476 328 476 332 478 c 0,49,50
 338 481 338 481 354 492 c 128,-1,51
 370 503 370 503 387 515 c 128,-1,52
 404 527 404 527 419.5 538.5 c 128,-1,53
 435 550 435 550 441 555 c 1,54,55
 449 560 449 560 456 554.5 c 128,-1,56
 463 549 463 549 468 539.5 c 128,-1,57
 473 530 473 530 476 521 c 128,-1,58
 479 512 479 512 478 510 c 1,59,-1
 386 445 l 1,60,-1
 564 445 l 1,61,-1
 584 420 l 1,62,63
 575 413 575 413 558 409.5 c 128,-1,64
 541 406 541 406 518.5 404 c 128,-1,65
 496 402 496 402 470.5 402.5 c 128,-1,66
 445 403 445 403 421.5 403 c 128,-1,67
 398 403 398 403 376.5 403 c 128,-1,68
 355 403 355 403 341 400 c 1,69,-1
 476 209 l 1,70,-1
 467 179 l 1,71,72
 452 183 452 183 432.5 204 c 128,-1,73
 413 225 413 225 393 252 c 128,-1,74
 373 279 373 279 354.5 307.5 c 128,-1,75
 336 336 336 336 319 355 c 1,76,-1
 319 153 l 2,0,1
EndSplineSet
EndChar

StartChar: plus
Encoding: 43 43 14
Width: 342
Flags: W
LayerCount: 2
Fore
SplineSet
4 211 m 1,0,1
 4 216 4 216 6 220 c 0,2,3
 9 229 9 229 13 233 c 0,4,5
 24 241 24 241 35.5 244 c 128,-1,6
 47 247 47 247 57 246.5 c 128,-1,7
 67 246 67 246 76 245 c 128,-1,8
 85 244 85 244 92 246.5 c 128,-1,9
 99 249 99 249 103.5 258.5 c 128,-1,10
 108 268 108 268 110 287 c 0,11,12
 111 293 111 293 111 309 c 2,13,-1
 111 375 l 2,14,15
 111 391 111 391 110 397 c 1,16,17
 114 406 114 406 118 408.5 c 128,-1,18
 122 411 122 411 130 411 c 0,19,20
 131 411 131 411 133.5 410.5 c 128,-1,21
 136 410 136 410 137 410 c 0,22,23
 141 409 141 409 149 403.5 c 128,-1,24
 157 398 157 398 157 397 c 2,25,-1
 157 253 l 1,26,-1
 315 253 l 1,27,-1
 328 233 l 1,28,29
 321 225 321 225 305.5 222.5 c 128,-1,30
 290 220 290 220 271 219 c 128,-1,31
 252 218 252 218 231.5 219 c 128,-1,32
 211 220 211 220 195 219 c 128,-1,33
 179 218 179 218 168 215 c 128,-1,34
 157 212 157 212 157 205 c 2,35,-1
 157 13 l 2,36,37
 157 10 157 10 154 7 c 128,-1,38
 151 4 151 4 146.5 2.5 c 128,-1,39
 142 1 142 1 137 0 c 128,-1,40
 132 -1 132 -1 129 -1 c 0,41,42
 110 -1 110 -1 110 28 c 2,43,-1
 110 211 l 1,44,-1
 4 211 l 1,0,1
EndSplineSet
EndChar

StartChar: comma
Encoding: 44 44 15
Width: 171
Flags: W
LayerCount: 2
Fore
SplineSet
1 -152 m 1,0,1
 28 -134 28 -134 44.5 -116 c 128,-1,2
 61 -98 61 -98 70 -78 c 128,-1,3
 79 -58 79 -58 82 -34.5 c 128,-1,4
 85 -11 85 -11 85 19 c 0,5,6
 85 35 85 35 82 50 c 128,-1,7
 79 65 79 65 76 79.5 c 128,-1,8
 73 94 73 94 70.5 109 c 128,-1,9
 68 124 68 124 68 139 c 1,10,11
 93 139 93 139 106.5 125 c 128,-1,12
 120 111 120 111 127 90 c 128,-1,13
 134 69 134 69 136.5 45.5 c 128,-1,14
 139 22 139 22 139 5 c 0,15,16
 139 -13 139 -13 133.5 -34 c 128,-1,17
 128 -55 128 -55 119 -75 c 128,-1,18
 110 -95 110 -95 97.5 -112 c 128,-1,19
 85 -129 85 -129 69 -139 c 0,20,21
 64 -142 64 -142 55 -147 c 128,-1,22
 46 -152 46 -152 37.5 -156.5 c 128,-1,23
 29 -161 29 -161 22.5 -164 c 128,-1,24
 16 -167 16 -167 15 -167 c 2,25,-1
 1 -152 l 1,0,1
EndSplineSet
EndChar

StartChar: hyphen
Encoding: 45 45 16
Width: 355
Flags: W
LayerCount: 2
Fore
SplineSet
51 233 m 1,0,-1
 325 233 l 2,1,2
 333 233 333 233 336 226.5 c 128,-1,3
 339 220 339 220 339 213 c 0,4,5
 339 205 339 205 333.5 199 c 128,-1,6
 328 193 328 193 319 193 c 2,7,-1
 311 193 l 2,8,9
 292 193 292 193 267 195 c 128,-1,10
 242 197 242 197 214.5 198.5 c 128,-1,11
 187 200 187 200 160 201 c 128,-1,12
 133 202 133 202 112 203.5 c 128,-1,13
 91 205 91 205 77 206 c 1,14,-1
 65 206 l 1,15,-1
 37 220 l 1,16,-1
 51 233 l 1,0,-1
EndSplineSet
EndChar

StartChar: period
Encoding: 46 46 17
Width: 89
Flags: W
LayerCount: 2
Fore
SplineSet
13 13 m 1,0,1
 13 23 13 23 17.5 30 c 128,-1,2
 22 37 22 37 28.5 41.5 c 128,-1,3
 35 46 35 46 43 47.5 c 128,-1,4
 51 49 51 49 58 49 c 1,5,-1
 58 41 l 2,6,7
 58 33 58 33 56.5 24 c 128,-1,8
 55 15 55 15 51.5 7.5 c 128,-1,9
 48 0 48 0 41 0 c 0,10,11
 39 0 39 0 35 2 c 128,-1,12
 31 4 31 4 26.5 5.5 c 128,-1,13
 22 7 22 7 18 9.5 c 128,-1,14
 14 12 14 12 13 13 c 1,0,1
EndSplineSet
EndChar

StartChar: slash
Encoding: 47 47 18
Width: 390
Flags: W
LayerCount: 2
Fore
SplineSet
6 21 m 0,0,1
 6 22 6 22 6 24.5 c 128,-1,2
 6 27 6 27 6 28 c 0,3,4
 18 42 18 42 42 74 c 128,-1,5
 66 106 66 106 95.5 146.5 c 128,-1,6
 125 187 125 187 157.5 231.5 c 128,-1,7
 190 276 190 276 219.5 317 c 128,-1,8
 249 358 249 358 273 390 c 128,-1,9
 297 422 297 422 309 438 c 0,10,11
 311 442 311 442 316.5 451.5 c 128,-1,12
 322 461 322 461 329 471.5 c 128,-1,13
 336 482 336 482 341 492.5 c 128,-1,14
 346 503 346 503 349 507 c 1,15,-1
 376 507 l 1,16,17
 367 468 367 468 346.5 426 c 128,-1,18
 326 384 326 384 298.5 341 c 128,-1,19
 271 298 271 298 238.5 254.5 c 128,-1,20
 206 211 206 211 172.5 169.5 c 128,-1,21
 139 128 139 128 107 88.5 c 128,-1,22
 75 49 75 49 48 13 c 0,23,24
 41 5 41 5 38.5 2 c 128,-1,25
 36 -1 36 -1 28 -1 c 0,26,27
 19 -1 19 -1 12.5 5.5 c 128,-1,28
 6 12 6 12 6 21 c 0,0,1
EndSplineSet
EndChar

StartChar: zero
Encoding: 48 48 19
Width: 426
Flags: W
LayerCount: 2
Fore
SplineSet
25 184 m 0,0,1
 25 202 25 202 26.5 227 c 128,-1,2
 28 252 28 252 31 280.5 c 128,-1,3
 34 309 34 309 40.5 338 c 128,-1,4
 47 367 47 367 57.5 393 c 128,-1,5
 68 419 68 419 83 440.5 c 128,-1,6
 98 462 98 462 120 473 c 0,7,8
 134 481 134 481 156 490 c 128,-1,9
 178 499 178 499 203.5 500 c 128,-1,10
 229 501 229 501 256 489 c 128,-1,11
 283 477 283 477 306 442 c 1,12,13
 305 442 305 442 298.5 441.5 c 128,-1,14
 292 441 292 441 292 441 c 2,15,16
 279 441 279 441 269.5 446.5 c 128,-1,17
 260 452 260 452 249.5 458 c 128,-1,18
 239 464 239 464 228.5 469 c 128,-1,19
 218 474 218 474 204 474 c 1,20,21
 172 466 172 466 150 449.5 c 128,-1,22
 128 433 128 433 113 411 c 128,-1,23
 98 389 98 389 89.5 363 c 128,-1,24
 81 337 81 337 77 311 c 128,-1,25
 73 285 73 285 72 260.5 c 128,-1,26
 71 236 71 236 71 217 c 2,27,-1
 71 198 l 2,28,29
 71 185 71 185 71 170.5 c 128,-1,30
 71 156 71 156 71.5 143 c 128,-1,31
 72 130 72 130 73 125 c 1,32,33
 84 100 84 100 96.5 80 c 128,-1,34
 109 60 109 60 126.5 46.5 c 128,-1,35
 144 33 144 33 166.5 26 c 128,-1,36
 189 19 189 19 220 19 c 0,37,38
 265 19 265 19 294 36.5 c 128,-1,39
 323 54 323 54 340 83 c 128,-1,40
 357 112 357 112 364 148.5 c 128,-1,41
 371 185 371 185 371 224 c 0,42,43
 371 250 371 250 363 274 c 128,-1,44
 355 298 355 298 346 321 c 128,-1,45
 337 344 337 344 329 366 c 128,-1,46
 321 388 321 388 321 411 c 0,47,48
 321 414 321 414 321.5 420 c 128,-1,49
 322 426 322 426 322 427 c 1,50,51
 345 410 345 410 360 386.5 c 128,-1,52
 375 363 375 363 384 336.5 c 128,-1,53
 393 310 393 310 397 281.5 c 128,-1,54
 401 253 401 253 401 227 c 0,55,56
 401 177 401 177 391.5 134 c 128,-1,57
 382 91 382 91 359.5 59 c 128,-1,58
 337 27 337 27 299 8.5 c 128,-1,59
 261 -10 261 -10 204 -10 c 0,60,61
 165 -10 165 -10 131.5 6.5 c 128,-1,62
 98 23 98 23 74.5 50.5 c 128,-1,63
 51 78 51 78 38 113 c 128,-1,64
 25 148 25 148 25 184 c 0,0,1
EndSplineSet
EndChar

StartChar: one
Encoding: 49 49 20
Width: 109
Flags: W
LayerCount: 2
Fore
SplineSet
55 28 m 0,0,1
 53 40 53 40 51 71.5 c 128,-1,2
 49 103 49 103 48 143.5 c 128,-1,3
 47 184 47 184 45.5 229 c 128,-1,4
 44 274 44 274 42.5 315 c 128,-1,5
 41 356 41 356 40 387.5 c 128,-1,6
 39 419 39 419 37 432 c 1,7,-1
 37 437 l 2,8,9
 37 442 37 442 36.5 448 c 128,-1,10
 36 454 36 454 36 459 c 2,11,-1
 36 468 l 2,12,13
 36 471 36 471 35.5 478.5 c 128,-1,14
 35 486 35 486 36 493 c 128,-1,15
 37 500 37 500 40 506 c 128,-1,16
 43 512 43 512 51 514 c 1,17,18
 52 511 52 511 54.5 505.5 c 128,-1,19
 57 500 57 500 58.5 493.5 c 128,-1,20
 60 487 60 487 62 481 c 128,-1,21
 64 475 64 475 65 472 c 0,22,23
 74 421 74 421 78.5 359.5 c 128,-1,24
 83 298 83 298 85 234.5 c 128,-1,25
 87 171 87 171 87.5 109 c 128,-1,26
 88 47 88 47 88 -5 c 1,27,28
 58 -5 58 -5 55 28 c 0,0,1
EndSplineSet
EndChar

StartChar: two
Encoding: 50 50 21
Width: 499
Flags: W
LayerCount: 2
Fore
SplineSet
198 66 m 0,0,1
 184 66 184 66 171 58 c 128,-1,2
 158 50 158 50 145 40.5 c 128,-1,3
 132 31 132 31 117 23 c 128,-1,4
 102 15 102 15 82 15 c 2,5,-1
 72 15 l 2,6,7
 66 15 66 15 58 15.5 c 128,-1,8
 50 16 50 16 43.5 16.5 c 128,-1,9
 37 17 37 17 34 17 c 1,10,11
 30 23 30 23 27 28.5 c 128,-1,12
 24 34 24 34 22.5 39.5 c 128,-1,13
 21 45 21 45 20.5 51.5 c 128,-1,14
 20 58 20 58 20 65 c 0,15,16
 20 91 20 91 30 108 c 128,-1,17
 40 125 40 125 55.5 134.5 c 128,-1,18
 71 144 71 144 90.5 148 c 128,-1,19
 110 152 110 152 129.5 152.5 c 128,-1,20
 149 153 149 153 167 150.5 c 128,-1,21
 185 148 185 148 198 147 c 1,22,23
 238 189 238 189 253 246 c 128,-1,24
 268 303 268 303 268 364 c 0,25,26
 268 385 268 385 266.5 410.5 c 128,-1,27
 265 436 265 436 258.5 457 c 128,-1,28
 252 478 252 478 238.5 492 c 128,-1,29
 225 506 225 506 201 506 c 0,30,31
 171 506 171 506 144 496.5 c 128,-1,32
 117 487 117 487 95 468.5 c 128,-1,33
 73 450 73 450 57 422.5 c 128,-1,34
 41 395 41 395 34 357 c 1,35,-1
 34 364 l 2,36,37
 34 368 34 368 33.5 373.5 c 128,-1,38
 33 379 33 379 33 383 c 2,39,-1
 33 390 l 2,40,41
 33 402 33 402 33.5 412 c 128,-1,42
 34 422 34 422 35.5 431 c 128,-1,43
 37 440 37 440 40 450 c 128,-1,44
 43 460 43 460 49 471 c 1,45,46
 72 491 72 491 88.5 504 c 128,-1,47
 105 517 105 517 120.5 525 c 128,-1,48
 136 533 136 533 151.5 535.5 c 128,-1,49
 167 538 167 538 190 538 c 0,50,51
 222 538 222 538 245 522.5 c 128,-1,52
 268 507 268 507 282.5 480.5 c 128,-1,53
 297 454 297 454 303.5 421 c 128,-1,54
 310 388 310 388 310 353 c 2,55,-1
 310 341 l 2,56,57
 310 334 310 334 309.5 326.5 c 128,-1,58
 309 319 309 319 309 314.5 c 128,-1,59
 309 310 309 310 309 309 c 0,60,61
 306 298 306 298 296.5 272.5 c 128,-1,62
 287 247 287 247 276 218.5 c 128,-1,63
 265 190 265 190 255 164.5 c 128,-1,64
 245 139 245 139 239 130 c 0,65,66
 239 129 239 129 238.5 125.5 c 128,-1,67
 238 122 238 122 238 122 c 1,68,69
 238 98 238 98 253 81 c 128,-1,70
 268 64 268 64 289 52.5 c 128,-1,71
 310 41 310 41 332.5 36 c 128,-1,72
 355 31 355 31 371 31 c 256,73,74
 387 31 387 31 399 42.5 c 128,-1,75
 411 54 411 54 423.5 67.5 c 128,-1,76
 436 81 436 81 448.5 92 c 128,-1,77
 461 103 461 103 477 103 c 1,78,79
 477 78 477 78 464.5 59 c 128,-1,80
 452 40 452 40 433.5 26.5 c 128,-1,81
 415 13 415 13 394 6 c 128,-1,82
 373 -1 373 -1 355 -1 c 0,83,84
 333 -1 333 -1 314 9.5 c 128,-1,85
 295 20 295 20 276 32.5 c 128,-1,86
 257 45 257 45 238.5 55.5 c 128,-1,87
 220 66 220 66 198 66 c 0,0,1
95 116 m 2,88,89
 76 116 76 116 66 112.5 c 128,-1,90
 56 109 56 109 51 101 c 128,-1,91
 46 93 46 93 45 77 c 128,-1,92
 44 61 44 61 44 37 c 1,93,-1
 67 37 l 2,94,95
 85 37 85 37 106 41.5 c 128,-1,96
 127 46 127 46 143 56.5 c 128,-1,97
 159 67 159 67 159 90 c 0,98,99
 159 101 159 101 151 106.5 c 128,-1,100
 143 112 143 112 132 114 c 128,-1,101
 121 116 121 116 111 116 c 2,102,-1
 95 116 l 2,88,89
EndSplineSet
EndChar

StartChar: three
Encoding: 51 51 22
Width: 382
Flags: W
LayerCount: 2
Fore
SplineSet
55 95 m 1,0,1
 71 95 71 95 85 87 c 128,-1,2
 99 79 99 79 114.5 68.5 c 128,-1,3
 130 58 130 58 149.5 50 c 128,-1,4
 169 42 169 42 195 42 c 0,5,6
 224 42 224 42 247.5 52.5 c 128,-1,7
 271 63 271 63 287.5 81.5 c 128,-1,8
 304 100 304 100 313.5 126 c 128,-1,9
 323 152 323 152 323 184 c 0,10,11
 323 213 323 213 318.5 238.5 c 128,-1,12
 314 264 314 264 303 282.5 c 128,-1,13
 292 301 292 301 273 311.5 c 128,-1,14
 254 322 254 322 225 322 c 0,15,16
 203 322 203 322 188 316 c 128,-1,17
 173 310 173 310 159 303 c 128,-1,18
 145 296 145 296 131 290 c 128,-1,19
 117 284 117 284 99 284 c 1,20,21
 99 316 99 316 110 344.5 c 128,-1,22
 121 373 121 373 134.5 400 c 128,-1,23
 148 427 148 427 159.5 455.5 c 128,-1,24
 171 484 171 484 171 514 c 1,25,26
 168 514 168 514 162.5 515.5 c 128,-1,27
 157 517 157 517 150.5 517.5 c 128,-1,28
 144 518 144 518 138.5 518.5 c 128,-1,29
 133 519 133 519 130 519 c 1,30,31
 125 517 125 517 111.5 513.5 c 128,-1,32
 98 510 98 510 83 505 c 128,-1,33
 68 500 68 500 54.5 495 c 128,-1,34
 41 490 41 490 36 489 c 1,35,-1
 22 503 l 1,36,37
 28 506 28 506 41 511.5 c 128,-1,38
 54 517 54 517 69.5 523 c 128,-1,39
 85 529 85 529 103 535.5 c 128,-1,40
 121 542 121 542 137.5 548 c 128,-1,41
 154 554 154 554 166.5 558.5 c 128,-1,42
 179 563 179 563 185 565 c 0,43,44
 187 566 187 566 191.5 567 c 128,-1,45
 196 568 196 568 201.5 569 c 128,-1,46
 207 570 207 570 211.5 570.5 c 128,-1,47
 216 571 216 571 218 571 c 1,48,49
 218 546 218 546 213 517.5 c 128,-1,50
 208 489 208 489 200.5 461 c 128,-1,51
 193 433 193 433 185.5 408 c 128,-1,52
 178 383 178 383 172 366 c 1,53,54
 220 364 220 364 256 357 c 128,-1,55
 292 350 292 350 316 331.5 c 128,-1,56
 340 313 340 313 352 279.5 c 128,-1,57
 364 246 364 246 364 190 c 0,58,59
 364 149 364 149 350.5 117 c 128,-1,60
 337 85 337 85 314.5 61.5 c 128,-1,61
 292 38 292 38 261 25 c 128,-1,62
 230 12 230 12 195 12 c 0,63,64
 178 12 178 12 154 14.5 c 128,-1,65
 130 17 130 17 107.5 25.5 c 128,-1,66
 85 34 85 34 70 50.5 c 128,-1,67
 55 67 55 67 55 95 c 1,0,1
EndSplineSet
EndChar

StartChar: four
Encoding: 52 52 23
Width: 397
Flags: W
LayerCount: 2
Fore
SplineSet
220 335 m 1,0,-1
 37 335 l 2,1,2
 30 335 30 335 26 343 c 128,-1,3
 22 351 22 351 22 357 c 0,4,5
 22 358 22 358 22.5 361 c 128,-1,6
 23 364 23 364 24 364 c 0,7,8
 71 410 71 410 106 444.5 c 128,-1,9
 141 479 141 479 164.5 501.5 c 128,-1,10
 188 524 188 524 202 536.5 c 128,-1,11
 216 549 216 549 220 553 c 1,12,13
 220 553 220 553 222.5 553.5 c 128,-1,14
 225 554 225 554 227 554 c 0,15,16
 233 554 233 554 237 547.5 c 128,-1,17
 241 541 241 541 243 533 c 128,-1,18
 245 525 245 525 246 517.5 c 128,-1,19
 247 510 247 510 247 509 c 0,20,21
 247 502 247 502 249 483 c 128,-1,22
 251 464 251 464 253 443.5 c 128,-1,23
 255 423 255 423 256.5 404.5 c 128,-1,24
 258 386 258 386 258 379 c 1,25,26
 260 371 260 371 264.5 367.5 c 128,-1,27
 269 364 269 364 275.5 363 c 128,-1,28
 282 362 282 362 287.5 362.5 c 128,-1,29
 293 363 293 363 298 363 c 0,30,31
 323 363 323 363 341.5 373 c 128,-1,32
 360 383 360 383 376 407 c 1,33,34
 376 406 376 406 377 400.5 c 128,-1,35
 378 395 378 395 378 393 c 0,36,37
 383 367 383 367 377 353 c 128,-1,38
 371 339 371 339 358 333 c 128,-1,39
 345 327 345 327 327.5 326.5 c 128,-1,40
 310 326 310 326 294.5 327 c 128,-1,41
 279 328 279 328 267 327.5 c 128,-1,42
 255 327 255 327 253 320 c 1,43,-1
 253 30 l 1,44,-1
 233 0 l 1,45,-1
 220 14 l 1,46,-1
 220 335 l 1,0,-1
128 379 m 1,47,-1
 206 379 l 1,48,-1
 206 480 l 1,49,-1
 193 480 l 1,50,-1
 128 407 l 1,51,-1
 128 379 l 1,47,-1
EndSplineSet
EndChar

StartChar: five
Encoding: 53 53 24
Width: 417
Flags: W
LayerCount: 2
Fore
SplineSet
20 95 m 0,0,1
 20 97 20 97 20 102.5 c 128,-1,2
 20 108 20 108 21 109 c 1,3,4
 56 77 56 77 93 58 c 128,-1,5
 130 39 130 39 178 39 c 0,6,7
 221 39 221 39 253.5 53.5 c 128,-1,8
 286 68 286 68 307.5 94.5 c 128,-1,9
 329 121 329 121 340 157 c 128,-1,10
 351 193 351 193 351 233 c 0,11,12
 351 236 351 236 350.5 246 c 128,-1,13
 350 256 350 256 349.5 266.5 c 128,-1,14
 349 277 349 277 349 287 c 128,-1,15
 349 297 349 297 349 301 c 1,16,17
 346 306 346 306 337 317 c 128,-1,18
 328 328 328 328 317.5 338.5 c 128,-1,19
 307 349 307 349 296.5 358.5 c 128,-1,20
 286 368 286 368 281 370 c 1,21,-1
 276 370 l 1,22,23
 273 371 273 371 267 371 c 128,-1,24
 261 371 261 371 255 371 c 2,25,-1
 247 371 l 2,26,27
 214 371 214 371 188.5 361.5 c 128,-1,28
 163 352 163 352 142 341 c 128,-1,29
 121 330 121 330 103 320.5 c 128,-1,30
 85 311 85 311 70 311 c 1,31,32
 70 319 70 319 70.5 341 c 128,-1,33
 71 363 71 363 72.5 388 c 128,-1,34
 74 413 74 413 74.5 435 c 128,-1,35
 75 457 75 457 76 465 c 0,36,37
 76 473 76 473 77.5 485.5 c 128,-1,38
 79 498 79 498 83 508.5 c 128,-1,39
 87 519 87 519 95 526.5 c 128,-1,40
 103 534 103 534 117 534 c 2,41,-1
 322 534 l 1,42,-1
 322 514 l 1,43,-1
 144 514 l 2,44,45
 134 514 134 514 128.5 497.5 c 128,-1,46
 123 481 123 481 120.5 461 c 128,-1,47
 118 441 118 441 117.5 423.5 c 128,-1,48
 117 406 117 406 117 403 c 0,49,50
 117 395 117 395 119 391.5 c 128,-1,51
 121 388 121 388 130 382 c 1,52,53
 147 388 147 388 160.5 391 c 128,-1,54
 174 394 174 394 187 396 c 128,-1,55
 200 398 200 398 213.5 398 c 128,-1,56
 227 398 227 398 243 398 c 256,57,58
 259 398 259 398 271.5 398 c 128,-1,59
 284 398 284 398 296 395 c 128,-1,60
 308 392 308 392 320.5 386.5 c 128,-1,61
 333 381 333 381 349 370 c 1,62,63
 348 369 348 369 351.5 362 c 128,-1,64
 355 355 355 355 359.5 345.5 c 128,-1,65
 364 336 364 336 369 324 c 128,-1,66
 374 312 374 312 379 302 c 128,-1,67
 384 292 384 292 387.5 284 c 128,-1,68
 391 276 391 276 391 274 c 2,69,-1
 391 266 l 2,70,71
 391 261 391 261 391 253.5 c 128,-1,72
 391 246 391 246 391 238 c 2,73,-1
 391 226 l 2,74,75
 391 180 391 180 377 140.5 c 128,-1,76
 363 101 363 101 336.5 71 c 128,-1,77
 310 41 310 41 271.5 22.5 c 128,-1,78
 233 4 233 4 184 0 c 1,79,80
 174 -2 174 -2 157 1 c 128,-1,81
 140 4 140 4 121.5 10.5 c 128,-1,82
 103 17 103 17 85 26 c 128,-1,83
 67 35 67 35 52.5 46.5 c 128,-1,84
 38 58 38 58 29 70 c 128,-1,85
 20 82 20 82 20 95 c 0,0,1
EndSplineSet
EndChar

StartChar: six
Encoding: 54 54 25
Width: 403
Flags: W
LayerCount: 2
Fore
SplineSet
25 252 m 0,0,1
 25 282 25 282 29 317 c 128,-1,2
 33 352 33 352 41.5 387.5 c 128,-1,3
 50 423 50 423 64 456 c 128,-1,4
 78 489 78 489 97 514 c 128,-1,5
 116 539 116 539 141 554.5 c 128,-1,6
 166 570 166 570 196 570 c 0,7,8
 203 570 203 570 217 569 c 128,-1,9
 231 568 231 568 245.5 565 c 128,-1,10
 260 562 260 562 271 555 c 128,-1,11
 282 548 282 548 282 535 c 2,12,-1
 282 517 l 1,13,14
 272 517 272 517 263.5 520 c 128,-1,15
 255 523 255 523 246.5 527 c 128,-1,16
 238 531 238 531 228.5 534 c 128,-1,17
 219 537 219 537 208 537 c 0,18,19
 179 537 179 537 158.5 524 c 128,-1,20
 138 511 138 511 123.5 489 c 128,-1,21
 109 467 109 467 100 438.5 c 128,-1,22
 91 410 91 410 86.5 379 c 128,-1,23
 82 348 82 348 80 317 c 128,-1,24
 78 286 78 286 78 259 c 0,25,26
 78 242 78 242 79.5 221 c 128,-1,27
 81 200 81 200 84.5 178.5 c 128,-1,28
 88 157 88 157 95 136.5 c 128,-1,29
 102 116 102 116 112.5 100.5 c 128,-1,30
 123 85 123 85 138.5 75 c 128,-1,31
 154 65 154 65 175 65 c 0,32,33
 176 65 176 65 181 65.5 c 128,-1,34
 186 66 186 66 188 66 c 1,35,36
 197 94 197 94 209 123 c 128,-1,37
 221 152 221 152 238.5 176 c 128,-1,38
 256 200 256 200 278.5 215 c 128,-1,39
 301 230 301 230 329 230 c 0,40,41
 346 230 346 230 355 221.5 c 128,-1,42
 364 213 364 213 369 200 c 128,-1,43
 374 187 374 187 376 170.5 c 128,-1,44
 378 154 378 154 378 138 c 0,45,46
 378 110 378 110 372.5 86.5 c 128,-1,47
 367 63 367 63 355.5 45 c 128,-1,48
 344 27 344 27 326 15.5 c 128,-1,49
 308 4 308 4 282 2 c 1,50,51
 231 -4 231 -4 185 11 c 128,-1,52
 139 26 139 26 103 58.5 c 128,-1,53
 67 91 67 91 46 140 c 128,-1,54
 25 189 25 189 25 252 c 0,0,1
322 198 m 0,55,56
 301 198 301 198 285 182 c 128,-1,57
 269 166 269 166 259 142 c 128,-1,58
 249 118 249 118 243.5 92 c 128,-1,59
 238 66 238 66 238 44 c 1,60,61
 265 44 265 44 285.5 49.5 c 128,-1,62
 306 55 306 55 320.5 67 c 128,-1,63
 335 79 335 79 342.5 100.5 c 128,-1,64
 350 122 350 122 350 156 c 0,65,66
 350 175 350 175 344.5 186.5 c 128,-1,67
 339 198 339 198 322 198 c 0,55,56
EndSplineSet
EndChar

StartChar: seven
Encoding: 55 55 26
Width: 370
Flags: W
LayerCount: 2
Fore
SplineSet
190 46 m 0,0,1
 190 92 190 92 196 135.5 c 128,-1,2
 202 179 202 179 202 223 c 0,3,4
 202 233 202 233 200 237 c 128,-1,5
 198 241 198 241 190 247 c 1,6,7
 184 247 184 247 167 244 c 128,-1,8
 150 241 150 241 131.5 238.5 c 128,-1,9
 113 236 113 236 96.5 233.5 c 128,-1,10
 80 231 80 231 74 230 c 0,11,12
 72 230 72 230 67.5 230 c 128,-1,13
 63 230 63 230 61 230 c 1,14,-1
 61 264 l 2,15,16
 61 265 61 265 67 266.5 c 128,-1,17
 73 268 73 268 81 271 c 128,-1,18
 89 274 89 274 97.5 276.5 c 128,-1,19
 106 279 106 279 112 281 c 0,20,21
 117 282 117 282 130.5 284.5 c 128,-1,22
 144 287 144 287 158 289.5 c 128,-1,23
 172 292 172 292 184.5 293.5 c 128,-1,24
 197 295 197 295 202 296 c 1,25,26
 218 346 218 346 221.5 393 c 128,-1,27
 225 440 225 440 225 492 c 1,28,29
 201 492 201 492 178 486.5 c 128,-1,30
 155 481 155 481 131.5 475 c 128,-1,31
 108 469 108 469 84 463.5 c 128,-1,32
 60 458 60 458 36 458 c 1,33,-1
 36 479 l 2,34,35
 36 481 36 481 53.5 487 c 128,-1,36
 71 493 71 493 95.5 500.5 c 128,-1,37
 120 508 120 508 146.5 516 c 128,-1,38
 173 524 173 524 190 527 c 0,39,40
 194 528 194 528 205.5 530 c 128,-1,41
 217 532 217 532 229 533.5 c 128,-1,42
 241 535 241 535 252 535.5 c 128,-1,43
 263 536 263 536 267 536 c 1,44,45
 267 484 267 484 262 430 c 128,-1,46
 257 376 257 376 254 329 c 0,47,48
 253 325 253 325 253.5 318 c 128,-1,49
 254 311 254 311 255 304 c 0,50,51
 255 297 255 297 255 289 c 1,52,-1
 355 289 l 1,53,54
 355 273 355 273 348 265 c 128,-1,55
 341 257 341 257 330.5 254.5 c 128,-1,56
 320 252 320 252 307.5 252.5 c 128,-1,57
 295 253 295 253 284 252 c 128,-1,58
 273 251 273 251 264.5 246.5 c 128,-1,59
 256 242 256 242 254 230 c 2,60,-1
 214 17 l 1,61,-1
 202 0 l 1,62,63
 195 2 195 2 192.5 7.5 c 128,-1,64
 190 13 190 13 189 20 c 128,-1,65
 188 27 188 27 189 34 c 128,-1,66
 190 41 190 41 190 46 c 0,0,1
EndSplineSet
EndChar

StartChar: eight
Encoding: 56 56 27
Width: 314
Flags: W
LayerCount: 2
Fore
SplineSet
52 90 m 1,0,1
 52 94 52 94 52 103.5 c 128,-1,2
 52 113 52 113 52 124 c 128,-1,3
 52 135 52 135 51.5 144.5 c 128,-1,4
 51 154 51 154 51 157 c 0,5,6
 51 178 51 178 53.5 197 c 128,-1,7
 56 216 56 216 59 234.5 c 128,-1,8
 62 253 62 253 64.5 272 c 128,-1,9
 67 291 67 291 67 310 c 0,10,11
 67 330 67 330 58 346 c 128,-1,12
 49 362 49 362 38.5 377.5 c 128,-1,13
 28 393 28 393 19 411 c 128,-1,14
 10 429 10 429 10 452 c 0,15,16
 10 485 10 485 17 506 c 128,-1,17
 24 527 24 527 37.5 538.5 c 128,-1,18
 51 550 51 550 72 554.5 c 128,-1,19
 93 559 93 559 120 559 c 0,20,21
 132 559 132 559 157 558 c 128,-1,22
 182 557 182 557 206 550.5 c 128,-1,23
 230 544 230 544 249 531.5 c 128,-1,24
 268 519 268 519 268 497 c 0,25,26
 268 495 268 495 267 491 c 1,27,28
 268 488 268 488 268 484 c 0,29,30
 268 479 268 479 259.5 467.5 c 128,-1,31
 251 456 251 456 238 442 c 128,-1,32
 225 428 225 428 209.5 413 c 128,-1,33
 194 398 194 398 181 381.5 c 128,-1,34
 168 365 168 365 159.5 350.5 c 128,-1,35
 151 336 151 336 151 324 c 0,36,37
 151 322 151 322 151.5 319.5 c 128,-1,38
 152 317 152 317 152 317 c 1,39,40
 168 302 168 302 192.5 280 c 128,-1,41
 217 258 217 258 240 231 c 128,-1,42
 263 204 263 204 279 174 c 128,-1,43
 295 144 295 144 295 114 c 0,44,45
 295 93 295 93 285 72 c 128,-1,46
 275 51 275 51 258.5 35.5 c 128,-1,47
 242 20 242 20 221.5 10 c 128,-1,48
 201 0 201 0 181 0 c 0,49,50
 158 0 158 0 140 7 c 128,-1,51
 122 14 122 14 106.5 26.5 c 128,-1,52
 91 39 91 39 78 55 c 128,-1,53
 65 71 65 71 52 90 c 1,0,1
79 155 m 0,54,55
 79 100 79 100 109 72 c 128,-1,56
 139 44 139 44 190 44 c 0,57,58
 221 44 221 44 237.5 56.5 c 128,-1,59
 254 69 254 69 254 103 c 0,60,61
 254 129 254 129 241.5 158 c 128,-1,62
 229 187 229 187 209.5 212.5 c 128,-1,63
 190 238 190 238 165.5 254.5 c 128,-1,64
 141 271 141 271 117 271 c 0,65,66
 116 271 116 271 113.5 271 c 128,-1,67
 111 271 111 271 110 271 c 0,68,69
 98 257 98 257 91.5 243.5 c 128,-1,70
 85 230 85 230 82 216 c 128,-1,71
 79 202 79 202 79 187 c 128,-1,72
 79 172 79 172 79 155 c 0,54,55
231 508 m 0,73,74
 216 517 216 517 200 522 c 128,-1,75
 184 527 184 527 168 528.5 c 128,-1,76
 152 530 152 530 130 530 c 0,77,78
 128 530 128 530 120.5 529.5 c 128,-1,79
 113 529 113 529 105.5 528.5 c 128,-1,80
 98 528 98 528 91.5 527.5 c 128,-1,81
 85 527 85 527 82 527 c 1,82,83
 65 516 65 516 58 497.5 c 128,-1,84
 51 479 51 479 51 459 c 0,85,86
 51 445 51 445 54.5 428 c 128,-1,87
 58 411 58 411 66 396 c 128,-1,88
 74 381 74 381 84.5 370.5 c 128,-1,89
 95 360 95 360 112 360 c 0,90,91
 113 360 113 360 117.5 360.5 c 128,-1,92
 122 361 122 361 123 362 c 2,93,-1
 245 499 l 1,94,95
 238 504 238 504 231 508 c 0,73,74
EndSplineSet
EndChar

StartChar: nine
Encoding: 57 57 28
Width: 309
Flags: W
LayerCount: 2
Fore
SplineSet
206 49 m 2,0,1
 206 117 206 117 212 181.5 c 128,-1,2
 218 246 218 246 218 312 c 1,3,4
 205 312 205 312 193 310 c 2,5,-1
 144 301 l 2,6,7
 132 298 132 298 120 298 c 0,8,9
 102 298 102 298 84 303.5 c 128,-1,10
 66 309 66 309 51 319.5 c 128,-1,11
 36 330 36 330 27 347 c 128,-1,12
 18 364 18 364 18 387 c 0,13,14
 18 414 18 414 28.5 441 c 128,-1,15
 39 468 39 468 56.5 489.5 c 128,-1,16
 74 511 74 511 97.5 524.5 c 128,-1,17
 121 538 121 538 147 538 c 0,18,19
 160 538 160 538 184 533.5 c 128,-1,20
 208 529 208 529 231 518.5 c 128,-1,21
 254 508 254 508 270.5 490.5 c 128,-1,22
 287 473 287 473 287 449 c 0,23,24
 287 446 287 446 285.5 441.5 c 128,-1,25
 284 437 284 437 282 432 c 128,-1,26
 280 427 280 427 277.5 423 c 128,-1,27
 275 419 275 419 274 418 c 1,28,29
 274 405 274 405 272 377 c 128,-1,30
 270 349 270 349 267.5 313.5 c 128,-1,31
 265 278 265 278 262 239 c 128,-1,32
 259 200 259 200 256.5 164.5 c 128,-1,33
 254 129 254 129 251.5 101 c 128,-1,34
 249 73 249 73 247 59 c 0,35,36
 247 56 247 56 245.5 47.5 c 128,-1,37
 244 39 244 39 241.5 29.5 c 128,-1,38
 239 20 239 20 237.5 12 c 128,-1,39
 236 4 236 4 234 0 c 1,40,-1
 207 15 l 1,41,-1
 206 20 l 2,42,43
 206 23 206 23 206 28.5 c 128,-1,44
 206 34 206 34 206 40 c 2,45,-1
 206 49 l 2,0,1
59 397 m 0,46,47
 59 376 59 376 63.5 362.5 c 128,-1,48
 68 349 68 349 76.5 341 c 128,-1,49
 85 333 85 333 97 330.5 c 128,-1,50
 109 328 109 328 125 328 c 0,51,52
 151 328 151 328 173.5 338.5 c 128,-1,53
 196 349 196 349 212.5 369 c 128,-1,54
 229 389 229 389 238.5 415 c 128,-1,55
 248 441 248 441 248 472 c 0,56,57
 248 484 248 484 236 489 c 128,-1,58
 224 494 224 494 209 495.5 c 128,-1,59
 194 497 194 497 181 496 c 128,-1,60
 168 495 168 495 167 495 c 0,61,62
 144 500 144 500 124.5 493.5 c 128,-1,63
 105 487 105 487 90.5 472 c 128,-1,64
 76 457 76 457 68 437.5 c 128,-1,65
 60 418 60 418 59 397 c 0,46,47
EndSplineSet
EndChar

StartChar: colon
Encoding: 58 58 29
Width: 160
Flags: W
LayerCount: 2
Fore
SplineSet
49 21 m 256,0,1
 49 30 49 30 55.5 35.5 c 128,-1,2
 62 41 62 41 71 41 c 256,3,4
 80 41 80 41 86 35.5 c 128,-1,5
 92 30 92 30 92 21 c 256,6,7
 92 12 92 12 86 5.5 c 128,-1,8
 80 -1 80 -1 71 -1 c 256,9,10
 62 -1 62 -1 55.5 5.5 c 128,-1,11
 49 12 49 12 49 21 c 256,0,1
56 225 m 0,12,13
 56 233 56 233 62 239.5 c 128,-1,14
 68 246 68 246 77 246 c 256,15,16
 86 246 86 246 92 239.5 c 128,-1,17
 98 233 98 233 98 225 c 0,18,19
 98 215 98 215 92 209 c 128,-1,20
 86 203 86 203 77 203 c 256,21,22
 68 203 68 203 62 209 c 128,-1,23
 56 215 56 215 56 225 c 0,12,13
EndSplineSet
EndChar

StartChar: semicolon
Encoding: 59 59 30
Width: 155
Flags: W
LayerCount: 2
Fore
SplineSet
85 68 m 0,0,1
 95 68 95 68 101 66 c 128,-1,2
 107 64 107 64 109.5 59.5 c 128,-1,3
 112 55 112 55 112.5 49 c 128,-1,4
 113 43 113 43 113 36 c 0,5,6
 113 14 113 14 103.5 -10 c 128,-1,7
 94 -34 94 -34 77.5 -55.5 c 128,-1,8
 61 -77 61 -77 40.5 -90.5 c 128,-1,9
 20 -104 20 -104 -4 -104 c 1,10,11
 -4 -87 -4 -87 5 -66.5 c 128,-1,12
 14 -46 14 -46 27 -24.5 c 128,-1,13
 40 -3 40 -3 52.5 18 c 128,-1,14
 65 39 65 39 71 55 c 0,15,16
 72 58 72 58 77.5 63 c 128,-1,17
 83 68 83 68 85 68 c 0,0,1
58 274 m 1,18,19
 58 274 58 274 63.5 275 c 128,-1,20
 69 276 69 276 71 276 c 0,21,22
 85 276 85 276 94 268 c 128,-1,23
 103 260 103 260 103 247 c 1,24,-1
 58 247 l 1,25,-1
 58 274 l 1,18,19
EndSplineSet
EndChar

StartChar: less
Encoding: 60 60 31
Width: 438
Flags: W
LayerCount: 2
Fore
SplineSet
6 150 m 1,0,1
 12 157 12 157 19 162.5 c 128,-1,2
 26 168 26 168 33.5 173.5 c 128,-1,3
 41 179 41 179 49 183.5 c 128,-1,4
 57 188 57 188 61 192 c 0,5,6
 70 200 70 200 88.5 218 c 128,-1,7
 107 236 107 236 130 259 c 128,-1,8
 153 282 153 282 178 306 c 2,9,-1
 227 355 l 2,10,11
 249 378 249 378 267 396.5 c 128,-1,12
 285 415 285 415 294 425 c 0,13,14
 298 428 298 428 310 444 c 128,-1,15
 322 460 322 460 335.5 479 c 128,-1,16
 349 498 349 498 361 514 c 128,-1,17
 373 530 373 530 376 534 c 0,18,19
 384 544 384 544 390 547.5 c 128,-1,20
 396 551 396 551 410 551 c 1,21,22
 410 535 410 535 406 517 c 128,-1,23
 402 499 402 499 395.5 481.5 c 128,-1,24
 389 464 389 464 380.5 449 c 128,-1,25
 372 434 372 434 363 425 c 2,26,-1
 103 150 l 1,27,28
 112 144 112 144 136 136.5 c 128,-1,29
 160 129 160 129 190.5 119 c 128,-1,30
 221 109 221 109 254 98 c 128,-1,31
 287 87 287 87 314 75 c 128,-1,32
 341 63 341 63 359 49 c 128,-1,33
 377 35 377 35 377 21 c 0,34,35
 377 12 377 12 371 5.5 c 128,-1,36
 365 -1 365 -1 355 -1 c 1,37,38
 355 -1 355 -1 352 -0.5 c 128,-1,39
 349 0 349 0 349 0 c 1,40,41
 327 9 327 9 296 18.5 c 128,-1,42
 265 28 265 28 231.5 39 c 128,-1,43
 198 50 198 50 164 62.5 c 128,-1,44
 130 75 130 75 99 89 c 128,-1,45
 68 103 68 103 44 118 c 128,-1,46
 20 133 20 133 6 150 c 1,0,1
EndSplineSet
EndChar

StartChar: equal
Encoding: 61 61 32
Width: 376
Flags: W
LayerCount: 2
Fore
SplineSet
321 79 m 1,0,-1
 33 79 l 1,1,2
 35 82 35 82 40.5 87.5 c 128,-1,3
 46 93 46 93 48 93 c 0,4,5
 52 94 52 94 61.5 96 c 128,-1,6
 71 98 71 98 82 100.5 c 128,-1,7
 93 103 93 103 102.5 104.5 c 128,-1,8
 112 106 112 106 116 106 c 0,9,10
 123 107 123 107 139.5 107.5 c 128,-1,11
 156 108 156 108 176 108.5 c 128,-1,12
 196 109 196 109 218.5 109.5 c 128,-1,13
 241 110 241 110 261.5 110.5 c 128,-1,14
 282 111 282 111 297.5 111.5 c 128,-1,15
 313 112 313 112 321 112 c 1,16,-1
 321 79 l 1,0,-1
60 243 m 1,17,-1
 340 243 l 1,18,19
 340 238 340 238 336.5 233 c 128,-1,20
 333 228 333 228 328 224 c 128,-1,21
 323 220 323 220 317.5 218.5 c 128,-1,22
 312 217 312 217 308 217 c 2,23,-1
 33 217 l 1,24,-1
 20 230 l 1,25,-1
 60 243 l 1,17,-1
EndSplineSet
EndChar

StartChar: greater
Encoding: 62 62 33
Width: 417
Flags: W
LayerCount: 2
Fore
SplineSet
49 13 m 0,0,1
 66 34 66 34 94 56 c 128,-1,2
 122 78 122 78 154 100 c 128,-1,3
 186 122 186 122 218.5 145 c 128,-1,4
 251 168 251 168 277 191 c 128,-1,5
 303 214 303 214 320 238.5 c 128,-1,6
 337 263 337 263 337 287 c 0,7,8
 337 298 337 298 335 303.5 c 128,-1,9
 333 309 333 309 322 314 c 1,10,-1
 34 479 l 2,11,12
 27 484 27 484 22 491 c 128,-1,13
 17 498 17 498 17 507 c 1,14,-1
 61 507 l 2,15,16
 62 507 62 507 77.5 499.5 c 128,-1,17
 93 492 93 492 116.5 480 c 128,-1,18
 140 468 140 468 170.5 453 c 128,-1,19
 201 438 201 438 230.5 423.5 c 128,-1,20
 260 409 260 409 288 394.5 c 128,-1,21
 316 380 316 380 336 370 c 0,22,23
 344 365 344 365 355.5 358.5 c 128,-1,24
 367 352 367 352 378.5 342.5 c 128,-1,25
 390 333 390 333 397.5 322 c 128,-1,26
 405 311 405 311 405 301 c 0,27,28
 405 282 405 282 392.5 260 c 128,-1,29
 380 238 380 238 362.5 216.5 c 128,-1,30
 345 195 345 195 326 177.5 c 128,-1,31
 307 160 307 160 294 150 c 0,32,33
 290 148 290 148 277.5 138.5 c 128,-1,34
 265 129 265 129 247 116 c 128,-1,35
 229 103 229 103 208.5 88.5 c 128,-1,36
 188 74 188 74 168 59.5 c 128,-1,37
 148 45 148 45 130.5 33 c 128,-1,38
 113 21 113 21 103 13 c 0,39,40
 101 12 101 12 96.5 9.5 c 128,-1,41
 92 7 92 7 87.5 5.5 c 128,-1,42
 83 4 83 4 79.5 2 c 128,-1,43
 76 0 76 0 76 0 c 2,44,45
 74 0 74 0 70 2 c 128,-1,46
 66 4 66 4 62 5.5 c 128,-1,47
 58 7 58 7 53.5 9.5 c 128,-1,48
 49 12 49 12 49 13 c 0,0,1
EndSplineSet
EndChar

StartChar: question
Encoding: 63 63 34
Width: 408
Flags: W
LayerCount: 2
Fore
SplineSet
66 355 m 0,0,1
 65 357 65 357 64 362.5 c 128,-1,2
 63 368 63 368 63 370 c 0,3,4
 63 394 63 394 83.5 413 c 128,-1,5
 104 432 104 432 135 448.5 c 128,-1,6
 166 465 166 465 202 482 c 128,-1,7
 238 499 238 499 269 519 c 128,-1,8
 300 539 300 539 320.5 564 c 128,-1,9
 341 589 341 589 341 622 c 0,10,11
 341 647 341 647 330.5 662.5 c 128,-1,12
 320 678 320 678 304 686 c 128,-1,13
 288 694 288 694 267.5 696.5 c 128,-1,14
 247 699 247 699 226 699 c 0,15,16
 198 699 198 699 171.5 686 c 128,-1,17
 145 673 145 673 121 657 c 128,-1,18
 97 641 97 641 77.5 628 c 128,-1,19
 58 615 58 615 46 615 c 0,20,21
 36 615 36 615 30 621 c 128,-1,22
 24 627 24 627 24 637 c 0,23,24
 24 654 24 654 37 667.5 c 128,-1,25
 50 681 50 681 71 693 c 128,-1,26
 92 705 92 705 116.5 713.5 c 128,-1,27
 141 722 141 722 166 727.5 c 128,-1,28
 191 733 191 733 211.5 736 c 128,-1,29
 232 739 232 739 244 739 c 0,30,31
 309 739 309 739 345.5 710 c 128,-1,32
 382 681 382 681 382 616 c 0,33,34
 382 614 382 614 382 608 c 128,-1,35
 382 602 382 602 382 595.5 c 128,-1,36
 382 589 382 589 381.5 583 c 128,-1,37
 381 577 381 577 381 575 c 1,38,39
 369 559 369 559 344 539 c 128,-1,40
 319 519 319 519 289 499 c 128,-1,41
 259 479 259 479 226.5 459 c 128,-1,42
 194 439 194 439 167 422.5 c 128,-1,43
 140 406 140 406 123 394 c 128,-1,44
 106 382 106 382 106 376 c 0,45,46
 106 365 106 365 116 356 c 128,-1,47
 126 347 126 347 134 342 c 2,48,-1
 155 328 l 2,49,50
 171 318 171 318 188.5 307 c 128,-1,51
 206 296 206 296 222 286.5 c 128,-1,52
 238 277 238 277 244 274 c 0,53,54
 244 273 244 273 244 270.5 c 128,-1,55
 244 268 244 268 244 266 c 0,56,57
 244 257 244 257 238.5 251.5 c 128,-1,58
 233 246 233 246 224 246 c 0,59,60
 201 246 201 246 178 257.5 c 128,-1,61
 155 269 155 269 134 286 c 128,-1,62
 113 303 113 303 95.5 322 c 128,-1,63
 78 341 78 341 66 355 c 0,0,1
288 28 m 1,64,65
 288 18 288 18 281.5 8.5 c 128,-1,66
 275 -1 275 -1 265 -1 c 0,67,68
 254 -1 254 -1 247 8.5 c 128,-1,69
 240 18 240 18 240 28 c 1,70,-1
 288 28 l 1,64,65
EndSplineSet
EndChar

StartChar: at
Encoding: 64 64 35
Width: 951
Flags: W
LayerCount: 2
Fore
SplineSet
20 376 m 0,0,1
 20 433 20 433 31 488.5 c 128,-1,2
 42 544 42 544 64.5 594 c 128,-1,3
 87 644 87 644 120 686 c 128,-1,4
 153 728 153 728 196 758.5 c 128,-1,5
 239 789 239 789 292.5 806 c 128,-1,6
 346 823 346 823 410 823 c 0,7,8
 441 823 441 823 478 816.5 c 128,-1,9
 515 810 515 810 552 796.5 c 128,-1,10
 589 783 589 783 624.5 763 c 128,-1,11
 660 743 660 743 687 717.5 c 128,-1,12
 714 692 714 692 730.5 660 c 128,-1,13
 747 628 747 628 747 591 c 0,14,15
 747 560 747 560 738 525 c 128,-1,16
 729 490 729 490 710.5 461.5 c 128,-1,17
 692 433 692 433 664.5 414 c 128,-1,18
 637 395 637 395 600 395 c 0,19,20
 590 395 590 395 584 400 c 128,-1,21
 578 405 578 405 573 410.5 c 128,-1,22
 568 416 568 416 562 420.5 c 128,-1,23
 556 425 556 425 547 425 c 0,24,25
 530 425 530 425 512.5 416.5 c 128,-1,26
 495 408 495 408 476.5 397.5 c 128,-1,27
 458 387 458 387 438 378 c 128,-1,28
 418 369 418 369 397 369 c 0,29,30
 346 369 346 369 319 397.5 c 128,-1,31
 292 426 292 426 292 473 c 0,32,33
 292 506 292 506 303 530.5 c 128,-1,34
 314 555 314 555 332 571.5 c 128,-1,35
 350 588 350 588 375.5 595.5 c 128,-1,36
 401 603 401 603 432 603 c 256,37,38
 463 603 463 603 487 590 c 128,-1,39
 511 577 511 577 528.5 557 c 128,-1,40
 546 537 546 537 558.5 513.5 c 128,-1,41
 571 490 571 490 580 470.5 c 128,-1,42
 589 451 589 451 596 438 c 128,-1,43
 603 425 603 425 608 425 c 0,44,45
 625 425 625 425 639.5 434.5 c 128,-1,46
 654 444 654 444 666.5 458.5 c 128,-1,47
 679 473 679 473 688.5 492 c 128,-1,48
 698 511 698 511 704.5 530 c 128,-1,49
 711 549 711 549 715 566.5 c 128,-1,50
 719 584 719 584 719 595 c 0,51,52
 719 633 719 633 702 661 c 128,-1,53
 685 689 685 689 657.5 709.5 c 128,-1,54
 630 730 630 730 595 744 c 128,-1,55
 560 758 560 758 523.5 766.5 c 128,-1,56
 487 775 487 775 452.5 778 c 128,-1,57
 418 781 418 781 391 781 c 0,58,59
 333 781 333 781 286 765 c 128,-1,60
 239 749 239 749 203.5 720.5 c 128,-1,61
 168 692 168 692 144 653 c 128,-1,62
 120 614 120 614 104 568.5 c 128,-1,63
 88 523 88 523 81 472.5 c 128,-1,64
 74 422 74 422 74 371 c 0,65,66
 74 283 74 283 98 220 c 128,-1,67
 122 157 122 157 168.5 116.5 c 128,-1,68
 215 76 215 76 281 57.5 c 128,-1,69
 347 39 347 39 431 39 c 0,70,71
 460 39 460 39 504.5 42.5 c 128,-1,72
 549 46 549 46 598 54 c 128,-1,73
 647 62 647 62 697.5 76 c 128,-1,74
 748 90 748 90 790 111.5 c 128,-1,75
 832 133 832 133 860.5 163 c 128,-1,76
 889 193 889 193 896 233 c 0,77,78
 899 249 899 249 885.5 264.5 c 128,-1,79
 872 280 872 280 853 293 c 128,-1,80
 834 306 834 306 815 318 c 128,-1,81
 796 330 796 330 787 342 c 1,82,-1
 801 355 l 2,83,84
 805 360 805 360 816.5 356.5 c 128,-1,85
 828 353 828 353 842 343.5 c 128,-1,86
 856 334 856 334 870.5 320 c 128,-1,87
 885 306 885 306 897.5 292 c 128,-1,88
 910 278 910 278 917.5 264 c 128,-1,89
 925 250 925 250 925 241 c 0,90,91
 925 193 925 193 897.5 157 c 128,-1,92
 870 121 870 121 825.5 94 c 128,-1,93
 781 67 781 67 726.5 49 c 128,-1,94
 672 31 672 31 617 20 c 128,-1,95
 562 9 562 9 514 4 c 128,-1,96
 466 -1 466 -1 436 -1 c 0,97,98
 336 -1 336 -1 259 20 c 128,-1,99
 182 41 182 41 129 86 c 128,-1,100
 76 131 76 131 48 202.5 c 128,-1,101
 20 274 20 274 20 376 c 0,0,1
335 457 m 0,102,103
 335 446 335 446 340.5 435.5 c 128,-1,104
 346 425 346 425 354.5 415.5 c 128,-1,105
 363 406 363 406 373.5 400.5 c 128,-1,106
 384 395 384 395 396 395 c 0,107,108
 420 395 420 395 445.5 401.5 c 128,-1,109
 471 408 471 408 490 421.5 c 128,-1,110
 509 435 509 435 520 455.5 c 128,-1,111
 531 476 531 476 527 507 c 0,112,113
 525 527 525 527 517.5 540.5 c 128,-1,114
 510 554 510 554 498.5 561.5 c 128,-1,115
 487 569 487 569 471.5 572 c 128,-1,116
 456 575 456 575 438 575 c 0,117,118
 411 575 411 575 392 566 c 128,-1,119
 373 557 373 557 360 541.5 c 128,-1,120
 347 526 347 526 341 504.5 c 128,-1,121
 335 483 335 483 335 457 c 0,102,103
EndSplineSet
EndChar

StartChar: A
Encoding: 65 65 36
Width: 657
Flags: W
LayerCount: 2
Fore
SplineSet
8 9 m 1,0,1
 8 25 8 25 14.5 40.5 c 128,-1,2
 21 56 21 56 30 70.5 c 128,-1,3
 39 85 39 85 49.5 98 c 128,-1,4
 60 111 60 111 68 122 c 0,5,6
 117 193 117 193 155 261.5 c 128,-1,7
 193 330 193 330 225 400.5 c 128,-1,8
 257 471 257 471 285 544.5 c 128,-1,9
 313 618 313 618 342 697 c 0,10,11
 346 706 346 706 350.5 709.5 c 128,-1,12
 355 713 355 713 363 713 c 0,13,14
 373 713 373 713 380 703.5 c 128,-1,15
 387 694 387 694 390.5 682 c 128,-1,16
 394 670 394 670 395.5 658.5 c 128,-1,17
 397 647 397 647 397 643 c 0,18,19
 398 636 398 636 399 616.5 c 128,-1,20
 400 597 400 597 401 570.5 c 128,-1,21
 402 544 402 544 403.5 513 c 128,-1,22
 405 482 405 482 406.5 455.5 c 128,-1,23
 408 429 408 429 408.5 409.5 c 128,-1,24
 409 390 409 390 410 382 c 0,25,26
 410 379 410 379 412 371 c 128,-1,27
 414 363 414 363 416 354.5 c 128,-1,28
 418 346 418 346 420.5 338 c 128,-1,29
 423 330 423 330 425 328 c 0,30,31
 425 327 425 327 429.5 323 c 128,-1,32
 434 319 434 319 439 314.5 c 128,-1,33
 444 310 444 310 448 306 c 128,-1,34
 452 302 452 302 452 301 c 0,35,36
 453 299 453 299 453 291 c 128,-1,37
 453 283 453 283 452.5 274 c 128,-1,38
 452 265 452 265 452 256.5 c 128,-1,39
 452 248 452 248 452 247 c 0,40,41
 457 229 457 229 472 206 c 128,-1,42
 487 183 487 183 507 158 c 128,-1,43
 527 133 527 133 549 109 c 128,-1,44
 571 85 571 85 589 66 c 128,-1,45
 607 47 607 47 619 34.5 c 128,-1,46
 631 22 631 22 631 20 c 0,47,48
 631 10 631 10 622.5 5 c 128,-1,49
 614 0 614 0 602 0 c 0,50,51
 579 0 579 0 554.5 18 c 128,-1,52
 530 36 530 36 507 63.5 c 128,-1,53
 484 91 484 91 462.5 123 c 128,-1,54
 441 155 441 155 425 182.5 c 128,-1,55
 409 210 409 210 397.5 228.5 c 128,-1,56
 386 247 386 247 383 247 c 2,57,-1
 220 247 l 2,58,59
 193 247 193 247 175 229 c 128,-1,60
 157 211 157 211 143 184.5 c 128,-1,61
 129 158 129 158 117.5 127.5 c 128,-1,62
 106 97 106 97 91 70.5 c 128,-1,63
 76 44 76 44 57 26.5 c 128,-1,64
 38 9 38 9 8 9 c 1,0,1
342 588 m 1,65,66
 341 587 341 587 339 583 c 128,-1,67
 337 579 337 579 335 575 c 128,-1,68
 333 571 333 571 330.5 566.5 c 128,-1,69
 328 562 328 562 328 561 c 0,70,71
 320 544 320 544 310.5 518 c 128,-1,72
 301 492 301 492 290 465 c 2,73,-1
 269 411 l 2,74,75
 259 384 259 384 251 363 c 128,-1,76
 243 342 243 342 238 328.5 c 128,-1,77
 233 315 233 315 233 314 c 2,78,-1
 233 301 l 1,79,-1
 371 301 l 1,80,-1
 342 588 l 1,65,66
EndSplineSet
EndChar

StartChar: B
Encoding: 66 66 37
Width: 472
Flags: W
LayerCount: 2
Fore
SplineSet
41 534 m 2,0,1
 42 573 42 573 58 593.5 c 128,-1,2
 74 614 74 614 98.5 622 c 128,-1,3
 123 630 123 630 154 630.5 c 128,-1,4
 185 631 185 631 218 631 c 0,5,6
 247 631 247 631 268 626.5 c 128,-1,7
 289 622 289 622 303 610 c 128,-1,8
 317 598 317 598 323.5 579 c 128,-1,9
 330 560 330 560 330 530 c 0,10,11
 330 490 330 490 310.5 463 c 128,-1,12
 291 436 291 436 260 410 c 1,13,14
 282 392 282 392 305 385 c 128,-1,15
 328 378 328 378 349.5 374 c 128,-1,16
 371 370 371 370 390 365 c 128,-1,17
 409 360 409 360 423 347.5 c 128,-1,18
 437 335 437 335 445.5 310 c 128,-1,19
 454 285 454 285 454 242 c 0,20,21
 454 188 454 188 431.5 143.5 c 128,-1,22
 409 99 409 99 372.5 67 c 128,-1,23
 336 35 336 35 287 17 c 128,-1,24
 238 -1 238 -1 184 -1 c 0,25,26
 180 -1 180 -1 173 -0.5 c 128,-1,27
 166 0 166 0 165 0 c 0,28,29
 151 4 151 4 130 9.5 c 128,-1,30
 109 15 109 15 89 22 c 128,-1,31
 69 29 69 29 55 34 c 128,-1,32
 41 39 41 39 41 40 c 2,33,-1
 28 109 l 1,34,-1
 41 534 l 2,0,1
255 357 m 2,35,-1
 236 357 l 2,36,37
 222 357 222 357 204.5 356 c 128,-1,38
 187 355 187 355 167.5 352 c 128,-1,39
 148 349 148 349 132.5 344.5 c 128,-1,40
 117 340 117 340 106 332.5 c 128,-1,41
 95 325 95 325 95 314 c 2,42,-1
 95 55 l 2,43,44
 95 53 95 53 98.5 51 c 128,-1,45
 102 49 102 49 107 46.5 c 128,-1,46
 112 44 112 44 116 42.5 c 128,-1,47
 120 41 120 41 123 40 c 1,48,-1
 129 40 l 2,49,50
 133 40 133 40 139.5 40 c 128,-1,51
 146 40 146 40 152 40 c 2,52,-1
 163 40 l 2,53,54
 209 40 209 40 251 50.5 c 128,-1,55
 293 61 293 61 326.5 84 c 128,-1,56
 360 107 360 107 379.5 143 c 128,-1,57
 399 179 399 179 399 230 c 0,58,59
 399 268 399 268 390.5 293 c 128,-1,60
 382 318 382 318 364 332 c 128,-1,61
 346 346 346 346 318.5 351.5 c 128,-1,62
 291 357 291 357 255 357 c 2,35,-1
209 589 m 0,63,64
 198 589 198 589 178.5 589.5 c 128,-1,65
 159 590 159 590 140.5 587 c 128,-1,66
 122 584 122 584 108.5 575 c 128,-1,67
 95 566 95 566 95 547 c 2,68,-1
 95 380 l 1,69,70
 119 380 119 380 150 392.5 c 128,-1,71
 181 405 181 405 209.5 425.5 c 128,-1,72
 238 446 238 446 257 472 c 128,-1,73
 276 498 276 498 276 525 c 0,74,75
 276 562 276 562 261 575.5 c 128,-1,76
 246 589 246 589 209 589 c 0,63,64
EndSplineSet
EndChar

StartChar: C
Encoding: 67 67 38
Width: 541
Flags: W
LayerCount: 2
Fore
SplineSet
20 252 m 0,0,1
 20 332 20 332 44 403.5 c 128,-1,2
 68 475 68 475 103 547 c 1,3,4
 120 567 120 567 132 580 c 128,-1,5
 144 593 144 593 157.5 601 c 128,-1,6
 171 609 171 609 187.5 612.5 c 128,-1,7
 204 616 204 616 228 616 c 0,8,9
 251 616 251 616 280.5 609.5 c 128,-1,10
 310 603 310 603 336.5 589 c 128,-1,11
 363 575 363 575 381 553.5 c 128,-1,12
 399 532 399 532 399 502 c 1,13,14
 379 502 379 502 358.5 515.5 c 128,-1,15
 338 529 338 529 316.5 545 c 128,-1,16
 295 561 295 561 269.5 574.5 c 128,-1,17
 244 588 244 588 211 588 c 0,18,19
 190 588 190 588 171 569.5 c 128,-1,20
 152 551 152 551 136.5 521.5 c 128,-1,21
 121 492 121 492 109.5 456 c 128,-1,22
 98 420 98 420 90.5 385 c 128,-1,23
 83 350 83 350 79 320 c 128,-1,24
 75 290 75 290 75 273 c 0,25,26
 75 218 75 218 92 174.5 c 128,-1,27
 109 131 109 131 140 101.5 c 128,-1,28
 171 72 171 72 215.5 56 c 128,-1,29
 260 40 260 40 315 40 c 0,30,31
 353 40 353 40 382.5 49 c 128,-1,32
 412 58 412 58 434 68.5 c 128,-1,33
 456 79 456 79 470.5 87.5 c 128,-1,34
 485 96 485 96 492 96 c 0,35,36
 500 96 500 96 505 92.5 c 128,-1,37
 510 89 510 89 512 83.5 c 128,-1,38
 514 78 514 78 515 71.5 c 128,-1,39
 516 65 516 65 516 58 c 0,40,41
 516 40 516 40 502 28.5 c 128,-1,42
 488 17 488 17 466.5 10.5 c 128,-1,43
 445 4 445 4 418 1 c 128,-1,44
 391 -2 391 -2 365.5 -2 c 128,-1,45
 340 -2 340 -2 318 -1.5 c 128,-1,46
 296 -1 296 -1 284 -1 c 0,47,48
 228 -1 228 -1 179.5 17.5 c 128,-1,49
 131 36 131 36 95.5 69.5 c 128,-1,50
 60 103 60 103 40 149 c 128,-1,51
 20 195 20 195 20 252 c 0,0,1
EndSplineSet
EndChar

StartChar: D
Encoding: 68 68 39
Width: 561
Flags: W
LayerCount: 2
Fore
SplineSet
41 55 m 1,0,-1
 41 575 l 2,1,2
 41 589 41 589 49.5 598 c 128,-1,3
 58 607 58 607 70.5 611.5 c 128,-1,4
 83 616 83 616 99 617.5 c 128,-1,5
 115 619 115 619 131 618.5 c 128,-1,6
 147 618 147 618 160.5 617 c 128,-1,7
 174 616 174 616 183 616 c 0,8,9
 226 616 226 616 268.5 607.5 c 128,-1,10
 311 599 311 599 351 582 c 128,-1,11
 391 565 391 565 424.5 541 c 128,-1,12
 458 517 458 517 483 484 c 128,-1,13
 508 451 508 451 522.5 411 c 128,-1,14
 537 371 537 371 537 323 c 0,15,16
 537 276 537 276 517.5 233.5 c 128,-1,17
 498 191 498 191 464.5 155 c 128,-1,18
 431 119 431 119 387.5 90 c 128,-1,19
 344 61 344 61 296.5 41 c 128,-1,20
 249 21 249 21 200.5 10 c 128,-1,21
 152 -1 152 -1 110 -1 c 0,22,23
 88 -1 88 -1 67 7.5 c 128,-1,24
 46 16 46 16 28 28 c 1,25,-1
 41 55 l 1,0,-1
95 501 m 2,26,27
 95 445 95 445 96.5 385.5 c 128,-1,28
 98 326 98 326 100 266 c 128,-1,29
 102 206 102 206 104.5 149 c 128,-1,30
 107 92 107 92 110 40 c 0,31,32
 111 40 111 40 113 40 c 128,-1,33
 115 40 115 40 117 40 c 0,34,35
 152 40 152 40 193 49 c 128,-1,36
 234 58 234 58 274.5 75.5 c 128,-1,37
 315 93 315 93 352.5 117 c 128,-1,38
 390 141 390 141 418 171.5 c 128,-1,39
 446 202 446 202 463.5 238 c 128,-1,40
 481 274 481 274 481 314 c 0,41,42
 481 379 481 379 452.5 429 c 128,-1,43
 424 479 424 479 378 511.5 c 128,-1,44
 332 544 332 544 273.5 561 c 128,-1,45
 215 578 215 578 155 578 c 0,46,47
 150 578 150 578 143.5 577.5 c 128,-1,48
 137 577 137 577 129.5 576.5 c 128,-1,49
 122 576 122 576 117 575.5 c 128,-1,50
 112 575 112 575 110 575 c 1,51,-1
 95 561 l 1,52,-1
 95 553 l 2,53,54
 95 546 95 546 95 536.5 c 128,-1,55
 95 527 95 527 95 517 c 2,56,-1
 95 501 l 2,26,27
EndSplineSet
EndChar

StartChar: E
Encoding: 69 69 40
Width: 452
Flags: W
LayerCount: 2
Fore
SplineSet
27 314 m 0,0,1
 27 344 27 344 27.5 367 c 128,-1,2
 28 390 28 390 29.5 412.5 c 128,-1,3
 31 435 31 435 34 460 c 128,-1,4
 37 485 37 485 41 519 c 1,5,6
 82 534 82 534 115.5 543 c 128,-1,7
 149 552 149 552 181.5 557 c 128,-1,8
 214 562 214 562 247.5 563.5 c 128,-1,9
 281 565 281 565 320 565 c 0,10,11
 327 565 327 565 339 564.5 c 128,-1,12
 351 564 351 564 363 563 c 128,-1,13
 375 562 375 562 385 562 c 128,-1,14
 395 562 395 562 398 561 c 2,15,-1
 425 547 l 1,16,-1
 410 534 l 1,17,18
 403 535 403 535 383.5 535 c 128,-1,19
 364 535 364 535 342 535 c 128,-1,20
 320 535 320 535 301 535 c 128,-1,21
 282 535 282 535 274 534 c 0,22,23
 260 532 260 532 240 528.5 c 128,-1,24
 220 525 220 525 198.5 521 c 128,-1,25
 177 517 177 517 156.5 512.5 c 128,-1,26
 136 508 136 508 119.5 504 c 128,-1,27
 103 500 103 500 92.5 497 c 128,-1,28
 82 494 82 494 82 492 c 2,29,-1
 82 314 l 1,30,-1
 347 314 l 1,31,32
 347 304 347 304 331.5 298 c 128,-1,33
 316 292 316 292 290.5 287.5 c 128,-1,34
 265 283 265 283 235.5 279.5 c 128,-1,35
 206 276 206 276 177.5 273.5 c 128,-1,36
 149 271 149 271 127 268 c 128,-1,37
 105 265 105 265 95 260 c 1,38,39
 95 255 95 255 95 243.5 c 128,-1,40
 95 232 95 232 94.5 219 c 128,-1,41
 94 206 94 206 94 193 c 2,42,-1
 94 177 l 2,43,44
 94 160 94 160 93.5 136.5 c 128,-1,45
 93 113 93 113 96 91.5 c 128,-1,46
 99 70 99 70 110.5 55 c 128,-1,47
 122 40 122 40 147 40 c 0,48,49
 181 40 181 40 214.5 42 c 128,-1,50
 248 44 248 44 282 46.5 c 128,-1,51
 316 49 316 49 349.5 52 c 128,-1,52
 383 55 383 55 417 55 c 2,53,-1
 438 55 l 1,54,55
 431 45 431 45 420 35 c 128,-1,56
 409 25 409 25 395.5 17.5 c 128,-1,57
 382 10 382 10 368.5 5 c 128,-1,58
 355 0 355 0 342 0 c 2,59,-1
 123 0 l 2,60,61
 92 0 92 0 72.5 18.5 c 128,-1,62
 53 37 53 37 42 66 c 128,-1,63
 31 95 31 95 27.5 130.5 c 128,-1,64
 24 166 24 166 23.5 201.5 c 128,-1,65
 23 237 23 237 25 267 c 128,-1,66
 27 297 27 297 27 314 c 0,0,1
EndSplineSet
EndChar

StartChar: F
Encoding: 70 70 41
Width: 479
Flags: W
LayerCount: 2
Fore
SplineSet
61 13 m 0,0,1
 52 76 52 76 45 149 c 128,-1,2
 38 222 38 222 32.5 297.5 c 128,-1,3
 27 373 27 373 24 445.5 c 128,-1,4
 21 518 21 518 21 582 c 2,5,-1
 21 588 l 1,6,7
 22 589 22 589 23.5 593.5 c 128,-1,8
 25 598 25 598 27 602 c 128,-1,9
 29 606 29 606 31 610 c 128,-1,10
 33 614 33 614 34 616 c 1,11,12
 82 614 82 614 128.5 615.5 c 128,-1,13
 175 617 175 617 221 621 c 128,-1,14
 267 625 267 625 313 628 c 128,-1,15
 359 631 359 631 406 631 c 2,16,-1
 417 631 l 2,17,18
 422 631 422 631 428.5 630.5 c 128,-1,19
 435 630 435 630 439.5 630 c 128,-1,20
 444 630 444 630 445 630 c 2,21,-1
 459 616 l 1,22,-1
 445 602 l 2,23,24
 444 601 444 601 429 599.5 c 128,-1,25
 414 598 414 598 390.5 595.5 c 128,-1,26
 367 593 367 593 337.5 590 c 128,-1,27
 308 587 308 587 277.5 584 c 128,-1,28
 247 581 247 581 219.5 578.5 c 128,-1,29
 192 576 192 576 171 575 c 0,30,31
 146 573 146 573 129.5 574.5 c 128,-1,32
 113 576 113 576 104 573.5 c 128,-1,33
 95 571 95 571 91.5 560 c 128,-1,34
 88 549 88 549 88 523 c 2,35,-1
 88 512 l 2,36,37
 88 506 88 506 88.5 498.5 c 128,-1,38
 89 491 89 491 89 485 c 2,39,-1
 89 479 l 1,40,41
 90 465 90 465 92 445 c 128,-1,42
 94 425 94 425 96 405 c 128,-1,43
 98 385 98 385 100.5 370.5 c 128,-1,44
 103 356 103 356 103 355 c 2,45,-1
 117 342 l 1,46,-1
 366 342 l 1,47,48
 366 325 366 325 356 319 c 128,-1,49
 346 313 346 313 331.5 312 c 128,-1,50
 317 311 317 311 303 313 c 128,-1,51
 289 315 289 315 281 314 c 0,52,53
 274 314 274 314 261.5 313 c 128,-1,54
 249 312 249 312 233 311 c 128,-1,55
 217 310 217 310 199 308.5 c 128,-1,56
 181 307 181 307 164.5 305.5 c 128,-1,57
 148 304 148 304 135 302.5 c 128,-1,58
 122 301 122 301 117 301 c 1,59,60
 114 298 114 298 109 287.5 c 128,-1,61
 104 277 104 277 103 274 c 1,62,-1
 103 260 l 2,63,64
 103 251 103 251 104.5 232.5 c 128,-1,65
 106 214 106 214 107.5 191.5 c 128,-1,66
 109 169 109 169 110.5 143.5 c 128,-1,67
 112 118 112 118 113 95.5 c 128,-1,68
 114 73 114 73 115 54.5 c 128,-1,69
 116 36 116 36 117 28 c 1,70,71
 114 23 114 23 108.5 18.5 c 128,-1,72
 103 14 103 14 97.5 10 c 128,-1,73
 92 6 92 6 85.5 3 c 128,-1,74
 79 0 79 0 76 0 c 0,75,76
 72 0 72 0 66.5 5 c 128,-1,77
 61 10 61 10 61 13 c 0,0,1
EndSplineSet
EndChar

StartChar: G
Encoding: 71 71 42
Width: 746
Flags: W
LayerCount: 2
Fore
SplineSet
492 95 m 1,0,1
 487 91 487 91 470.5 82.5 c 128,-1,2
 454 74 454 74 436 65.5 c 128,-1,3
 418 57 418 57 401 49.5 c 128,-1,4
 384 42 384 42 376 40 c 1,5,6
 376 40 376 40 369 40 c 128,-1,7
 362 40 362 40 352 39.5 c 128,-1,8
 342 39 342 39 332 39 c 2,9,-1
 316 39 l 2,10,11
 259 39 259 39 205.5 57.5 c 128,-1,12
 152 76 152 76 110 111.5 c 128,-1,13
 68 147 68 147 43.5 197 c 128,-1,14
 19 247 19 247 19 309 c 0,15,16
 19 342 19 342 25 383 c 128,-1,17
 31 424 31 424 43 466 c 128,-1,18
 55 508 55 508 74 547.5 c 128,-1,19
 93 587 93 587 120 618 c 128,-1,20
 147 649 147 649 182 668 c 128,-1,21
 217 687 217 687 261 687 c 0,22,23
 285 687 285 687 313.5 678 c 128,-1,24
 342 669 342 669 366.5 652 c 128,-1,25
 391 635 391 635 407.5 612 c 128,-1,26
 424 589 424 589 424 561 c 1,27,-1
 403 561 l 1,28,29
 384 583 384 583 370.5 599 c 128,-1,30
 357 615 357 615 342.5 625 c 128,-1,31
 328 635 328 635 310 639.5 c 128,-1,32
 292 644 292 644 266 644 c 0,33,34
 233 644 233 644 206 629.5 c 128,-1,35
 179 615 179 615 157.5 590.5 c 128,-1,36
 136 566 136 566 120 534.5 c 128,-1,37
 104 503 104 503 94.5 469.5 c 128,-1,38
 85 436 85 436 79.5 404 c 128,-1,39
 74 372 74 372 74 346 c 0,40,41
 74 292 74 292 88.5 244.5 c 128,-1,42
 103 197 103 197 132 160.5 c 128,-1,43
 161 124 161 124 204 102.5 c 128,-1,44
 247 81 247 81 303 81 c 0,45,46
 350 81 350 81 382 89.5 c 128,-1,47
 414 98 414 98 437.5 117 c 128,-1,48
 461 136 461 136 478.5 168 c 128,-1,49
 496 200 496 200 514 247 c 1,50,-1
 486 260 l 1,51,52
 444 254 444 254 408.5 250 c 128,-1,53
 373 246 373 246 333 246 c 0,54,55
 328 246 328 246 322.5 245.5 c 128,-1,56
 317 245 317 245 311 246 c 128,-1,57
 305 247 305 247 300 250 c 128,-1,58
 295 253 295 253 294 260 c 1,59,60
 298 268 298 268 308.5 274.5 c 128,-1,61
 319 281 319 281 332.5 285.5 c 128,-1,62
 346 290 346 290 361.5 292.5 c 128,-1,63
 377 295 377 295 391 297 c 128,-1,64
 405 299 405 299 416 300 c 128,-1,65
 427 301 427 301 431 301 c 0,66,67
 442 301 442 301 464.5 302 c 128,-1,68
 487 303 487 303 515.5 303.5 c 128,-1,69
 544 304 544 304 576 305 c 128,-1,70
 608 306 608 306 637 306 c 128,-1,71
 666 306 666 306 689 306.5 c 128,-1,72
 712 307 712 307 723 307 c 1,73,74
 723 306 723 306 722.5 298 c 128,-1,75
 722 290 722 290 720 279.5 c 128,-1,76
 718 269 718 269 714.5 261 c 128,-1,77
 711 253 711 253 705 253 c 2,78,-1
 568 253 l 2,79,80
 559 253 559 253 556 236.5 c 128,-1,81
 553 220 553 220 553.5 194.5 c 128,-1,82
 554 169 554 169 555.5 139.5 c 128,-1,83
 557 110 557 110 555.5 83.5 c 128,-1,84
 554 57 554 57 547.5 37 c 128,-1,85
 541 17 541 17 527 13 c 1,86,87
 517 12 517 12 506 10 c 1,88,-1
 492 9 l 1,89,-1
 492 95 l 1,0,1
EndSplineSet
EndChar

StartChar: H
Encoding: 72 72 43
Width: 519
Flags: W
LayerCount: 2
Fore
SplineSet
41 274 m 1,0,1
 35 283 35 283 31 290.5 c 128,-1,2
 27 298 27 298 27 309 c 0,3,4
 27 316 27 316 29.5 320 c 128,-1,5
 32 324 32 324 41 328 c 1,6,-1
 41 652 l 1,7,8
 58 652 58 652 69.5 643 c 128,-1,9
 81 634 81 634 82 616 c 2,10,-1
 110 342 l 1,11,-1
 398 342 l 1,12,-1
 410 355 l 2,13,14
 411 356 411 356 413 375.5 c 128,-1,15
 415 395 415 395 417 420.5 c 128,-1,16
 419 446 419 446 421.5 474 c 128,-1,17
 424 502 424 502 425 519 c 0,18,19
 425 526 425 526 425 541.5 c 128,-1,20
 425 557 425 557 425 574.5 c 128,-1,21
 425 592 425 592 425 608 c 128,-1,22
 425 624 425 624 425 630 c 1,23,-1
 452 657 l 1,24,25
 454 657 454 657 459.5 651.5 c 128,-1,26
 465 646 465 646 465 643 c 1,27,28
 467 639 467 639 469 629 c 128,-1,29
 471 619 471 619 473.5 608.5 c 128,-1,30
 476 598 476 598 477.5 588.5 c 128,-1,31
 479 579 479 579 479 575 c 0,32,33
 480 567 480 567 480 549 c 2,34,-1
 480 419 l 2,35,36
 480 398 480 398 479.5 381 c 128,-1,37
 479 364 479 364 479 355 c 1,38,39
 486 346 486 346 489.5 338.5 c 128,-1,40
 493 331 493 331 493 321 c 256,41,42
 493 311 493 311 489.5 304 c 128,-1,43
 486 297 486 297 479 287 c 1,44,-1
 479 68 l 2,45,46
 479 63 479 63 476 60 c 128,-1,47
 473 57 473 57 468.5 55.5 c 128,-1,48
 464 54 464 54 460 54 c 2,49,-1
 452 54 l 2,50,51
 449 54 449 54 443 54.5 c 128,-1,52
 437 55 437 55 431.5 56.5 c 128,-1,53
 426 58 426 58 421.5 60.5 c 128,-1,54
 417 63 417 63 417 68 c 2,55,-1
 417 274 l 1,56,-1
 398 301 l 1,57,-1
 110 287 l 1,58,-1
 82 13 l 2,59,60
 82 12 82 12 79 9.5 c 128,-1,61
 76 7 76 7 71.5 5.5 c 128,-1,62
 67 4 67 4 62.5 2 c 128,-1,63
 58 0 58 0 55 0 c 256,64,65
 52 0 52 0 46.5 5 c 128,-1,66
 41 10 41 10 41 13 c 2,67,-1
 41 274 l 1,0,1
EndSplineSet
EndChar

StartChar: I
Encoding: 73 73 44
Width: 109
Flags: W
LayerCount: 2
Fore
SplineSet
49 697 m 1,0,1
 52 695 52 695 56.5 690 c 128,-1,2
 61 685 61 685 65 679 c 128,-1,3
 69 673 69 673 72.5 667 c 128,-1,4
 76 661 76 661 76 657 c 2,5,-1
 76 13 l 2,6,7
 76 10 76 10 70.5 5 c 128,-1,8
 65 0 65 0 61 0 c 0,9,10
 58 0 58 0 53.5 2 c 128,-1,11
 49 4 49 4 44.5 5.5 c 128,-1,12
 40 7 40 7 37 9.5 c 128,-1,13
 34 12 34 12 34 13 c 2,14,-1
 34 670 l 1,15,-1
 49 697 l 1,0,1
EndSplineSet
EndChar

StartChar: J
Encoding: 74 74 45
Width: 602
Flags: W
LayerCount: 2
Fore
SplineSet
21 122 m 0,0,1
 21 125 21 125 22.5 129 c 128,-1,2
 24 133 24 133 26 137.5 c 128,-1,3
 28 142 28 142 30.5 145.5 c 128,-1,4
 33 149 33 149 34 150 c 1,5,6
 43 120 43 120 61.5 98.5 c 128,-1,7
 80 77 80 77 104 64 c 128,-1,8
 128 51 128 51 156 45.5 c 128,-1,9
 184 40 184 40 212 40 c 256,10,11
 240 40 240 40 258.5 50 c 128,-1,12
 277 60 277 60 294 82 c 1,13,14
 305 117 305 117 311 143.5 c 128,-1,15
 317 170 317 170 319.5 195 c 128,-1,16
 322 220 322 220 322.5 247 c 128,-1,17
 323 274 323 274 323 306 c 2,18,-1
 323 328 l 2,19,20
 323 343 323 343 322.5 358 c 128,-1,21
 322 373 322 373 322 384 c 128,-1,22
 322 395 322 395 322 397 c 0,23,24
 320 413 320 413 318.5 435.5 c 128,-1,25
 317 458 317 458 313.5 482.5 c 128,-1,26
 310 507 310 507 307 530.5 c 128,-1,27
 304 554 304 554 301.5 573 c 128,-1,28
 299 592 299 592 297 604 c 128,-1,29
 295 616 295 616 294 616 c 2,30,-1
 49 616 l 1,31,-1
 49 643 l 2,32,33
 49 644 49 644 54.5 646.5 c 128,-1,34
 60 649 60 649 69 651 c 128,-1,35
 78 653 78 653 87.5 655 c 128,-1,36
 97 657 97 657 103 657 c 2,37,-1
 113 657 l 2,38,39
 122 657 122 657 134.5 657 c 128,-1,40
 147 657 147 657 160 657 c 2,41,-1
 180 657 l 2,42,43
 195 657 195 657 232 658 c 128,-1,44
 269 659 269 659 314.5 658 c 128,-1,45
 360 657 360 657 408.5 654 c 128,-1,46
 457 651 457 651 497.5 643 c 128,-1,47
 538 635 538 635 563.5 621.5 c 128,-1,48
 589 608 589 608 589 588 c 1,49,-1
 365 588 l 1,50,51
 365 510 365 510 371 433 c 128,-1,52
 377 356 377 356 377 279 c 0,53,54
 377 249 377 249 375.5 216.5 c 128,-1,55
 374 184 374 184 369 153 c 128,-1,56
 364 122 364 122 353 94.5 c 128,-1,57
 342 67 342 67 324 45.5 c 128,-1,58
 306 24 306 24 278.5 11.5 c 128,-1,59
 251 -1 251 -1 212 -1 c 0,60,61
 186 -1 186 -1 153 5.5 c 128,-1,62
 120 12 120 12 90.5 26.5 c 128,-1,63
 61 41 61 41 41 64.5 c 128,-1,64
 21 88 21 88 21 122 c 0,0,1
EndSplineSet
EndChar

StartChar: K
Encoding: 75 75 46
Width: 616
Flags: W
LayerCount: 2
Fore
SplineSet
41 561 m 1,0,1
 33 587 33 587 29 615 c 128,-1,2
 25 643 25 643 25 670 c 1,3,-1
 68 670 l 2,4,5
 69 670 69 670 72.5 657.5 c 128,-1,6
 76 645 76 645 80.5 628 c 128,-1,7
 85 611 85 611 89.5 592 c 128,-1,8
 94 573 94 573 95 561 c 1,9,10
 97 552 97 552 99.5 529 c 128,-1,11
 102 506 102 506 104 479.5 c 128,-1,12
 106 453 106 453 108 429.5 c 128,-1,13
 110 406 110 406 110 397 c 1,14,-1
 137 397 l 2,15,16
 138 397 138 397 150.5 404.5 c 128,-1,17
 163 412 163 412 180.5 423 c 128,-1,18
 198 434 198 434 216.5 445.5 c 128,-1,19
 235 457 235 457 247 465 c 0,20,21
 293 497 293 497 337.5 531 c 128,-1,22
 382 565 382 565 425 602 c 1,23,-1
 452 602 l 1,24,-1
 452 588 l 2,25,26
 452 587 452 587 442.5 577.5 c 128,-1,27
 433 568 433 568 420 554.5 c 128,-1,28
 407 541 407 541 393 528 c 128,-1,29
 379 515 379 515 370 507 c 0,30,31
 357 496 357 496 335.5 481 c 128,-1,32
 314 466 314 466 288 450 c 128,-1,33
 262 434 262 434 235 417 c 128,-1,34
 208 400 208 400 186 384.5 c 128,-1,35
 164 369 164 369 150 356.5 c 128,-1,36
 136 344 136 344 136 336 c 0,37,38
 136 334 136 334 136 331 c 128,-1,39
 136 328 136 328 137 328 c 2,40,-1
 220 233 l 1,41,-1
 425 104 l 1,42,43
 451 104 451 104 471 101.5 c 128,-1,44
 491 99 491 99 510.5 95.5 c 128,-1,45
 530 92 530 92 551.5 88.5 c 128,-1,46
 573 85 573 85 603 82 c 1,47,48
 603 82 603 82 603 79 c 128,-1,49
 603 76 603 76 603 76 c 2,50,51
 603 68 603 68 600.5 63 c 128,-1,52
 598 58 598 58 589 55 c 0,53,54
 586 55 586 55 579 54 c 128,-1,55
 572 53 572 53 564.5 52.5 c 128,-1,56
 557 52 557 52 550.5 52 c 128,-1,57
 544 52 544 52 541 52 c 0,58,59
 490 52 490 52 440 67.5 c 128,-1,60
 390 83 390 83 341.5 107 c 128,-1,61
 293 131 293 131 248.5 161 c 128,-1,62
 204 191 204 191 165 220 c 1,63,64
 151 228 151 228 146 233.5 c 128,-1,65
 141 239 141 239 138.5 243.5 c 128,-1,66
 136 248 136 248 130.5 252 c 128,-1,67
 125 256 125 256 110 260 c 1,68,69
 110 256 110 256 110.5 246.5 c 128,-1,70
 111 237 111 237 111 225.5 c 128,-1,71
 111 214 111 214 110.5 204.5 c 128,-1,72
 110 195 110 195 110 192 c 0,73,74
 109 179 109 179 107.5 163 c 128,-1,75
 106 147 106 147 104.5 128.5 c 128,-1,76
 103 110 103 110 102 92 c 128,-1,77
 101 74 101 74 99.5 60 c 128,-1,78
 98 46 98 46 96 36 c 2,79,-1
 95 28 l 1,80,-1
 68 0 l 1,81,-1
 41 28 l 1,82,-1
 41 561 l 1,0,1
EndSplineSet
EndChar

StartChar: L
Encoding: 76 76 47
Width: 651
Flags: W
LayerCount: 2
Fore
SplineSet
116 28 m 0,0,1
 103 28 103 28 92.5 25 c 128,-1,2
 82 22 82 22 70.5 19 c 128,-1,3
 59 16 59 16 48 13.5 c 128,-1,4
 37 11 37 11 25 11 c 1,5,6
 25 44 25 44 28 74.5 c 128,-1,7
 31 105 31 105 41 137 c 1,8,-1
 41 643 l 1,9,-1
 68 643 l 2,10,11
 69 643 69 643 71.5 633 c 128,-1,12
 74 623 74 623 76.5 606 c 128,-1,13
 79 589 79 589 82 568.5 c 128,-1,14
 85 548 85 548 87.5 527 c 128,-1,15
 90 506 90 506 92 485.5 c 128,-1,16
 94 465 94 465 95 452 c 0,17,18
 96 438 96 438 98 410 c 128,-1,19
 100 382 100 382 101.5 347 c 128,-1,20
 103 312 103 312 104.5 273.5 c 128,-1,21
 106 235 106 235 107.5 200 c 128,-1,22
 109 165 109 165 109.5 137 c 128,-1,23
 110 109 110 109 110 95 c 1,24,25
 114 84 114 84 137 75.5 c 128,-1,26
 160 67 160 67 194 60.5 c 128,-1,27
 228 54 228 54 267 50 c 128,-1,28
 306 46 306 46 341.5 43.5 c 128,-1,29
 377 41 377 41 405 40.5 c 128,-1,30
 433 40 433 40 443 40 c 0,31,32
 467 40 467 40 489 46.5 c 128,-1,33
 511 53 511 53 533 61 c 128,-1,34
 555 69 555 69 577.5 76 c 128,-1,35
 600 83 600 83 624 83 c 0,36,37
 633 83 633 83 638 77 c 128,-1,38
 643 71 643 71 643 61 c 0,39,40
 643 49 643 49 626 39.5 c 128,-1,41
 609 30 609 30 582.5 23 c 128,-1,42
 556 16 556 16 524 11 c 128,-1,43
 492 6 492 6 461 3.5 c 128,-1,44
 430 1 430 1 406 0 c 128,-1,45
 382 -1 382 -1 370 -1 c 0,46,47
 337 -1 337 -1 305.5 3.5 c 128,-1,48
 274 8 274 8 242.5 14 c 128,-1,49
 211 20 211 20 179.5 24 c 128,-1,50
 148 28 148 28 116 28 c 0,0,1
EndSplineSet
EndChar

StartChar: M
Encoding: 77 77 48
Width: 712
Flags: W
LayerCount: 2
Fore
SplineSet
89 588 m 1,0,-1
 117 616 l 1,1,-1
 144 588 l 1,2,-1
 266 287 l 1,3,4
 266 287 266 287 268.5 286.5 c 128,-1,5
 271 286 271 286 273 286 c 0,6,7
 287 286 287 286 294 301 c 2,8,-1
 403 519 l 1,9,-1
 481 598 l 1,10,-1
 514 534 l 1,11,12
 519 487 519 487 524 428.5 c 128,-1,13
 529 370 529 370 538.5 308.5 c 128,-1,14
 548 247 548 247 564.5 188 c 128,-1,15
 581 129 581 129 608 82 c 0,16,17
 617 67 617 67 628.5 58.5 c 128,-1,18
 640 50 640 50 651 44.5 c 128,-1,19
 662 39 662 39 672.5 32 c 128,-1,20
 683 25 683 25 691 13 c 1,21,22
 688 1 688 1 677.5 0 c 128,-1,23
 667 -1 667 -1 658 -1 c 0,24,25
 626 -1 626 -1 598.5 19 c 128,-1,26
 571 39 571 39 550.5 68.5 c 128,-1,27
 530 98 530 98 516.5 131.5 c 128,-1,28
 503 165 503 165 499 192 c 0,29,30
 498 203 498 203 494 227.5 c 128,-1,31
 490 252 490 252 486 283 c 128,-1,32
 482 314 482 314 477.5 348.5 c 128,-1,33
 473 383 473 383 469 414 c 128,-1,34
 465 445 465 445 462.5 470 c 128,-1,35
 460 495 460 495 459 507 c 1,36,37
 429 482 429 482 405.5 443.5 c 128,-1,38
 382 405 382 405 364 362 c 128,-1,39
 346 319 346 319 332.5 277 c 128,-1,40
 319 235 319 235 309 205 c 0,41,42
 305 193 305 193 294 191.5 c 128,-1,43
 283 190 283 190 274 190 c 0,44,45
 271 190 271 190 263.5 190.5 c 128,-1,46
 256 191 256 191 254 192 c 1,47,48
 217 252 217 252 191 318.5 c 128,-1,49
 165 385 165 385 144 452 c 1,50,-1
 130 465 l 1,51,52
 128 451 128 451 124 421 c 128,-1,53
 120 391 120 391 114.5 353 c 128,-1,54
 109 315 109 315 103 273.5 c 128,-1,55
 97 232 97 232 91.5 194.5 c 128,-1,56
 86 157 86 157 81.5 126.5 c 128,-1,57
 77 96 77 96 76 82 c 1,58,59
 72 64 72 64 65.5 40.5 c 128,-1,60
 59 17 59 17 49 0 c 1,61,62
 44 2 44 2 39.5 7.5 c 128,-1,63
 35 13 35 13 30.5 19 c 128,-1,64
 26 25 26 25 23 31 c 128,-1,65
 20 37 20 37 21 40 c 2,66,-1
 89 588 l 1,0,-1
EndSplineSet
EndChar

StartChar: N
Encoding: 78 78 49
Width: 561
Flags: W
LayerCount: 2
Fore
SplineSet
349 40 m 1,0,1
 314 92 314 92 279 148.5 c 128,-1,2
 244 205 244 205 211.5 264.5 c 128,-1,3
 179 324 179 324 151 385 c 128,-1,4
 123 446 123 446 103 507 c 1,5,-1
 87 507 l 1,6,7
 87 499 87 499 87 479.5 c 128,-1,8
 87 460 87 460 88 438.5 c 128,-1,9
 89 417 89 417 89 397 c 2,10,-1
 89 370 l 1,11,12
 88 357 88 357 87.5 333 c 128,-1,13
 87 309 87 309 86 278 c 128,-1,14
 85 247 85 247 83.5 212.5 c 128,-1,15
 82 178 82 178 80 147 c 128,-1,16
 78 116 78 116 77 91.5 c 128,-1,17
 76 67 76 67 76 55 c 1,18,19
 73 50 73 50 68 45.5 c 128,-1,20
 63 41 63 41 56.5 37 c 128,-1,21
 50 33 50 33 44.5 30.5 c 128,-1,22
 39 28 39 28 34 28 c 0,23,24
 28 28 28 28 25 32.5 c 128,-1,25
 22 37 22 37 21 43 c 128,-1,26
 20 49 20 49 20 55 c 128,-1,27
 20 61 20 61 20 64 c 0,28,29
 20 125 20 125 23 185 c 128,-1,30
 26 245 26 245 29 305 c 128,-1,31
 32 365 32 365 34 426 c 128,-1,32
 36 487 36 487 34 547 c 1,33,34
 47 572 47 572 60.5 580.5 c 128,-1,35
 74 589 74 589 95 589 c 0,36,37
 98 589 98 589 106 589 c 128,-1,38
 114 589 114 589 117 588 c 1,39,40
 148 520 148 520 178.5 459 c 128,-1,41
 209 398 209 398 240 339.5 c 128,-1,42
 271 281 271 281 304 224 c 128,-1,43
 337 167 337 167 376 109 c 0,44,45
 378 107 378 107 383 102 c 128,-1,46
 388 97 388 97 391 95 c 1,47,48
 391 108 391 108 391.5 133.5 c 128,-1,49
 392 159 392 159 393.5 192 c 128,-1,50
 395 225 395 225 396.5 260 c 128,-1,51
 398 295 398 295 399 328 c 128,-1,52
 400 361 400 361 401.5 386.5 c 128,-1,53
 403 412 403 412 403 425 c 1,54,55
 405 443 405 443 408 470.5 c 128,-1,56
 411 498 411 498 417.5 529 c 128,-1,57
 424 560 424 560 433.5 590.5 c 128,-1,58
 443 621 443 621 457 645.5 c 128,-1,59
 471 670 471 670 489 686 c 128,-1,60
 507 702 507 702 531 702 c 1,61,62
 531 679 531 679 524 658 c 128,-1,63
 517 637 517 637 507 618 c 128,-1,64
 497 599 497 599 484.5 580.5 c 128,-1,65
 472 562 472 562 462 542 c 128,-1,66
 452 522 452 522 445 500 c 128,-1,67
 438 478 438 478 438 452 c 2,68,-1
 438 13 l 1,69,70
 438 13 438 13 434 11 c 128,-1,71
 430 9 430 9 424.5 7 c 128,-1,72
 419 5 419 5 413.5 3 c 128,-1,73
 408 1 408 1 403 0 c 2,74,75
 403 0 403 0 400.5 -0.5 c 128,-1,76
 398 -1 398 -1 397 -1 c 2,77,-1
 393 -1 l 2,78,79
 392 -1 392 -1 391 0 c 0,80,81
 388 2 388 2 382 7.5 c 128,-1,82
 376 13 376 13 369.5 19.5 c 128,-1,83
 363 26 363 26 357 32.5 c 128,-1,84
 351 39 351 39 349 40 c 1,0,1
EndSplineSet
EndChar

StartChar: O
Encoding: 79 79 50
Width: 452
Flags: W
LayerCount: 2
Fore
SplineSet
20 182 m 0,0,1
 20 214 20 214 24 256 c 128,-1,2
 28 298 28 298 37.5 342 c 128,-1,3
 47 386 47 386 62.5 428.5 c 128,-1,4
 78 471 78 471 101.5 503.5 c 128,-1,5
 125 536 125 536 157 556.5 c 128,-1,6
 189 577 189 577 230 577 c 0,7,8
 287 577 287 577 323.5 553.5 c 128,-1,9
 360 530 360 530 381 492.5 c 128,-1,10
 402 455 402 455 410.5 408.5 c 128,-1,11
 419 362 419 362 419 315 c 0,12,13
 419 255 419 255 407 198 c 128,-1,14
 395 141 395 141 366.5 96.5 c 128,-1,15
 338 52 338 52 292.5 25.5 c 128,-1,16
 247 -1 247 -1 177 -1 c 0,17,18
 133 -1 133 -1 103.5 13.5 c 128,-1,19
 74 28 74 28 55 52 c 128,-1,20
 36 76 36 76 28 110 c 128,-1,21
 20 144 20 144 20 182 c 0,0,1
75 197 m 0,22,23
 75 166 75 166 79 137 c 128,-1,24
 83 108 83 108 95.5 87 c 128,-1,25
 108 66 108 66 131 53 c 128,-1,26
 154 40 154 40 193 40 c 0,27,28
 247 40 247 40 283 63 c 128,-1,29
 319 86 319 86 340 123 c 128,-1,30
 361 160 361 160 369.5 206 c 128,-1,31
 378 252 378 252 378 298 c 0,32,33
 378 310 378 310 377.5 331 c 128,-1,34
 377 352 377 352 374.5 376 c 128,-1,35
 372 400 372 400 367 426 c 128,-1,36
 362 452 362 452 353 472.5 c 128,-1,37
 344 493 344 493 329 506 c 128,-1,38
 314 519 314 519 294 519 c 0,39,40
 246 519 246 519 210.5 508 c 128,-1,41
 175 497 175 497 150.5 475.5 c 128,-1,42
 126 454 126 454 111 424.5 c 128,-1,43
 96 395 96 395 88 359.5 c 128,-1,44
 80 324 80 324 77.5 282.5 c 128,-1,45
 75 241 75 241 75 197 c 0,22,23
EndSplineSet
EndChar

StartChar: P
Encoding: 80 80 51
Width: 457
Flags: W
LayerCount: 2
Fore
SplineSet
36 614 m 2,0,1
 37 615 37 615 41.5 617 c 128,-1,2
 46 619 46 619 48 619 c 0,3,4
 53 619 53 619 58 617 c 1,5,6
 58 619 58 619 57 619 c 0,7,8
 55 624 55 624 55 625 c 0,9,10
 55 641 55 641 64.5 649.5 c 128,-1,11
 74 658 74 658 88 663 c 128,-1,12
 102 668 102 668 119 669 c 128,-1,13
 136 670 136 670 151.5 670 c 128,-1,14
 167 670 167 670 180 669 c 128,-1,15
 193 668 193 668 198 668 c 0,16,17
 222 668 222 668 251.5 667 c 128,-1,18
 281 666 281 666 309 662 c 128,-1,19
 337 658 337 658 363.5 649.5 c 128,-1,20
 390 641 390 641 410 625.5 c 128,-1,21
 430 610 430 610 442 586.5 c 128,-1,22
 454 563 454 563 454 530 c 0,23,24
 454 494 454 494 445 464.5 c 128,-1,25
 436 435 436 435 411 406 c 1,26,27
 382 387 382 387 348.5 366.5 c 128,-1,28
 315 346 315 346 279 331 c 128,-1,29
 243 316 243 316 205 306 c 128,-1,30
 167 296 167 296 130 296 c 0,31,32
 125 296 125 296 117 296.5 c 128,-1,33
 109 297 109 297 101 299 c 128,-1,34
 93 301 93 301 87.5 305.5 c 128,-1,35
 82 310 82 310 82 318 c 0,36,37
 82 319 82 319 82 321.5 c 128,-1,38
 82 324 82 324 83 325 c 1,39,40
 115 323 115 323 147.5 330 c 128,-1,41
 180 337 180 337 211.5 349.5 c 128,-1,42
 243 362 243 362 272.5 376.5 c 128,-1,43
 302 391 302 391 328 406 c 0,44,45
 337 411 337 411 348.5 419 c 128,-1,46
 360 427 360 427 371 436 c 128,-1,47
 382 445 382 445 390 452.5 c 128,-1,48
 398 460 398 460 398 462 c 2,49,-1
 398 571 l 2,50,51
 398 572 398 572 394.5 576 c 128,-1,52
 391 580 391 580 386.5 584.5 c 128,-1,53
 382 589 382 589 377.5 593.5 c 128,-1,54
 373 598 373 598 370 598 c 1,55,56
 344 611 344 611 322.5 617.5 c 128,-1,57
 301 624 301 624 280 626.5 c 128,-1,58
 259 629 259 629 236 629 c 2,59,-1
 184 629 l 2,60,61
 177 629 177 629 165.5 628.5 c 128,-1,62
 154 628 154 628 142 627.5 c 128,-1,63
 130 627 130 627 121 626.5 c 128,-1,64
 112 626 112 626 110 625 c 2,65,-1
 73 601 l 1,66,67
 75 596 75 596 76 589 c 0,68,69
 77 581 77 581 77 573 c 2,70,-1
 77 53 l 2,71,72
 77 52 77 52 72 46 c 128,-1,73
 67 40 67 40 63 39 c 0,74,75
 61 38 61 38 55 35.5 c 128,-1,76
 49 33 49 33 42.5 31.5 c 128,-1,77
 36 30 36 30 30.5 28 c 128,-1,78
 25 26 25 26 22 25 c 1,79,-1
 22 545 l 1,80,-1
 36 614 l 2,0,1
EndSplineSet
EndChar

StartChar: Q
Encoding: 81 81 52
Width: 526
Flags: W
LayerCount: 2
Fore
SplineSet
20 191 m 0,0,1
 20 216 20 216 25.5 256 c 128,-1,2
 31 296 31 296 41.5 342 c 128,-1,3
 52 388 52 388 68.5 434.5 c 128,-1,4
 85 481 85 481 108 518.5 c 128,-1,5
 131 556 131 556 161 579.5 c 128,-1,6
 191 603 191 603 228 603 c 0,7,8
 284 603 284 603 329.5 582.5 c 128,-1,9
 375 562 375 562 407 527 c 128,-1,10
 439 492 439 492 456 444.5 c 128,-1,11
 473 397 473 397 473 342 c 0,12,13
 473 319 473 319 468.5 299 c 128,-1,14
 464 279 464 279 458.5 258.5 c 128,-1,15
 453 238 453 238 448.5 218 c 128,-1,16
 444 198 444 198 444 175 c 0,17,18
 444 157 444 157 452 145 c 128,-1,19
 460 133 460 133 470.5 122.5 c 128,-1,20
 481 112 481 112 489.5 99.5 c 128,-1,21
 498 87 498 87 499 68 c 1,22,23
 498 67 498 67 489.5 66.5 c 128,-1,24
 481 66 481 66 479 66 c 0,25,26
 465 66 465 66 456.5 73 c 128,-1,27
 448 80 448 80 440.5 88.5 c 128,-1,28
 433 97 433 97 425 104.5 c 128,-1,29
 417 112 417 112 403 112 c 0,30,31
 402 112 402 112 397 111 c 128,-1,32
 392 110 392 110 391 109 c 0,33,34
 364 82 364 82 336.5 61.5 c 128,-1,35
 309 41 309 41 279.5 27 c 128,-1,36
 250 13 250 13 217.5 5.5 c 128,-1,37
 185 -2 185 -2 147 -2 c 0,38,39
 110 -2 110 -2 85 16.5 c 128,-1,40
 60 35 60 35 45.5 63.5 c 128,-1,41
 31 92 31 92 25.5 125.5 c 128,-1,42
 20 159 20 159 20 191 c 0,0,1
74 208 m 0,43,44
 74 179 74 179 76.5 151.5 c 128,-1,45
 79 124 79 124 88.5 102 c 128,-1,46
 98 80 98 80 118 66.5 c 128,-1,47
 138 53 138 53 173 53 c 0,48,49
 204 53 204 53 230 59.5 c 128,-1,50
 256 66 256 66 278.5 78 c 128,-1,51
 301 90 301 90 321.5 108 c 128,-1,52
 342 126 342 126 363 150 c 1,53,-1
 266 247 l 1,54,-1
 266 270 l 1,55,56
 288 270 288 270 303.5 265 c 128,-1,57
 319 260 319 260 332 250.5 c 128,-1,58
 345 241 345 241 358.5 229.5 c 128,-1,59
 372 218 372 218 391 205 c 1,60,61
 408 215 408 215 416.5 231 c 128,-1,62
 425 247 425 247 428.5 265 c 128,-1,63
 432 283 432 283 432.5 302 c 128,-1,64
 433 321 433 321 433 337 c 0,65,66
 433 378 433 378 423 420.5 c 128,-1,67
 413 463 413 463 392 497.5 c 128,-1,68
 371 532 371 532 336.5 554 c 128,-1,69
 302 576 302 576 253 576 c 0,70,71
 217 576 217 576 190 555.5 c 128,-1,72
 163 535 163 535 142.5 502.5 c 128,-1,73
 122 470 122 470 109 429 c 128,-1,74
 96 388 96 388 88.5 347 c 128,-1,75
 81 306 81 306 77.5 269 c 128,-1,76
 74 232 74 232 74 208 c 0,43,44
EndSplineSet
EndChar

StartChar: R
Encoding: 82 82 53
Width: 623
Flags: W
LayerCount: 2
Fore
SplineSet
34 547 m 1,0,1
 25 560 25 560 22.5 568 c 128,-1,2
 20 576 20 576 20 588 c 0,3,4
 20 609 20 609 32 626 c 128,-1,5
 44 643 44 643 63 655.5 c 128,-1,6
 82 668 82 668 105.5 676 c 128,-1,7
 129 684 129 684 153 689.5 c 128,-1,8
 177 695 177 695 199 697 c 128,-1,9
 221 699 221 699 238 699 c 0,10,11
 304 699 304 699 334 671 c 128,-1,12
 364 643 364 643 364 576 c 0,13,14
 364 487 364 487 321 431.5 c 128,-1,15
 278 376 278 376 198 342 c 0,16,17
 198 341 198 341 198 339 c 128,-1,18
 198 337 198 337 198 336 c 0,19,20
 198 304 198 304 221 277.5 c 128,-1,21
 244 251 244 251 281 230 c 128,-1,22
 318 209 318 209 363.5 192.5 c 128,-1,23
 409 176 409 176 453 165.5 c 128,-1,24
 497 155 497 155 535 151.5 c 128,-1,25
 573 148 573 148 596 150 c 1,26,-1
 608 137 l 1,27,28
 603 125 603 125 590.5 118.5 c 128,-1,29
 578 112 578 112 563 110 c 128,-1,30
 548 108 548 108 533 108.5 c 128,-1,31
 518 109 518 109 508 109 c 0,32,33
 456 109 456 109 404 123 c 128,-1,34
 352 137 352 137 304 162.5 c 128,-1,35
 256 188 256 188 214.5 223 c 128,-1,36
 173 258 173 258 144 301 c 1,37,-1
 117 301 l 1,38,-1
 117 5 l 1,39,40
 98 5 98 5 90 12.5 c 128,-1,41
 82 20 82 20 79 31.5 c 128,-1,42
 76 43 76 43 76 56.5 c 128,-1,43
 76 70 76 70 76 82 c 1,44,45
 74 100 74 100 70.5 136.5 c 128,-1,46
 67 173 67 173 63 218.5 c 128,-1,47
 59 264 59 264 54.5 314.5 c 128,-1,48
 50 365 50 365 46 411 c 128,-1,49
 42 457 42 457 39 493.5 c 128,-1,50
 36 530 36 530 34 547 c 1,0,1
103 397 m 1,51,52
 112 379 112 379 120 374 c 128,-1,53
 128 369 128 369 142 369 c 0,54,55
 176 369 176 369 209 385.5 c 128,-1,56
 242 402 242 402 267 428 c 128,-1,57
 292 454 292 454 307 487.5 c 128,-1,58
 322 521 322 521 322 554 c 0,59,60
 322 571 322 571 320 589.5 c 128,-1,61
 318 608 318 608 310.5 623.5 c 128,-1,62
 303 639 303 639 289.5 648.5 c 128,-1,63
 276 658 276 658 256 658 c 0,64,65
 229 658 229 658 199.5 655 c 128,-1,66
 170 652 170 652 145.5 641.5 c 128,-1,67
 121 631 121 631 104.5 613 c 128,-1,68
 88 595 88 595 88 565 c 0,69,70
 88 542 88 542 89 522.5 c 128,-1,71
 90 503 90 503 91.5 483.5 c 128,-1,72
 93 464 93 464 96 443 c 128,-1,73
 99 422 99 422 103 397 c 1,51,52
EndSplineSet
EndChar

StartChar: S
Encoding: 83 83 54
Width: 479
Flags: W
LayerCount: 2
Fore
SplineSet
34 137 m 0,0,1
 34 145 34 145 41.5 148 c 128,-1,2
 49 151 49 151 55 151 c 0,3,4
 60 151 60 151 70.5 143.5 c 128,-1,5
 81 136 81 136 96.5 125 c 128,-1,6
 112 114 112 114 130.5 101.5 c 128,-1,7
 149 89 149 89 170.5 78 c 128,-1,8
 192 67 192 67 214 59.5 c 128,-1,9
 236 52 236 52 258 52 c 0,10,11
 291 52 291 52 318 60.5 c 128,-1,12
 345 69 345 69 364 86 c 128,-1,13
 383 103 383 103 394 129 c 128,-1,14
 405 155 405 155 405 189 c 0,15,16
 405 246 405 246 388.5 278.5 c 128,-1,17
 372 311 372 311 345 328.5 c 128,-1,18
 318 346 318 346 283 352.5 c 128,-1,19
 248 359 248 359 212 363.5 c 128,-1,20
 176 368 176 368 141 375 c 128,-1,21
 106 382 106 382 79 399.5 c 128,-1,22
 52 417 52 417 36 450.5 c 128,-1,23
 20 484 20 484 20 543 c 0,24,25
 20 571 20 571 23 599 c 128,-1,26
 26 627 26 627 37.5 649.5 c 128,-1,27
 49 672 49 672 69.5 685.5 c 128,-1,28
 90 699 90 699 123 699 c 0,29,30
 142 699 142 699 165 692.5 c 128,-1,31
 188 686 188 686 208 673.5 c 128,-1,32
 228 661 228 661 241.5 643 c 128,-1,33
 255 625 255 625 255 602 c 0,34,35
 255 600 255 600 254.5 594.5 c 128,-1,36
 254 589 254 589 254 588 c 1,37,38
 238 606 238 606 226 619.5 c 128,-1,39
 214 633 214 633 201 641.5 c 128,-1,40
 188 650 188 650 172.5 654 c 128,-1,41
 157 658 157 658 134 658 c 0,42,43
 112 658 112 658 98 650.5 c 128,-1,44
 84 643 84 643 75.5 629.5 c 128,-1,45
 67 616 67 616 63.5 598.5 c 128,-1,46
 60 581 60 581 60 562 c 0,47,48
 60 508 60 508 76.5 477.5 c 128,-1,49
 93 447 93 447 120.5 430.5 c 128,-1,50
 148 414 148 414 182.5 407 c 128,-1,51
 217 400 217 400 253.5 395 c 128,-1,52
 290 390 290 390 324.5 381 c 128,-1,53
 359 372 359 372 386.5 351 c 128,-1,54
 414 330 414 330 430 293 c 128,-1,55
 446 256 446 256 446 193 c 0,56,57
 446 142 446 142 431.5 105 c 128,-1,58
 417 68 417 68 389.5 45 c 128,-1,59
 362 22 362 22 322 10.5 c 128,-1,60
 282 -1 282 -1 230 -1 c 0,61,62
 220 -1 220 -1 201 4.5 c 128,-1,63
 182 10 182 10 160.5 20 c 128,-1,64
 139 30 139 30 116.5 43 c 128,-1,65
 94 56 94 56 76 71 c 128,-1,66
 58 86 58 86 46 103 c 128,-1,67
 34 120 34 120 34 137 c 0,0,1
EndSplineSet
EndChar

StartChar: T
Encoding: 84 84 55
Width: 663
Flags: W
LayerCount: 2
Fore
SplineSet
28 643 m 1,0,-1
 13 657 l 1,1,2
 20 665 20 665 32.5 674 c 128,-1,3
 45 683 45 683 55 684 c 1,4,5
 64 686 64 686 87.5 687.5 c 128,-1,6
 111 689 111 689 137 692 c 128,-1,7
 163 695 163 695 186.5 696 c 128,-1,8
 210 697 210 697 220 697 c 0,9,10
 236 697 236 697 268.5 698 c 128,-1,11
 301 699 301 699 343 699.5 c 128,-1,12
 385 700 385 700 431 700.5 c 128,-1,13
 477 701 477 701 519 701.5 c 128,-1,14
 561 702 561 702 594 702.5 c 128,-1,15
 627 703 627 703 643 703 c 1,16,-1
 643 670 l 1,17,18
 633 670 633 670 611 669 c 128,-1,19
 589 668 589 668 562 666.5 c 128,-1,20
 535 665 535 665 505.5 663.5 c 128,-1,21
 476 662 476 662 449 661 c 128,-1,22
 422 660 422 660 401 658.5 c 128,-1,23
 380 657 380 657 370 657 c 0,24,25
 364 657 364 657 350.5 654.5 c 128,-1,26
 337 652 337 652 321.5 650.5 c 128,-1,27
 306 649 306 649 292.5 646 c 128,-1,28
 279 643 279 643 274 643 c 1,29,30
 274 638 274 638 273.5 623 c 128,-1,31
 273 608 273 608 272.5 592 c 128,-1,32
 272 576 272 576 272 561 c 2,33,-1
 272 541 l 2,34,35
 272 481 272 481 277 423.5 c 128,-1,36
 282 366 282 366 287.5 308.5 c 128,-1,37
 293 251 293 251 298 193 c 128,-1,38
 303 135 303 135 303 76 c 0,39,40
 303 71 303 71 303 63 c 128,-1,41
 303 55 303 55 302.5 47.5 c 128,-1,42
 302 40 302 40 301.5 34 c 128,-1,43
 301 28 301 28 301 28 c 1,44,-1
 274 0 l 1,45,46
 261 6 261 6 255.5 18 c 128,-1,47
 250 30 250 30 248.5 44 c 128,-1,48
 247 58 247 58 247 71.5 c 128,-1,49
 247 85 247 85 247 95 c 0,50,51
 246 112 246 112 243.5 139.5 c 128,-1,52
 241 167 241 167 238.5 204 c 128,-1,53
 236 241 236 241 232.5 283 c 128,-1,54
 229 325 229 325 225.5 369 c 128,-1,55
 222 413 222 413 219.5 455.5 c 128,-1,56
 217 498 217 498 214 534.5 c 128,-1,57
 211 571 211 571 208.5 599 c 128,-1,58
 206 627 206 627 205 643 c 1,59,-1
 28 643 l 1,0,-1
EndSplineSet
EndChar

StartChar: U
Encoding: 85 85 56
Width: 670
Flags: W
LayerCount: 2
Fore
SplineSet
363 192 m 1,0,1
 337 172 337 172 317 146 c 128,-1,2
 297 120 297 120 276 96.5 c 128,-1,3
 255 73 255 73 228.5 56.5 c 128,-1,4
 202 40 202 40 164 40 c 0,5,6
 135 40 135 40 113.5 58.5 c 128,-1,7
 92 77 92 77 76 107.5 c 128,-1,8
 60 138 60 138 50 175 c 128,-1,9
 40 212 40 212 34 249 c 128,-1,10
 28 286 28 286 25 318 c 128,-1,11
 22 350 22 350 21 370 c 0,12,13
 21 377 21 377 20.5 393 c 128,-1,14
 20 409 20 409 19.5 429.5 c 128,-1,15
 19 450 19 450 18 472.5 c 128,-1,16
 17 495 17 495 17 515 c 128,-1,17
 17 535 17 535 16.5 551 c 128,-1,18
 16 567 16 567 16 575 c 1,19,-1
 61 575 l 1,20,21
 62 564 62 564 64 541.5 c 128,-1,22
 66 519 66 519 68.5 491 c 128,-1,23
 71 463 71 463 74 431.5 c 128,-1,24
 77 400 77 400 80.5 371.5 c 128,-1,25
 84 343 84 343 85.5 320.5 c 128,-1,26
 87 298 87 298 89 287 c 0,27,28
 92 263 92 263 96 230 c 128,-1,29
 100 197 100 197 110 166.5 c 128,-1,30
 120 136 120 136 138.5 115 c 128,-1,31
 157 94 157 94 187 94 c 0,32,33
 203 94 203 94 214.5 96.5 c 128,-1,34
 226 99 226 99 236.5 105.5 c 128,-1,35
 247 112 247 112 257 122.5 c 128,-1,36
 267 133 267 133 281 150 c 1,37,38
 284 156 284 156 293.5 172.5 c 128,-1,39
 303 189 303 189 314.5 208.5 c 128,-1,40
 326 228 326 228 335.5 246.5 c 128,-1,41
 345 265 345 265 349 274 c 1,42,43
 353 298 353 298 353 333.5 c 128,-1,44
 353 369 353 369 352 406.5 c 128,-1,45
 351 444 351 444 351.5 479 c 128,-1,46
 352 514 352 514 358 537.5 c 128,-1,47
 364 561 364 561 378 569 c 128,-1,48
 392 577 392 577 417 561 c 1,49,50
 417 551 417 551 417 530.5 c 128,-1,51
 417 510 417 510 416.5 484.5 c 128,-1,52
 416 459 416 459 416.5 431 c 128,-1,53
 417 403 417 403 417 377 c 2,54,-1
 417 330 l 2,55,56
 417 310 417 310 417 301 c 0,57,58
 418 281 418 281 420 255 c 128,-1,59
 422 229 422 229 427 201.5 c 128,-1,60
 432 174 432 174 440.5 147.5 c 128,-1,61
 449 121 449 121 464 100 c 128,-1,62
 479 79 479 79 499.5 66 c 128,-1,63
 520 53 520 53 549 53 c 0,64,65
 573 53 573 53 594 54.5 c 128,-1,66
 615 56 615 56 636 68 c 1,67,68
 637 67 637 67 638.5 61.5 c 128,-1,69
 640 56 640 56 640 55 c 0,70,71
 640 38 640 38 628 29 c 128,-1,72
 616 20 616 20 599 16.5 c 128,-1,73
 582 13 582 13 564.5 12.5 c 128,-1,74
 547 12 547 12 537 12 c 0,75,76
 501 12 501 12 470.5 26.5 c 128,-1,77
 440 41 440 41 416.5 65.5 c 128,-1,78
 393 90 393 90 379 122.5 c 128,-1,79
 365 155 365 155 363 192 c 1,0,1
EndSplineSet
EndChar

StartChar: V
Encoding: 86 86 57
Width: 514
Flags: W
LayerCount: 2
Fore
SplineSet
205 28 m 0,0,1
 182 76 182 76 155 135.5 c 128,-1,2
 128 195 128 195 102 258 c 128,-1,3
 76 321 76 321 52.5 385 c 128,-1,4
 29 449 29 449 13 507 c 1,5,6
 17 517 17 517 25.5 519.5 c 128,-1,7
 34 522 34 522 44 522 c 0,8,9
 47 522 47 522 51 521 c 128,-1,10
 55 520 55 520 55 519 c 2,11,-1
 233 109 l 1,12,13
 233 109 233 109 235.5 108 c 128,-1,14
 238 107 238 107 238 107 c 1,15,16
 246 107 246 107 255 129.5 c 128,-1,17
 264 152 264 152 274.5 189 c 128,-1,18
 285 226 285 226 297.5 272.5 c 128,-1,19
 310 319 310 319 324.5 368.5 c 128,-1,20
 339 418 339 418 356 464.5 c 128,-1,21
 373 511 373 511 391 548 c 128,-1,22
 409 585 409 585 429 607.5 c 128,-1,23
 449 630 449 630 472 630 c 0,24,25
 479 630 479 630 484 627.5 c 128,-1,26
 489 625 489 625 492 616 c 1,27,28
 489 608 489 608 481 594.5 c 128,-1,29
 473 581 473 581 463.5 563.5 c 128,-1,30
 454 546 454 546 444 527 c 128,-1,31
 434 508 434 508 424.5 490 c 128,-1,32
 415 472 415 472 407.5 458.5 c 128,-1,33
 400 445 400 445 397 438 c 0,34,35
 371 388 371 388 356 335 c 128,-1,36
 341 282 341 282 327.5 228 c 128,-1,37
 314 174 314 174 299 120 c 128,-1,38
 284 66 284 66 260 13 c 0,39,40
 259 12 259 12 255.5 9 c 128,-1,41
 252 6 252 6 248 4 c 128,-1,42
 244 2 244 2 239.5 0.5 c 128,-1,43
 235 -1 235 -1 233 0 c 0,44,45
 230 1 230 1 225.5 4 c 128,-1,46
 221 7 221 7 216.5 11.5 c 128,-1,47
 212 16 212 16 209 20.5 c 128,-1,48
 206 25 206 25 205 28 c 0,0,1
EndSplineSet
EndChar

StartChar: W
Encoding: 87 87 58
Width: 684
Flags: W
LayerCount: 2
Fore
SplineSet
13 541 m 0,0,1
 13 550 13 550 19 556 c 128,-1,2
 25 562 25 562 34 562 c 0,3,4
 41 562 41 562 46.5 557 c 128,-1,5
 52 552 52 552 56 545 c 128,-1,6
 60 538 60 538 63.5 531.5 c 128,-1,7
 67 525 67 525 68 519 c 2,8,-1
 178 165 l 1,9,-1
 192 177 l 1,10,-1
 274 519 l 1,11,-1
 311 557 l 1,12,-1
 479 205 l 1,13,-1
 507 177 l 1,14,-1
 520 205 l 1,15,16
 522 218 522 218 526 244.5 c 128,-1,17
 530 271 530 271 535 304.5 c 128,-1,18
 540 338 540 338 546 376 c 128,-1,19
 552 414 552 414 557.5 447.5 c 128,-1,20
 563 481 563 481 567.5 508 c 128,-1,21
 572 535 572 535 575 547 c 0,22,23
 576 555 576 555 581.5 575 c 128,-1,24
 587 595 587 595 593.5 616.5 c 128,-1,25
 600 638 600 638 606 657.5 c 128,-1,26
 612 677 612 677 616 684 c 0,27,28
 616 686 616 686 620.5 688 c 128,-1,29
 625 690 625 690 629.5 692.5 c 128,-1,30
 634 695 634 695 637.5 696 c 128,-1,31
 641 697 641 697 643 697 c 0,32,33
 650 697 650 697 653 693 c 128,-1,34
 656 689 656 689 657.5 684 c 128,-1,35
 659 679 659 679 659 672 c 2,36,-1
 659 664 l 2,37,38
 659 650 659 650 656.5 639 c 128,-1,39
 654 628 654 628 643 616 c 1,40,-1
 547 95 l 2,41,42
 544 81 544 81 530.5 73.5 c 128,-1,43
 517 66 517 66 505 66 c 0,44,45
 502 66 502 66 497.5 66.5 c 128,-1,46
 493 67 493 67 492 68 c 2,47,-1
 315 410 l 1,48,-1
 301 425 l 1,49,50
 298 411 298 411 291.5 382 c 128,-1,51
 285 353 285 353 277 316.5 c 128,-1,52
 269 280 269 280 260.5 239.5 c 128,-1,53
 252 199 252 199 244 162.5 c 128,-1,54
 236 126 236 126 229 97 c 128,-1,55
 222 68 222 68 220 55 c 1,56,57
 218 49 218 49 216 40 c 128,-1,58
 214 31 214 31 210 22 c 128,-1,59
 206 13 206 13 199.5 6 c 128,-1,60
 193 -1 193 -1 184 -1 c 0,61,62
 178 -1 178 -1 172.5 2 c 128,-1,63
 167 5 167 5 165 13 c 2,64,-1
 13 534 l 2,65,66
 13 535 13 535 13 537.5 c 128,-1,67
 13 540 13 540 13 541 c 0,0,1
EndSplineSet
EndChar

StartChar: X
Encoding: 88 88 59
Width: 507
Flags: W
LayerCount: 2
Fore
SplineSet
265 261 m 1,0,1
 265 261 265 261 262.5 260.5 c 128,-1,2
 260 260 260 260 260 260 c 1,3,-1
 55 28 l 1,4,-1
 13 28 l 1,5,-1
 13 55 l 1,6,7
 19 60 19 60 29.5 72 c 128,-1,8
 40 84 40 84 54 98.5 c 128,-1,9
 68 113 68 113 83 129.5 c 128,-1,10
 98 146 98 146 111 160.5 c 128,-1,11
 124 175 124 175 135 187 c 128,-1,12
 146 199 146 199 150 205 c 1,13,14
 160 216 160 216 173.5 234 c 128,-1,15
 187 252 187 252 200.5 269.5 c 128,-1,16
 214 287 214 287 223.5 300 c 128,-1,17
 233 313 233 313 233 314 c 2,18,-1
 233 342 l 1,19,-1
 137 547 l 2,20,21
 136 548 136 548 136 553 c 128,-1,22
 136 558 136 558 136 560 c 0,23,24
 136 570 136 570 137.5 577 c 128,-1,25
 139 584 139 584 150 588 c 1,26,27
 166 579 166 579 178 561 c 128,-1,28
 190 543 190 543 199.5 521.5 c 128,-1,29
 209 500 209 500 217.5 477.5 c 128,-1,30
 226 455 226 455 235 437 c 128,-1,31
 244 419 244 419 255 407.5 c 128,-1,32
 266 396 266 396 281 396 c 0,33,34
 282 396 282 396 284.5 396.5 c 128,-1,35
 287 397 287 397 287 397 c 1,36,37
 292 404 292 404 301.5 419.5 c 128,-1,38
 311 435 311 435 323.5 453.5 c 128,-1,39
 336 472 336 472 349.5 493 c 128,-1,40
 363 514 363 514 375 533 c 128,-1,41
 387 552 387 552 396.5 566.5 c 128,-1,42
 406 581 406 581 410 588 c 0,43,44
 423 606 423 606 435 614 c 128,-1,45
 447 622 447 622 468 622 c 1,46,47
 468 611 468 611 467.5 604 c 128,-1,48
 467 597 467 597 465 590 c 128,-1,49
 463 583 463 583 460 576.5 c 128,-1,50
 457 570 457 570 452 561 c 1,51,52
 446 553 446 553 435.5 535.5 c 128,-1,53
 425 518 425 518 411.5 496.5 c 128,-1,54
 398 475 398 475 383 451 c 128,-1,55
 368 427 368 427 354.5 405.5 c 128,-1,56
 341 384 341 384 330 367 c 128,-1,57
 319 350 319 350 315 342 c 1,58,-1
 315 328 l 1,59,-1
 479 40 l 2,60,61
 480 39 480 39 480.5 34.5 c 128,-1,62
 481 30 481 30 481 28 c 0,63,64
 481 22 481 22 480 16.5 c 128,-1,65
 479 11 479 11 475.5 6 c 128,-1,66
 472 1 472 1 466.5 -1.5 c 128,-1,67
 461 -4 461 -4 452 0 c 0,68,69
 431 8 431 8 414.5 30.5 c 128,-1,70
 398 53 398 53 383 82.5 c 128,-1,71
 368 112 368 112 355 143.5 c 128,-1,72
 342 175 342 175 328 201 c 128,-1,73
 314 227 314 227 299 244 c 128,-1,74
 284 261 284 261 265 261 c 1,0,1
EndSplineSet
EndChar

StartChar: Y
Encoding: 89 89 60
Width: 458
Flags: W
LayerCount: 2
Fore
SplineSet
12 636 m 0,0,1
 12 643 12 643 12.5 648.5 c 128,-1,2
 13 654 13 654 15 659.5 c 128,-1,3
 17 665 17 665 21.5 667.5 c 128,-1,4
 26 670 26 670 34 670 c 0,5,6
 41 670 41 670 46 667.5 c 128,-1,7
 51 665 51 665 55 657 c 2,8,-1
 137 479 l 1,9,-1
 165 479 l 1,10,11
 170 486 170 486 182.5 500 c 128,-1,12
 195 514 195 514 211.5 531.5 c 128,-1,13
 228 549 228 549 245.5 568.5 c 128,-1,14
 263 588 263 588 279 605.5 c 128,-1,15
 295 623 295 623 308.5 636.5 c 128,-1,16
 322 650 322 650 328 657 c 1,17,18
 334 662 334 662 344.5 672.5 c 128,-1,19
 355 683 355 683 368.5 693.5 c 128,-1,20
 382 704 382 704 396.5 711.5 c 128,-1,21
 411 719 411 719 425 719 c 1,22,-1
 425 684 l 1,23,-1
 205 452 l 2,24,25
 187 433 187 433 182 418.5 c 128,-1,26
 177 404 177 404 177 384 c 0,27,28
 177 337 177 337 180 289 c 128,-1,29
 183 241 183 241 186.5 193 c 128,-1,30
 190 145 190 145 192.5 97 c 128,-1,31
 195 49 195 49 195 0 c 1,32,-1
 165 0 l 2,33,34
 160 0 160 0 157 24.5 c 128,-1,35
 154 49 154 49 151 88.5 c 128,-1,36
 148 128 148 128 144.5 174 c 128,-1,37
 141 220 141 220 138 262.5 c 128,-1,38
 135 305 135 305 131.5 338 c 128,-1,39
 128 371 128 371 122 382 c 1,40,41
 121 387 121 387 115 401 c 128,-1,42
 109 415 109 415 101 433.5 c 128,-1,43
 93 452 93 452 83 472 c 128,-1,44
 73 492 73 492 64.5 510.5 c 128,-1,45
 56 529 56 529 49.5 542.5 c 128,-1,46
 43 556 43 556 41 561 c 0,47,48
 38 568 38 568 33 577.5 c 128,-1,49
 28 587 28 587 23.5 597 c 128,-1,50
 19 607 19 607 15.5 617 c 128,-1,51
 12 627 12 627 12 636 c 0,0,1
EndSplineSet
EndChar

StartChar: Z
Encoding: 90 90 61
Width: 760
Flags: W
LayerCount: 2
Fore
SplineSet
24 87 m 1,0,1
 24 106 24 106 35 119.5 c 128,-1,2
 46 133 46 133 63 142.5 c 128,-1,3
 80 152 80 152 101.5 159 c 128,-1,4
 123 166 123 166 145 172.5 c 128,-1,5
 167 179 167 179 186.5 186.5 c 128,-1,6
 206 194 206 194 220 205 c 0,7,8
 230 214 230 214 246.5 229.5 c 128,-1,9
 263 245 263 245 278 260 c 128,-1,10
 293 275 293 275 304 287 c 128,-1,11
 315 299 315 299 315 301 c 2,12,-1
 315 321 l 1,13,-1
 205 321 l 1,14,-1
 192 355 l 1,15,16
 193 357 193 357 197 359.5 c 128,-1,17
 201 362 201 362 205 363.5 c 128,-1,18
 209 365 209 365 213 367.5 c 128,-1,19
 217 370 217 370 220 370 c 0,20,21
 226 371 226 371 244 371 c 2,22,-1
 318 371 l 2,23,24
 336 371 336 371 342 370 c 1,25,-1
 383 410 l 1,26,-1
 383 561 l 2,27,28
 383 562 383 562 372.5 565 c 128,-1,29
 362 568 362 568 346.5 569.5 c 128,-1,30
 331 571 331 571 314.5 573 c 128,-1,31
 298 575 298 575 287 575 c 0,32,33
 262 575 262 575 239 568.5 c 128,-1,34
 216 562 216 562 193.5 553 c 128,-1,35
 171 544 171 544 148 537.5 c 128,-1,36
 125 531 125 531 101 531 c 1,37,38
 101 552 101 552 114.5 566.5 c 128,-1,39
 128 581 128 581 148 590.5 c 128,-1,40
 168 600 168 600 194 605.5 c 128,-1,41
 220 611 220 611 245 613.5 c 128,-1,42
 270 616 270 616 291 616 c 128,-1,43
 312 616 312 616 325 616 c 0,44,45
 355 616 355 616 376.5 611.5 c 128,-1,46
 398 607 398 607 412 595 c 128,-1,47
 426 583 426 583 432.5 563.5 c 128,-1,48
 439 544 439 544 439 515 c 0,49,50
 439 477 439 477 433 442 c 128,-1,51
 427 407 427 407 427 370 c 1,52,-1
 647 370 l 1,53,54
 647 368 647 368 646.5 360.5 c 128,-1,55
 646 353 646 353 644 344.5 c 128,-1,56
 642 336 642 336 638.5 328.5 c 128,-1,57
 635 321 635 321 630 321 c 2,58,-1
 397 321 l 1,59,60
 374 294 374 294 349.5 266 c 128,-1,61
 325 238 325 238 297 212.5 c 128,-1,62
 269 187 269 187 239 163.5 c 128,-1,63
 209 140 209 140 178 122 c 1,64,65
 220 98 220 98 266.5 84.5 c 128,-1,66
 313 71 313 71 361 64 c 128,-1,67
 409 57 409 57 457.5 55 c 128,-1,68
 506 53 506 53 554 53 c 2,69,-1
 575 53 l 2,70,71
 589 53 589 53 605.5 53.5 c 128,-1,72
 622 54 622 54 637 54.5 c 128,-1,73
 652 55 652 55 657 55 c 0,74,75
 668 57 668 57 676.5 62 c 128,-1,76
 685 67 685 67 693.5 72 c 128,-1,77
 702 77 702 77 710.5 81 c 128,-1,78
 719 85 719 85 729 85 c 1,79,80
 729 71 729 71 726.5 58 c 128,-1,81
 724 45 724 45 717.5 35 c 128,-1,82
 711 25 711 25 699.5 19 c 128,-1,83
 688 13 688 13 670 13 c 0,84,85
 662 13 662 13 643.5 13 c 128,-1,86
 625 13 625 13 602.5 13 c 128,-1,87
 580 13 580 13 560.5 12.5 c 128,-1,88
 541 12 541 12 534 12 c 0,89,90
 502 12 502 12 473.5 12 c 128,-1,91
 445 12 445 12 416.5 12.5 c 128,-1,92
 388 13 388 13 359.5 16.5 c 128,-1,93
 331 20 331 20 301 28 c 0,94,95
 295 29 295 29 277.5 34 c 128,-1,96
 260 39 260 39 238 45.5 c 128,-1,97
 216 52 216 52 195.5 58.5 c 128,-1,98
 175 65 175 65 165 68 c 0,99,100
 163 68 163 68 159 70.5 c 128,-1,101
 155 73 155 73 151 75.5 c 128,-1,102
 147 78 147 78 142.5 80 c 128,-1,103
 138 82 138 82 137 82 c 0,104,105
 130 83 130 83 114 84 c 128,-1,106
 98 85 98 85 80 85.5 c 128,-1,107
 62 86 62 86 46.5 86.5 c 128,-1,108
 31 87 31 87 24 87 c 1,0,1
EndSplineSet
EndChar

StartChar: bracketleft
Encoding: 91 91 62
Width: 431
Flags: W
LayerCount: 2
Fore
SplineSet
47 -40 m 1,0,1
 48 0 48 0 48.5 56.5 c 128,-1,2
 49 113 49 113 49 179 c 2,3,-1
 49 316 l 2,4,5
 49 387 49 387 49 453 c 128,-1,6
 49 519 49 519 48.5 576 c 128,-1,7
 48 633 48 633 48 670 c 2,8,-1
 48 684 l 2,9,10
 48 692 48 692 48.5 700 c 128,-1,11
 49 708 49 708 49 713.5 c 128,-1,12
 49 719 49 719 49 720 c 2,13,-1
 63 733 l 1,14,-1
 391 733 l 1,15,16
 391 731 391 731 385.5 726 c 128,-1,17
 380 721 380 721 377 720 c 0,18,19
 349 712 349 712 314 708.5 c 128,-1,20
 279 705 279 705 244 704 c 128,-1,21
 209 703 209 703 175.5 704.5 c 128,-1,22
 142 706 142 706 117 706 c 1,23,-1
 103 693 l 2,24,25
 103 692 103 692 103 684.5 c 128,-1,26
 103 677 103 677 103 666.5 c 128,-1,27
 103 656 103 656 103 645 c 128,-1,28
 103 634 103 634 103 628 c 0,29,30
 103 595 103 595 102 544.5 c 128,-1,31
 101 494 101 494 100 434 c 128,-1,32
 99 374 99 374 98.5 310.5 c 128,-1,33
 98 247 98 247 97.5 186.5 c 128,-1,34
 97 126 97 126 97.5 74 c 128,-1,35
 98 22 98 22 101 -13 c 1,36,37
 107 -14 107 -14 123 -16.5 c 128,-1,38
 139 -19 139 -19 156.5 -21 c 128,-1,39
 174 -23 174 -23 188.5 -24.5 c 128,-1,40
 203 -26 203 -26 210 -26 c 0,41,42
 214 -26 214 -26 227.5 -24.5 c 128,-1,43
 241 -23 241 -23 257 -20 c 2,44,-1
 288 -14 l 1,45,46
 302 -13 302 -13 306 -13 c 0,47,48
 312 -12 312 -12 328 -11.5 c 128,-1,49
 344 -11 344 -11 361.5 -10.5 c 128,-1,50
 379 -10 379 -10 394 -9.5 c 128,-1,51
 409 -9 409 -9 415 -9 c 1,52,-1
 415 -40 l 1,53,-1
 404 -41 l 2,54,55
 393 -43 393 -43 378 -45.5 c 128,-1,56
 363 -48 363 -48 346.5 -50 c 128,-1,57
 330 -52 330 -52 319 -53 c 1,58,-1
 306 -53 l 1,59,60
 302 -54 302 -54 288 -56.5 c 128,-1,61
 274 -59 274 -59 257.5 -61 c 128,-1,62
 241 -63 241 -63 227.5 -65 c 128,-1,63
 214 -67 214 -67 210 -67 c 0,64,65
 194 -67 194 -67 169.5 -65.5 c 128,-1,66
 145 -64 145 -64 121 -61.5 c 128,-1,67
 97 -59 97 -59 79 -57 c 128,-1,68
 61 -55 61 -55 60 -53 c 2,69,-1
 47 -40 l 1,0,1
EndSplineSet
EndChar

StartChar: backslash
Encoding: 92 92 63
Width: 314
Flags: W
LayerCount: 2
Fore
SplineSet
13 492 m 0,0,1
 13 496 13 496 18.5 501.5 c 128,-1,2
 24 507 24 507 28 507 c 1,3,-1
 68 465 l 1,4,5
 75 452 75 452 90 424 c 128,-1,6
 105 396 105 396 124 361 c 128,-1,7
 143 326 143 326 163.5 287.5 c 128,-1,8
 184 249 184 249 203 214 c 128,-1,9
 222 179 222 179 237 150.5 c 128,-1,10
 252 122 252 122 260 109 c 0,11,12
 268 94 268 94 276 81 c 128,-1,13
 284 68 284 68 290.5 55 c 128,-1,14
 297 42 297 42 300.5 28 c 128,-1,15
 304 14 304 14 304 -5 c 1,16,17
 284 -5 284 -5 266.5 10 c 128,-1,18
 249 25 249 25 234 48 c 128,-1,19
 219 71 219 71 205.5 100.5 c 128,-1,20
 192 130 192 130 180 159 c 128,-1,21
 168 188 168 188 157.5 214.5 c 128,-1,22
 147 241 147 241 137 260 c 0,23,24
 134 265 134 265 125.5 279.5 c 128,-1,25
 117 294 117 294 105.5 314 c 128,-1,26
 94 334 94 334 81.5 356 c 128,-1,27
 69 378 69 378 58 398 c 128,-1,28
 47 418 47 418 39 432 c 128,-1,29
 31 446 31 446 28 452 c 0,30,31
 26 454 26 454 24 460 c 128,-1,32
 22 466 22 466 19.5 473 c 128,-1,33
 17 480 17 480 15 485 c 128,-1,34
 13 490 13 490 13 492 c 0,0,1
EndSplineSet
EndChar

StartChar: bracketright
Encoding: 93 93 64
Width: 492
Flags: W
LayerCount: 2
Fore
SplineSet
21 -42 m 0,0,1
 21 -41 21 -41 26 -36.5 c 128,-1,2
 31 -32 31 -32 34 -30 c 0,3,4
 36 -29 36 -29 42 -26.5 c 128,-1,5
 48 -24 48 -24 54.5 -22.5 c 128,-1,6
 61 -21 61 -21 67 -19 c 128,-1,7
 73 -17 73 -17 76 -16 c 0,8,9
 85 -14 85 -14 107 -10.5 c 128,-1,10
 129 -7 129 -7 156 -3 c 128,-1,11
 183 1 183 1 212.5 5.5 c 128,-1,12
 242 10 242 10 269 14 c 128,-1,13
 296 18 296 18 317 21 c 128,-1,14
 338 24 338 24 349 25 c 1,15,-1
 363 52 l 1,16,-1
 336 599 l 2,17,18
 336 600 336 600 336.5 604 c 128,-1,19
 337 608 337 608 337 613.5 c 128,-1,20
 337 619 337 619 337 624 c 2,21,-1
 337 641 l 2,22,23
 337 646 337 646 337 652 c 128,-1,24
 337 658 337 658 336.5 662.5 c 128,-1,25
 336 667 336 667 336 668 c 0,26,27
 336 672 336 672 330.5 680 c 128,-1,28
 325 688 325 688 322 688 c 2,29,-1
 62 688 l 1,30,-1
 62 708 l 1,31,32
 111 714 111 714 158.5 718.5 c 128,-1,33
 206 723 206 723 255 723 c 0,34,35
 272 723 272 723 285 722.5 c 128,-1,36
 298 722 298 722 311.5 720 c 128,-1,37
 325 718 325 718 340 715.5 c 128,-1,38
 355 713 355 713 376 708 c 1,39,40
 376 706 376 706 376.5 697 c 128,-1,41
 377 688 377 688 377.5 678 c 128,-1,42
 378 668 378 668 378.5 659.5 c 128,-1,43
 379 651 379 651 379 646 c 256,44,45
 379 641 379 641 378 631 c 2,46,-1
 377 611 l 2,47,48
 377 602 377 602 376.5 594.5 c 128,-1,49
 376 587 376 587 376 585 c 0,50,51
 373 566 373 566 373 531 c 128,-1,52
 373 496 373 496 375.5 452 c 128,-1,53
 378 408 378 408 381 357 c 128,-1,54
 384 306 384 306 387.5 256 c 128,-1,55
 391 206 391 206 394.5 160 c 128,-1,56
 398 114 398 114 400 78 c 128,-1,57
 402 42 402 42 403.5 20.5 c 128,-1,58
 405 -1 405 -1 403 -2 c 2,59,-1
 391 -16 l 1,60,61
 299 -16 299 -16 210 -30 c 128,-1,62
 121 -44 121 -44 34 -70 c 1,63,64
 33 -69 33 -69 30.5 -65 c 128,-1,65
 28 -61 28 -61 26 -57 c 128,-1,66
 24 -53 24 -53 22.5 -49 c 128,-1,67
 21 -45 21 -45 21 -42 c 0,0,1
EndSplineSet
EndChar

StartChar: asciicircum
Encoding: 94 94 65
Width: 595
Flags: W
LayerCount: 2
Fore
SplineSet
204 659 m 0,0,1
 206 662 206 662 213 677 c 128,-1,2
 220 692 220 692 228.5 712.5 c 128,-1,3
 237 733 237 733 247 755.5 c 128,-1,4
 257 778 257 778 267 796 c 128,-1,5
 277 814 277 814 285.5 827 c 128,-1,6
 294 840 294 840 301 840 c 0,7,8
 302 840 302 840 307 838.5 c 128,-1,9
 312 837 312 837 314 836 c 1,10,11
 314 832 314 832 315.5 822.5 c 128,-1,12
 317 813 317 813 319 802 c 128,-1,13
 321 791 321 791 323.5 781 c 128,-1,14
 326 771 326 771 328 768 c 0,15,16
 330 762 330 762 337 746 c 128,-1,17
 344 730 344 730 353 709 c 128,-1,18
 362 688 362 688 372 664.5 c 128,-1,19
 382 641 382 641 392 618.5 c 128,-1,20
 402 596 402 596 410.5 577.5 c 128,-1,21
 419 559 419 559 424 549 c 1,22,23
 445 516 445 516 449.5 503 c 128,-1,24
 454 490 454 490 446.5 491 c 128,-1,25
 439 492 439 492 423.5 505.5 c 128,-1,26
 408 519 408 519 388 540 c 128,-1,27
 368 561 368 561 348.5 586 c 128,-1,28
 329 611 329 611 315 636 c 128,-1,29
 301 661 301 661 294 683 c 1,30,31
 290 699 290 699 292 711 c 1,32,33
 286 698 286 698 277 679 c 0,34,35
 265 654 265 654 250.5 626 c 128,-1,36
 236 598 236 598 220 571 c 128,-1,37
 204 544 204 544 191.5 525 c 128,-1,38
 179 506 179 506 171 498.5 c 128,-1,39
 163 491 163 491 162.5 504 c 128,-1,40
 162 517 162 517 172 553.5 c 128,-1,41
 182 590 182 590 204 659 c 0,0,1
295 719 m 2,42,43
 293 715 293 715 292 712 c 2,44,-1
 295 719 l 2,42,43
EndSplineSet
EndChar

StartChar: underscore
Encoding: 95 95 66
Width: 614
Flags: W
LayerCount: 2
Fore
SplineSet
33 41 m 1,0,-1
 178 41 l 2,1,2
 231 41 231 41 265 41.5 c 128,-1,3
 299 42 299 42 320 43 c 128,-1,4
 341 44 341 44 353.5 44.5 c 128,-1,5
 366 45 366 45 377 45.5 c 128,-1,6
 388 46 388 46 401 46 c 128,-1,7
 414 46 414 46 437 45.5 c 128,-1,8
 460 45 460 45 496 43.5 c 128,-1,9
 532 42 532 42 588 40 c 1,10,-1
 595 4 l 1,11,-1
 20 12 l 1,12,-1
 33 41 l 1,0,-1
EndSplineSet
EndChar

StartChar: grave
Encoding: 96 96 67
Width: 381
Flags: W
LayerCount: 2
Fore
SplineSet
190 733 m 1,0,1
 193 724 193 724 209 705.5 c 128,-1,2
 225 687 225 687 243.5 665 c 128,-1,3
 262 643 262 643 279 621.5 c 128,-1,4
 296 600 296 600 303 585 c 0,5,6
 311 569 311 569 306 565.5 c 128,-1,7
 301 562 301 562 287.5 566.5 c 128,-1,8
 274 571 274 571 255.5 584 c 128,-1,9
 237 597 237 597 217.5 612.5 c 128,-1,10
 198 628 198 628 181 646 c 128,-1,11
 164 664 164 664 154 680 c 128,-1,12
 144 696 144 696 144 708.5 c 128,-1,13
 144 721 144 721 157 726 c 1,14,-1
 190 733 l 1,0,1
EndSplineSet
EndChar

StartChar: a
Encoding: 97 97 68
Width: 575
Flags: W
LayerCount: 2
Fore
SplineSet
19 111 m 0,0,1
 19 149 19 149 28.5 192 c 128,-1,2
 38 235 38 235 55 276.5 c 128,-1,3
 72 318 72 318 96.5 355 c 128,-1,4
 121 392 121 392 150 420.5 c 128,-1,5
 179 449 179 449 213 466 c 128,-1,6
 247 483 247 483 284 483 c 0,7,8
 292 483 292 483 307.5 479.5 c 128,-1,9
 323 476 323 476 339 470.5 c 128,-1,10
 355 465 355 465 367 457 c 128,-1,11
 379 449 379 449 379 441 c 1,12,-1
 206 419 l 1,13,14
 187 419 187 419 170 400.5 c 128,-1,15
 153 382 153 382 138.5 353.5 c 128,-1,16
 124 325 124 325 112.5 289.5 c 128,-1,17
 101 254 101 254 92.5 220 c 128,-1,18
 84 186 84 186 79.5 158 c 128,-1,19
 75 130 75 130 75 116 c 2,20,-1
 75 106 l 2,21,22
 75 100 75 100 75.5 92.5 c 128,-1,23
 76 85 76 85 76 77 c 2,24,-1
 76 68 l 2,25,26
 76 66 76 66 80 62 c 2,27,-1
 97 46 l 2,28,29
 101 41 101 41 103 40 c 0,30,31
 104 40 104 40 106 40 c 2,32,-1
 109 40 l 2,33,34
 132 40 132 40 153.5 52 c 128,-1,35
 175 64 175 64 193.5 81 c 128,-1,36
 212 98 212 98 227.5 117.5 c 128,-1,37
 243 137 243 137 254 150 c 0,38,39
 260 157 260 157 263.5 180.5 c 128,-1,40
 267 204 267 204 270.5 234.5 c 128,-1,41
 274 265 274 265 278 299.5 c 128,-1,42
 282 334 282 334 288 362.5 c 128,-1,43
 294 391 294 391 302.5 409 c 128,-1,44
 311 427 311 427 324 427 c 0,45,46
 325 427 325 427 327.5 427 c 128,-1,47
 330 427 330 427 330 427 c 1,48,49
 330 422 330 422 330.5 402 c 128,-1,50
 331 382 331 382 331.5 354.5 c 128,-1,51
 332 327 332 327 332.5 296 c 128,-1,52
 333 265 333 265 333 237.5 c 128,-1,53
 333 210 333 210 334 190 c 128,-1,54
 335 170 335 170 336 165 c 0,55,56
 336 160 336 160 341 150.5 c 128,-1,57
 346 141 346 141 352 132 c 128,-1,58
 358 123 358 123 365 116 c 128,-1,59
 372 109 372 109 376 109 c 2,60,-1
 546 109 l 1,61,62
 546 98 546 98 536.5 90 c 128,-1,63
 527 82 527 82 513 76 c 128,-1,64
 499 70 499 70 482 65.5 c 128,-1,65
 465 61 465 61 449 58.5 c 128,-1,66
 433 56 433 56 419 55 c 128,-1,67
 405 54 405 54 398 54 c 0,68,69
 358 54 358 54 331 72 c 128,-1,70
 304 90 304 90 281 122 c 1,71,72
 268 106 268 106 250.5 86 c 128,-1,73
 233 66 233 66 211.5 47.5 c 128,-1,74
 190 29 190 29 165.5 16 c 128,-1,75
 141 3 141 3 117 0 c 0,76,77
 86 -4 86 -4 67.5 4.5 c 128,-1,78
 49 13 49 13 38 28 c 128,-1,79
 27 43 27 43 23 64.5 c 128,-1,80
 19 86 19 86 19 111 c 0,0,1
EndSplineSet
EndChar

StartChar: b
Encoding: 98 98 69
Width: 472
Flags: W
LayerCount: 2
Fore
SplineSet
41 13 m 1,0,1
 40 31 40 31 39.5 68.5 c 128,-1,2
 39 106 39 106 37.5 153.5 c 128,-1,3
 36 201 36 201 34.5 253.5 c 128,-1,4
 33 306 33 306 32 353 c 128,-1,5
 31 400 31 400 29.5 437 c 128,-1,6
 28 474 28 474 28 492 c 2,7,-1
 28 507 l 2,8,9
 28 513 28 513 30 528.5 c 128,-1,10
 32 544 32 544 34 561.5 c 128,-1,11
 36 579 36 579 38 594 c 128,-1,12
 40 609 40 609 41 616 c 1,13,14
 41 616 41 616 44 616 c 128,-1,15
 47 616 47 616 49 616 c 0,16,17
 58 616 58 616 62.5 607 c 128,-1,18
 67 598 67 598 68 588 c 2,19,-1
 95 287 l 1,20,-1
 110 274 l 1,21,22
 155 327 155 327 212 349 c 128,-1,23
 269 371 269 371 338 371 c 0,24,25
 364 371 364 371 385.5 360 c 128,-1,26
 407 349 407 349 422 331 c 128,-1,27
 437 313 437 313 445.5 289.5 c 128,-1,28
 454 266 454 266 454 241 c 0,29,30
 454 191 454 191 435.5 153 c 128,-1,31
 417 115 417 115 386.5 88.5 c 128,-1,32
 356 62 356 62 316 45 c 128,-1,33
 276 28 276 28 233 17.5 c 128,-1,34
 190 7 190 7 145.5 3.5 c 128,-1,35
 101 0 101 0 61 0 c 0,36,37
 54 0 54 0 50.5 2 c 128,-1,38
 47 4 47 4 41 13 c 1,0,1
95 68 m 1,39,40
 97 60 97 60 103.5 57 c 128,-1,41
 110 54 110 54 117.5 53 c 128,-1,42
 125 52 125 52 132 52.5 c 128,-1,43
 139 53 139 53 143 53 c 0,44,45
 189 53 189 53 234.5 62 c 128,-1,46
 280 71 280 71 316.5 92.5 c 128,-1,47
 353 114 353 114 375.5 150 c 128,-1,48
 398 186 398 186 398 240 c 0,49,50
 398 264 398 264 386.5 282.5 c 128,-1,51
 375 301 375 301 355 314 c 1,52,53
 352 314 352 314 344 314.5 c 128,-1,54
 336 315 336 315 326 315.5 c 128,-1,55
 316 316 316 316 307 316.5 c 128,-1,56
 298 317 298 317 294 317 c 0,57,58
 236 317 236 317 199.5 296.5 c 128,-1,59
 163 276 163 276 141 242.5 c 128,-1,60
 119 209 119 209 109.5 164 c 128,-1,61
 100 119 100 119 95 68 c 1,39,40
EndSplineSet
EndChar

StartChar: c
Encoding: 99 99 70
Width: 514
Flags: W
LayerCount: 2
Fore
SplineSet
19 156 m 0,0,1
 19 184 19 184 25 219.5 c 128,-1,2
 31 255 31 255 43 291.5 c 128,-1,3
 55 328 55 328 72 363 c 128,-1,4
 89 398 89 398 111 425 c 128,-1,5
 133 452 133 452 160 468.5 c 128,-1,6
 187 485 187 485 220 485 c 2,7,-1
 245 485 l 2,8,9
 263 485 263 485 280 481.5 c 128,-1,10
 297 478 297 478 309.5 469 c 128,-1,11
 322 460 322 460 322 443 c 1,12,-1
 182 443 l 2,13,14
 168 443 168 443 155 426 c 128,-1,15
 142 409 142 409 130.5 383.5 c 128,-1,16
 119 358 119 358 108.5 327 c 128,-1,17
 98 296 98 296 91 267 c 128,-1,18
 84 238 84 238 79.5 215.5 c 128,-1,19
 75 193 75 193 75 184 c 0,20,21
 75 154 75 154 82.5 127.5 c 128,-1,22
 90 101 90 101 105 81.5 c 128,-1,23
 120 62 120 62 143 51 c 128,-1,24
 166 40 166 40 197 40 c 0,25,26
 233 40 233 40 265.5 49 c 128,-1,27
 298 58 298 58 326 71 c 128,-1,28
 354 84 354 84 378.5 99 c 128,-1,29
 403 114 403 114 423.5 127 c 128,-1,30
 444 140 444 140 460 148.5 c 128,-1,31
 476 157 476 157 490 157 c 1,32,33
 490 126 490 126 472 101.5 c 128,-1,34
 454 77 454 77 427 59.5 c 128,-1,35
 400 42 400 42 365 30.5 c 128,-1,36
 330 19 330 19 294 12 c 128,-1,37
 258 5 258 5 225.5 2 c 128,-1,38
 193 -1 193 -1 170 -1 c 0,39,40
 136 -1 136 -1 107.5 10.5 c 128,-1,41
 79 22 79 22 59.5 43.5 c 128,-1,42
 40 65 40 65 29.5 93.5 c 128,-1,43
 19 122 19 122 19 156 c 0,0,1
EndSplineSet
EndChar

StartChar: d
Encoding: 100 100 71
Width: 623
Flags: W
LayerCount: 2
Fore
SplineSet
287 150 m 1,0,1
 276 139 276 139 261.5 123 c 128,-1,2
 247 107 247 107 232 89.5 c 128,-1,3
 217 72 217 72 199.5 54.5 c 128,-1,4
 182 37 182 37 164.5 23 c 128,-1,5
 147 9 147 9 129.5 1 c 128,-1,6
 112 -7 112 -7 94 -7 c 0,7,8
 72 -7 72 -7 55.5 1 c 128,-1,9
 39 9 39 9 27.5 24 c 128,-1,10
 16 39 16 39 10 57.5 c 128,-1,11
 4 76 4 76 4 95 c 1,12,13
 1 121 1 121 6.5 158 c 128,-1,14
 12 195 12 195 25.5 235.5 c 128,-1,15
 39 276 39 276 59 315.5 c 128,-1,16
 79 355 79 355 104 387 c 128,-1,17
 129 419 129 419 158 438 c 128,-1,18
 187 457 187 457 218 457 c 0,19,20
 230 457 230 457 239.5 456.5 c 128,-1,21
 249 456 249 456 258.5 454.5 c 128,-1,22
 268 453 268 453 277.5 450 c 128,-1,23
 287 447 287 447 301 443 c 1,24,25
 309 452 309 452 312 461.5 c 128,-1,26
 315 471 315 471 315.5 481.5 c 128,-1,27
 316 492 316 492 315 503 c 128,-1,28
 314 514 314 514 314 525 c 0,29,30
 314 534 314 534 315.5 553 c 128,-1,31
 317 572 317 572 318 596.5 c 128,-1,32
 319 621 319 621 320.5 648 c 128,-1,33
 322 675 322 675 323.5 699.5 c 128,-1,34
 325 724 325 724 326.5 743 c 128,-1,35
 328 762 328 762 328 771 c 1,36,37
 328 771 328 771 331 771.5 c 128,-1,38
 334 772 334 772 336 772 c 0,39,40
 343 772 343 772 347.5 769 c 128,-1,41
 352 766 352 766 355 757 c 1,42,43
 358 741 358 741 357.5 701 c 128,-1,44
 357 661 357 661 355 607 c 128,-1,45
 353 553 353 553 350.5 489 c 128,-1,46
 348 425 348 425 347.5 361.5 c 128,-1,47
 347 298 347 298 351 238.5 c 128,-1,48
 355 179 355 179 365 134.5 c 128,-1,49
 375 90 375 90 392.5 64 c 128,-1,50
 410 38 410 38 438 40 c 0,51,52
 447 41 447 41 467 48 c 128,-1,53
 487 55 487 55 509.5 63 c 128,-1,54
 532 71 532 71 553.5 77.5 c 128,-1,55
 575 84 575 84 589 84 c 0,56,57
 590 84 590 84 595 83 c 128,-1,58
 600 82 600 82 602 82 c 1,59,60
 584 64 584 64 562 48.5 c 128,-1,61
 540 33 540 33 515 22 c 128,-1,62
 490 11 490 11 463 4.5 c 128,-1,63
 436 -2 436 -2 411 -2 c 0,64,65
 382 -2 382 -2 359.5 12 c 128,-1,66
 337 26 337 26 321.5 48 c 128,-1,67
 306 70 306 70 297 97 c 128,-1,68
 288 124 288 124 287 150 c 1,0,1
233 417 m 1,69,70
 190 403 190 403 157 372 c 128,-1,71
 124 341 124 341 100 303 c 128,-1,72
 76 265 76 265 62 223 c 128,-1,73
 48 181 48 181 43.5 143.5 c 128,-1,74
 39 106 39 106 43 77.5 c 128,-1,75
 47 49 47 49 61 39 c 1,76,77
 90 39 90 39 119 53 c 128,-1,78
 148 67 148 67 174.5 90 c 128,-1,79
 201 113 201 113 224 144 c 128,-1,80
 247 175 247 175 264.5 208 c 128,-1,81
 282 241 282 241 291.5 275.5 c 128,-1,82
 301 310 301 310 301 340 c 2,83,-1
 301 349 l 2,84,85
 301 356 301 356 301 364 c 128,-1,86
 301 372 301 372 301 378.5 c 128,-1,87
 301 385 301 385 301 387 c 0,88,89
 297 400 297 400 289.5 406.5 c 128,-1,90
 282 413 282 413 272.5 415.5 c 128,-1,91
 263 418 263 418 252 417.5 c 128,-1,92
 241 417 241 417 233 417 c 1,69,70
EndSplineSet
EndChar

StartChar: e
Encoding: 101 101 72
Width: 461
Flags: W
LayerCount: 2
Fore
SplineSet
39 301 m 0,0,1
 39 347 39 347 49.5 386.5 c 128,-1,2
 60 426 60 426 83 454 c 128,-1,3
 106 482 106 482 142.5 498 c 128,-1,4
 179 514 179 514 229 514 c 0,5,6
 258 514 258 514 279.5 509 c 128,-1,7
 301 504 301 504 315.5 491.5 c 128,-1,8
 330 479 330 479 337 458.5 c 128,-1,9
 344 438 344 438 344 408 c 0,10,11
 344 377 344 377 331.5 355.5 c 128,-1,12
 319 334 319 334 298 320 c 128,-1,13
 277 306 277 306 251 299 c 128,-1,14
 225 292 225 292 198 292 c 0,15,16
 193 292 193 292 184 290 c 128,-1,17
 175 288 175 288 163.5 285.5 c 128,-1,18
 152 283 152 283 140 280 c 128,-1,19
 128 277 128 277 117.5 276.5 c 128,-1,20
 107 276 107 276 100.5 277.5 c 128,-1,21
 94 279 94 279 94 286 c 0,22,23
 94 287 94 287 98.5 292.5 c 128,-1,24
 103 298 103 298 108 304 c 128,-1,25
 113 310 113 310 117 316 c 1,26,-1
 122 321 l 1,27,28
 149 325 149 325 180.5 327.5 c 128,-1,29
 212 330 212 330 238.5 338 c 128,-1,30
 265 346 265 346 283 364 c 128,-1,31
 301 382 301 382 301 417 c 0,32,33
 301 435 301 435 295.5 445.5 c 128,-1,34
 290 456 290 456 279.5 462 c 128,-1,35
 269 468 269 468 255 470 c 128,-1,36
 241 472 241 472 225 472 c 0,37,38
 190 472 190 472 164.5 460.5 c 128,-1,39
 139 449 139 449 124 428 c 128,-1,40
 109 407 109 407 101.5 378 c 128,-1,41
 94 349 94 349 94 314 c 0,42,43
 94 292 94 292 95 262.5 c 128,-1,44
 96 233 96 233 100.5 203 c 128,-1,45
 105 173 105 173 113 143.5 c 128,-1,46
 121 114 121 114 134.5 91 c 128,-1,47
 148 68 148 68 166.5 54 c 128,-1,48
 185 40 185 40 211 40 c 0,49,50
 216 40 216 40 226 42 c 128,-1,51
 236 44 236 44 246.5 46.5 c 128,-1,52
 257 49 257 49 266.5 51 c 128,-1,53
 276 53 276 53 281 55 c 0,54,55
 289 58 289 58 305 65 c 128,-1,56
 321 72 321 72 341.5 81 c 128,-1,57
 362 90 362 90 384 101 c 128,-1,58
 406 112 406 112 426 121 c 128,-1,59
 446 130 446 130 462.5 138.5 c 128,-1,60
 479 147 479 147 486 150 c 1,61,62
 487 149 487 149 487 144 c 128,-1,63
 487 139 487 139 487 137 c 0,64,65
 487 119 487 119 469.5 101.5 c 128,-1,66
 452 84 452 84 425 68.5 c 128,-1,67
 398 53 398 53 364 40 c 128,-1,68
 330 27 330 27 299 18 c 128,-1,69
 268 9 268 9 242 3.5 c 128,-1,70
 216 -2 216 -2 203 -2 c 0,71,72
 172 -2 172 -2 147 12 c 128,-1,73
 122 26 122 26 104 50 c 128,-1,74
 86 74 86 74 73 105 c 128,-1,75
 60 136 60 136 52.5 169 c 128,-1,76
 45 202 45 202 42 236.5 c 128,-1,77
 39 271 39 271 39 301 c 0,0,1
EndSplineSet
EndChar

StartChar: f
Encoding: 102 102 73
Width: 499
Flags: W
LayerCount: 2
Fore
SplineSet
20 -208 m 0,0,1
 20 -207 20 -207 20 -201.5 c 128,-1,2
 20 -196 20 -196 20 -194 c 1,3,4
 22 -196 22 -196 26 -198 c 128,-1,5
 30 -200 30 -200 34.5 -202 c 128,-1,6
 39 -204 39 -204 43 -205.5 c 128,-1,7
 47 -207 47 -207 48 -208 c 256,8,9
 49 -209 49 -209 50 -209 c 2,10,-1
 55 -209 l 2,11,12
 87 -209 87 -209 109 -190.5 c 128,-1,13
 131 -172 131 -172 145.5 -143.5 c 128,-1,14
 160 -115 160 -115 168 -79.5 c 128,-1,15
 176 -44 176 -44 180 -8.5 c 128,-1,16
 184 27 184 27 184.5 58 c 128,-1,17
 185 89 185 89 185 109 c 2,18,-1
 185 143 l 2,19,20
 185 167 185 167 183.5 197.5 c 128,-1,21
 182 228 182 228 178.5 260 c 128,-1,22
 175 292 175 292 168.5 319 c 128,-1,23
 162 346 162 346 151 364 c 128,-1,24
 140 382 140 382 124 382 c 0,25,26
 112 382 112 382 100.5 379 c 128,-1,27
 89 376 89 376 77.5 373 c 128,-1,28
 66 370 66 370 54.5 367 c 128,-1,29
 43 364 43 364 31 364 c 1,30,31
 31 384 31 384 45 394.5 c 128,-1,32
 59 405 59 405 78 411.5 c 128,-1,33
 97 418 97 418 115.5 426 c 128,-1,34
 134 434 134 434 143 449 c 1,35,36
 136 468 136 468 133 485.5 c 128,-1,37
 130 503 130 503 129 520.5 c 128,-1,38
 128 538 128 538 128 555 c 2,39,-1
 128 593 l 2,40,41
 128 627 128 627 131.5 666.5 c 128,-1,42
 135 706 135 706 148.5 740.5 c 128,-1,43
 162 775 162 775 188 797.5 c 128,-1,44
 214 820 214 820 259 820 c 0,45,46
 269 820 269 820 286.5 818.5 c 128,-1,47
 304 817 304 817 321 812.5 c 128,-1,48
 338 808 338 808 351 800 c 128,-1,49
 364 792 364 792 364 778 c 0,50,51
 364 776 364 776 363.5 770.5 c 128,-1,52
 363 765 363 765 363 764 c 1,53,54
 357 766 357 766 343 769.5 c 128,-1,55
 329 773 329 773 314 777.5 c 128,-1,56
 299 782 299 782 285 785.5 c 128,-1,57
 271 789 271 789 265 791 c 2,58,59
 265 791 265 791 263 791.5 c 128,-1,60
 261 792 261 792 260 792 c 0,61,62
 239 792 239 792 225 781 c 128,-1,63
 211 770 211 770 203 753.5 c 128,-1,64
 195 737 195 737 190.5 716 c 128,-1,65
 186 695 186 695 184.5 674.5 c 128,-1,66
 183 654 183 654 183 635 c 2,67,-1
 183 607 l 2,68,69
 183 590 183 590 182.5 571.5 c 128,-1,70
 182 553 182 553 183 535 c 128,-1,71
 184 517 184 517 187 498 c 128,-1,72
 190 479 190 479 198 463 c 1,73,-1
 211 463 l 2,74,75
 246 463 246 463 280 465.5 c 128,-1,76
 314 468 314 468 348 471 c 128,-1,77
 382 474 382 474 416.5 477 c 128,-1,78
 451 480 451 480 485 480 c 1,79,-1
 485 449 l 1,80,-1
 225 408 l 2,81,82
 216 406 216 406 213.5 400.5 c 128,-1,83
 211 395 211 395 211 388 c 0,84,85
 211 355 211 355 215.5 322.5 c 128,-1,86
 220 290 220 290 225 257.5 c 128,-1,87
 230 225 230 225 235 192.5 c 128,-1,88
 240 160 240 160 240 127 c 0,89,90
 240 100 240 100 239 61 c 128,-1,91
 238 22 238 22 233.5 -19.5 c 128,-1,92
 229 -61 229 -61 219.5 -102 c 128,-1,93
 210 -143 210 -143 192 -176.5 c 128,-1,94
 174 -210 174 -210 145 -230 c 128,-1,95
 116 -250 116 -250 75 -250 c 0,96,97
 66 -250 66 -250 56 -247.5 c 128,-1,98
 46 -245 46 -245 38 -239.5 c 128,-1,99
 30 -234 30 -234 25 -226 c 128,-1,100
 20 -218 20 -218 20 -208 c 0,0,1
EndSplineSet
EndChar

StartChar: g
Encoding: 103 103 74
Width: 452
Flags: W
LayerCount: 2
Fore
SplineSet
40 -302 m 0,0,1
 40 -288 40 -288 42.5 -280 c 128,-1,2
 45 -272 45 -272 55 -260 c 1,3,4
 83 -311 83 -311 122 -334.5 c 128,-1,5
 161 -358 161 -358 220 -358 c 0,6,7
 222 -358 222 -358 230 -357.5 c 128,-1,8
 238 -357 238 -357 247 -356.5 c 128,-1,9
 256 -356 256 -356 263.5 -356 c 128,-1,10
 271 -356 271 -356 274 -356 c 1,11,12
 308 -329 308 -329 327 -292.5 c 128,-1,13
 346 -256 346 -256 355.5 -215 c 128,-1,14
 365 -174 365 -174 368 -131 c 128,-1,15
 371 -88 371 -88 371 -48 c 0,16,17
 371 -26 371 -26 370.5 -8 c 128,-1,18
 370 10 370 10 368 27 c 128,-1,19
 366 44 366 44 363 63.5 c 128,-1,20
 360 83 360 83 355 109 c 1,21,22
 355 109 355 109 353 110 c 128,-1,23
 351 111 351 111 349 111 c 0,24,25
 341 111 341 111 322.5 98 c 128,-1,26
 304 85 304 85 279 68.5 c 128,-1,27
 254 52 254 52 223.5 39 c 128,-1,28
 193 26 193 26 162 26 c 0,29,30
 149 26 149 26 135.5 29.5 c 128,-1,31
 122 33 122 33 111.5 40 c 128,-1,32
 101 47 101 47 93 57.5 c 128,-1,33
 85 68 85 68 82 82 c 0,34,35
 82 86 82 86 82 96.5 c 128,-1,36
 82 107 82 107 81.5 119 c 128,-1,37
 81 131 81 131 81 142 c 2,38,-1
 81 157 l 2,39,40
 81 187 81 187 84 222 c 128,-1,41
 87 257 87 257 94 293.5 c 128,-1,42
 101 330 101 330 113 364.5 c 128,-1,43
 125 399 125 399 143.5 425.5 c 128,-1,44
 162 452 162 452 187 467.5 c 128,-1,45
 212 483 212 483 246 483 c 0,46,47
 292 483 292 483 334 468 c 128,-1,48
 376 453 376 453 406 413 c 1,49,50
 410 361 410 361 413.5 303 c 128,-1,51
 417 245 417 245 419.5 187 c 128,-1,52
 422 129 422 129 423.5 74.5 c 128,-1,53
 425 20 425 20 425 -24 c 0,54,55
 425 -61 425 -61 423 -104 c 128,-1,56
 421 -147 421 -147 414 -189.5 c 128,-1,57
 407 -232 407 -232 393 -272 c 128,-1,58
 379 -312 379 -312 355 -343 c 128,-1,59
 331 -374 331 -374 296.5 -392 c 128,-1,60
 262 -410 262 -410 212 -410 c 0,61,62
 193 -410 193 -410 163.5 -403.5 c 128,-1,63
 134 -397 134 -397 106.5 -383.5 c 128,-1,64
 79 -370 79 -370 59.5 -349.5 c 128,-1,65
 40 -329 40 -329 40 -302 c 0,0,1
138 95 m 1,66,67
 140 92 140 92 145 87 c 128,-1,68
 150 82 150 82 156.5 78 c 128,-1,69
 163 74 163 74 168.5 71 c 128,-1,70
 174 68 174 68 178 68 c 0,71,72
 202 68 202 68 224.5 83 c 128,-1,73
 247 98 247 98 266.5 123 c 128,-1,74
 286 148 286 148 302 179.5 c 128,-1,75
 318 211 318 211 329 244 c 128,-1,76
 340 277 340 277 346 307.5 c 128,-1,77
 352 338 352 338 352 363 c 0,78,79
 352 385 352 385 344.5 402 c 128,-1,80
 337 419 337 419 323 431.5 c 128,-1,81
 309 444 309 444 290 449 c 128,-1,82
 271 454 271 454 248 454 c 256,83,84
 225 454 225 454 207.5 437.5 c 128,-1,85
 190 421 190 421 178 394.5 c 128,-1,86
 166 368 166 368 157.5 334.5 c 128,-1,87
 149 301 149 301 144 269.5 c 128,-1,88
 139 238 139 238 137.5 210 c 128,-1,89
 136 182 136 182 136 165 c 0,90,91
 136 160 136 160 136 150.5 c 128,-1,92
 136 141 136 141 136.5 130.5 c 128,-1,93
 137 120 137 120 137.5 110 c 128,-1,94
 138 100 138 100 138 95 c 1,66,67
EndSplineSet
EndChar

StartChar: h
Encoding: 104 104 75
Width: 601
Flags: W
LayerCount: 2
Fore
SplineSet
370 137 m 1,0,1
 368 145 368 145 365.5 162 c 128,-1,2
 363 179 363 179 359 200.5 c 128,-1,3
 355 222 355 222 350.5 246 c 128,-1,4
 346 270 346 270 341.5 291.5 c 128,-1,5
 337 313 337 313 333.5 330 c 128,-1,6
 330 347 330 347 328 355 c 0,7,8
 325 373 325 373 320.5 387.5 c 128,-1,9
 316 402 316 402 307.5 413.5 c 128,-1,10
 299 425 299 425 286.5 431.5 c 128,-1,11
 274 438 274 438 254 438 c 0,12,13
 239 438 239 438 222.5 427 c 128,-1,14
 206 416 206 416 191 401.5 c 128,-1,15
 176 387 176 387 165 373.5 c 128,-1,16
 154 360 154 360 150 355 c 0,17,18
 125 328 125 328 112 286 c 128,-1,19
 99 244 99 244 92.5 198 c 128,-1,20
 86 152 86 152 85 107.5 c 128,-1,21
 84 63 84 63 82 28 c 1,22,-1
 41 13 l 1,23,-1
 41 643 l 2,24,25
 41 648 41 648 42.5 661.5 c 128,-1,26
 44 675 44 675 46.5 690.5 c 128,-1,27
 49 706 49 706 51.5 719.5 c 128,-1,28
 54 733 54 733 55 739 c 0,29,30
 56 742 56 742 61 746.5 c 128,-1,31
 66 751 66 751 68 752 c 1,32,-1
 82 739 l 1,33,-1
 110 397 l 1,34,-1
 123 397 l 1,35,36
 136 409 136 409 153 423 c 128,-1,37
 170 437 170 437 190 450 c 128,-1,38
 210 463 210 463 231.5 471 c 128,-1,39
 253 479 253 479 274 479 c 0,40,41
 311 479 311 479 333 461 c 128,-1,42
 355 443 355 443 368.5 412.5 c 128,-1,43
 382 382 382 382 388.5 344 c 128,-1,44
 395 306 395 306 402 266 c 128,-1,45
 409 226 409 226 417.5 187.5 c 128,-1,46
 426 149 426 149 442.5 119.5 c 128,-1,47
 459 90 459 90 486.5 71.5 c 128,-1,48
 514 53 514 53 557 53 c 0,49,50
 579 53 579 53 595 54 c 128,-1,51
 611 55 611 55 627 59 c 128,-1,52
 643 63 643 63 659.5 71.5 c 128,-1,53
 676 80 676 80 697 95 c 1,54,55
 697 95 697 95 697.5 92.5 c 128,-1,56
 698 90 698 90 698 89 c 0,57,58
 698 73 698 73 679.5 56.5 c 128,-1,59
 661 40 661 40 635.5 27 c 128,-1,60
 610 14 610 14 583.5 6 c 128,-1,61
 557 -2 557 -2 540 -2 c 0,62,63
 507 -2 507 -2 482 10 c 128,-1,64
 457 22 457 22 437 42 c 128,-1,65
 417 62 417 62 400.5 87 c 128,-1,66
 384 112 384 112 370 137 c 1,0,1
EndSplineSet
EndChar

StartChar: i
Encoding: 105 105 76
Width: 284
Flags: W
LayerCount: 2
Fore
SplineSet
21 220 m 1,0,1
 22 228 22 228 22.5 246 c 128,-1,2
 23 264 23 264 24.5 287 c 128,-1,3
 26 310 26 310 27.5 335 c 128,-1,4
 29 360 29 360 30 383 c 128,-1,5
 31 406 31 406 32 424.5 c 128,-1,6
 33 443 33 443 34 452 c 1,7,8
 39 460 39 460 43.5 462.5 c 128,-1,9
 48 465 48 465 55 465 c 0,10,11
 56 465 56 465 58 465 c 128,-1,12
 60 465 60 465 61 465 c 0,13,14
 71 436 71 436 71.5 394 c 128,-1,15
 72 352 72 352 71.5 304.5 c 128,-1,16
 71 257 71 257 72.5 210 c 128,-1,17
 74 163 74 163 84.5 125 c 128,-1,18
 95 87 95 87 118 63.5 c 128,-1,19
 141 40 141 40 184 40 c 0,20,21
 229 40 229 40 262 58 c 128,-1,22
 295 76 295 76 322 109 c 1,23,24
 322 108 322 108 323 102.5 c 128,-1,25
 324 97 324 97 324 95 c 0,26,27
 324 73 324 73 305.5 55 c 128,-1,28
 287 37 287 37 262 24.5 c 128,-1,29
 237 12 237 12 209.5 5.5 c 128,-1,30
 182 -1 182 -1 165 -1 c 0,31,32
 120 -1 120 -1 92 16 c 128,-1,33
 64 33 64 33 48 62 c 128,-1,34
 32 91 32 91 26.5 128 c 128,-1,35
 21 165 21 165 21 204 c 2,36,-1
 21 220 l 1,0,1
55 576 m 0,37,38
 39 576 39 576 32.5 585.5 c 128,-1,39
 26 595 26 595 28.5 607 c 128,-1,40
 31 619 31 619 39 629 c 128,-1,41
 47 639 47 639 59 639 c 0,42,43
 76 639 76 639 85 629 c 128,-1,44
 94 619 94 619 94.5 607 c 128,-1,45
 95 595 95 595 85.5 585.5 c 128,-1,46
 76 576 76 576 55 576 c 0,37,38
EndSplineSet
EndChar

StartChar: j
Encoding: 106 106 77
Width: 176
Flags: W
LayerCount: 2
Fore
SplineSet
-197 -294 m 0,0,1
 -197 -293 -197 -293 -196.5 -288 c 128,-1,2
 -196 -283 -196 -283 -196 -281 c 1,3,4
 -175 -295 -175 -295 -161 -311 c 128,-1,5
 -147 -327 -147 -327 -135 -342 c 128,-1,6
 -123 -357 -123 -357 -112.5 -371 c 128,-1,7
 -102 -385 -102 -385 -85.5 -396 c 128,-1,8
 -69 -407 -69 -407 -47 -413 c 128,-1,9
 -25 -419 -25 -419 9 -419 c 0,10,11
 41 -419 41 -419 63 -409 c 128,-1,12
 85 -399 85 -399 98.5 -381.5 c 128,-1,13
 112 -364 112 -364 120 -340.5 c 128,-1,14
 128 -317 128 -317 131 -291 c 128,-1,15
 134 -265 134 -265 134.5 -237.5 c 128,-1,16
 135 -210 135 -210 135 -185 c 0,17,18
 135 -176 135 -176 134 -161 c 2,19,-1
 133 -131 l 2,20,21
 133 -115 133 -115 132.5 -103 c 128,-1,22
 132 -91 132 -91 132 -89 c 2,23,-1
 49 417 l 1,24,-1
 49 449 l 1,25,26
 55 449 55 449 62 445.5 c 128,-1,27
 69 442 69 442 75.5 437 c 128,-1,28
 82 432 82 432 86 426.5 c 128,-1,29
 90 421 90 421 91 417 c 2,30,-1
 186 -89 l 1,31,-1
 186 -308 l 2,32,33
 186 -337 186 -337 171.5 -366.5 c 128,-1,34
 157 -396 157 -396 134 -419.5 c 128,-1,35
 111 -443 111 -443 82 -458 c 128,-1,36
 53 -473 53 -473 25 -473 c 0,37,38
 -12 -473 -12 -473 -51 -460 c 128,-1,39
 -90 -447 -90 -447 -122.5 -424 c 128,-1,40
 -155 -401 -155 -401 -176 -368.5 c 128,-1,41
 -197 -336 -197 -336 -197 -294 c 0,0,1
25 589 m 0,42,43
 21 589 21 589 16.5 601 c 128,-1,44
 12 613 12 613 10.5 627.5 c 128,-1,45
 9 642 9 642 13.5 654 c 128,-1,46
 18 666 18 666 31 666 c 0,47,48
 54 666 54 666 61.5 654 c 128,-1,49
 69 642 69 642 66 627.5 c 128,-1,50
 63 613 63 613 52 601 c 128,-1,51
 41 589 41 589 25 589 c 0,42,43
EndSplineSet
EndChar

StartChar: k
Encoding: 107 107 78
Width: 616
Flags: W
LayerCount: 2
Fore
SplineSet
120 303 m 0,0,1
 116 303 116 303 109.5 302 c 128,-1,2
 103 301 103 301 103 301 c 1,3,-1
 76 68 l 2,4,5
 74 56 74 56 69 48.5 c 128,-1,6
 64 41 64 41 56.5 37 c 128,-1,7
 49 33 49 33 39 32 c 128,-1,8
 29 31 29 31 18 31 c 1,9,10
 18 64 18 64 21.5 91 c 128,-1,11
 25 118 25 118 34 150 c 1,12,-1
 34 688 l 1,13,14
 40 688 40 688 47.5 684.5 c 128,-1,15
 55 681 55 681 61 675.5 c 128,-1,16
 67 670 67 670 71.5 665 c 128,-1,17
 76 660 76 660 76 657 c 2,18,-1
 103 363 l 1,19,-1
 391 534 l 1,20,-1
 422 534 l 1,21,22
 422 514 422 514 405.5 496.5 c 128,-1,23
 389 479 389 479 363 462.5 c 128,-1,24
 337 446 337 446 306 432 c 128,-1,25
 275 418 275 418 247.5 404.5 c 128,-1,26
 220 391 220 391 198.5 378.5 c 128,-1,27
 177 366 177 366 171 355 c 1,28,29
 205 333 205 333 230 300.5 c 128,-1,30
 255 268 255 268 276.5 233 c 128,-1,31
 298 198 298 198 319 163 c 128,-1,32
 340 128 340 128 367.5 101 c 128,-1,33
 395 74 395 74 430 56.5 c 128,-1,34
 465 39 465 39 516 39 c 0,35,36
 529 39 529 39 539 44 c 128,-1,37
 549 49 549 49 559 55 c 128,-1,38
 569 61 569 61 579 66 c 128,-1,39
 589 71 589 71 602 71 c 1,40,41
 602 49 602 49 591.5 35 c 128,-1,42
 581 21 581 21 566 12.5 c 128,-1,43
 551 4 551 4 532.5 1 c 128,-1,44
 514 -2 514 -2 496 -2 c 0,45,46
 446 -2 446 -2 409.5 11.5 c 128,-1,47
 373 25 373 25 346 46 c 128,-1,48
 319 67 319 67 300 94.5 c 128,-1,49
 281 122 281 122 265 150.5 c 128,-1,50
 249 179 249 179 234.5 207 c 128,-1,51
 220 235 220 235 204 256 c 128,-1,52
 188 277 188 277 168 290 c 128,-1,53
 148 303 148 303 120 303 c 0,0,1
EndSplineSet
EndChar

StartChar: l
Encoding: 108 108 79
Width: 152
Flags: W
LayerCount: 2
Fore
SplineSet
39 570 m 0,0,1
 39 580 39 580 40 598 c 128,-1,2
 41 616 41 616 42.5 633.5 c 128,-1,3
 44 651 44 651 45.5 664 c 128,-1,4
 47 677 47 677 47 679 c 1,5,-1
 75 704 l 1,6,-1
 87 690 l 2,7,8
 87 689 87 689 88.5 671.5 c 128,-1,9
 90 654 90 654 91 623.5 c 128,-1,10
 92 593 92 593 93 552 c 128,-1,11
 94 511 94 511 96 465 c 128,-1,12
 98 419 98 419 99.5 370.5 c 128,-1,13
 101 322 101 322 102 275.5 c 128,-1,14
 103 229 103 229 104 187.5 c 128,-1,15
 105 146 105 146 106 114 c 1,16,-1
 106 106 l 2,17,18
 106 101 106 101 105.5 93 c 128,-1,19
 105 85 105 85 104.5 78 c 128,-1,20
 104 71 104 71 104 66 c 0,21,22
 104 63 104 63 103.5 56 c 128,-1,23
 103 49 103 49 103 41.5 c 128,-1,24
 103 34 103 34 103 28 c 128,-1,25
 103 22 103 22 103 19 c 1,26,27
 101 17 101 17 97 15 c 128,-1,28
 93 13 93 13 89 11 c 128,-1,29
 85 9 85 9 80.5 7.5 c 128,-1,30
 76 6 76 6 74 6 c 0,31,32
 71 6 71 6 66.5 11.5 c 128,-1,33
 62 17 62 17 60 21 c 0,34,35
 59 23 59 23 57.5 31 c 128,-1,36
 56 39 56 39 54 48 c 128,-1,37
 52 57 52 57 50.5 64.5 c 128,-1,38
 49 72 49 72 49 76 c 0,39,40
 49 90 49 90 47.5 118 c 128,-1,41
 46 146 46 146 44 179 c 128,-1,42
 42 212 42 212 41 248 c 128,-1,43
 40 284 40 284 38.5 315 c 128,-1,44
 37 346 37 346 36 370.5 c 128,-1,45
 35 395 35 395 35 404 c 2,46,-1
 35 418 l 2,47,48
 35 429 35 429 35.5 444.5 c 128,-1,49
 36 460 36 460 36 478 c 128,-1,50
 36 496 36 496 36.5 513 c 128,-1,51
 37 530 37 530 37.5 545 c 128,-1,52
 38 560 38 560 39 570 c 0,0,1
EndSplineSet
EndChar

StartChar: m
Encoding: 109 109 80
Width: 761
Flags: W
LayerCount: 2
Fore
SplineSet
519 466 m 1,0,1
 473 463 473 463 443.5 438 c 128,-1,2
 414 413 414 413 396.5 375.5 c 128,-1,3
 379 338 379 338 370.5 293 c 128,-1,4
 362 248 362 248 359.5 204 c 128,-1,5
 357 160 357 160 358.5 120.5 c 128,-1,6
 360 81 360 81 363 55 c 1,7,-1
 310 58 l 1,8,9
 310 63 310 63 309 83.5 c 128,-1,10
 308 104 308 104 306 132.5 c 128,-1,11
 304 161 304 161 302.5 193 c 128,-1,12
 301 225 301 225 299.5 253.5 c 128,-1,13
 298 282 298 282 296.5 302 c 128,-1,14
 295 322 295 322 294 328 c 0,15,16
 292 343 292 343 287 366.5 c 128,-1,17
 282 390 282 390 271.5 412 c 128,-1,18
 261 434 261 434 246.5 450 c 128,-1,19
 232 466 232 466 213 466 c 0,20,21
 190 466 190 466 172 455.5 c 128,-1,22
 154 445 154 445 141 427.5 c 128,-1,23
 128 410 128 410 118.5 387.5 c 128,-1,24
 109 365 109 365 103 342 c 128,-1,25
 97 319 97 319 93.5 297.5 c 128,-1,26
 90 276 90 276 89 260 c 0,27,28
 88 252 88 252 87 236 c 128,-1,29
 86 220 86 220 84.5 199.5 c 128,-1,30
 83 179 83 179 81.5 157 c 128,-1,31
 80 135 80 135 78.5 114.5 c 128,-1,32
 77 94 77 94 76.5 78 c 128,-1,33
 76 62 76 62 76 55 c 1,34,-1
 34 55 l 1,35,36
 31 109 31 109 28 149.5 c 128,-1,37
 25 190 25 190 23.5 225 c 128,-1,38
 22 260 22 260 21 296 c 128,-1,39
 20 332 20 332 20 376 c 2,40,-1
 20 391 l 2,41,42
 20 402 20 402 20.5 414 c 128,-1,43
 21 426 21 426 21 436 c 2,44,-1
 21 452 l 1,45,46
 24 463 24 463 31 474.5 c 128,-1,47
 38 486 38 486 49 492 c 0,48,49
 51 492 51 492 55.5 486.5 c 128,-1,50
 60 481 60 481 61 479 c 0,51,52
 63 475 63 475 65 465 c 128,-1,53
 67 455 67 455 69 444.5 c 128,-1,54
 71 434 71 434 73.5 424 c 128,-1,55
 76 414 76 414 76 410 c 0,56,57
 76 409 76 409 78.5 409 c 128,-1,58
 81 409 81 409 82 409 c 0,59,60
 85 409 85 409 92 416.5 c 128,-1,61
 99 424 99 424 109.5 434.5 c 128,-1,62
 120 445 120 445 133 458 c 128,-1,63
 146 471 146 471 160 481.5 c 128,-1,64
 174 492 174 492 189 500 c 128,-1,65
 204 508 204 508 220 508 c 0,66,67
 241 508 241 508 259 497 c 128,-1,68
 277 486 277 486 291 470 c 128,-1,69
 305 454 305 454 316 434 c 128,-1,70
 327 414 327 414 336 397 c 1,71,72
 370 454 370 454 422.5 481 c 128,-1,73
 475 508 475 508 541 508 c 1,74,75
 584 492 584 492 609 460 c 128,-1,76
 634 428 634 428 647.5 387 c 128,-1,77
 661 346 661 346 665.5 300 c 128,-1,78
 670 254 670 254 672.5 210 c 128,-1,79
 675 166 675 166 679 129.5 c 128,-1,80
 683 93 683 93 695 71 c 128,-1,81
 707 49 707 49 730.5 45 c 128,-1,82
 754 41 754 41 796 63 c 1,83,84
 792 54 792 54 792.5 46 c 128,-1,85
 793 38 793 38 794 32 c 128,-1,86
 795 26 795 26 793.5 23 c 128,-1,87
 792 20 792 20 784 20 c 1,88,89
 739 -4 739 -4 710 4 c 128,-1,90
 681 12 681 12 663.5 40 c 128,-1,91
 646 68 646 68 636 112.5 c 128,-1,92
 626 157 626 157 620 206.5 c 128,-1,93
 614 256 614 256 608 305 c 128,-1,94
 602 354 602 354 591.5 391.5 c 128,-1,95
 581 429 581 429 564.5 450.5 c 128,-1,96
 548 472 548 472 519 466 c 1,0,1
EndSplineSet
EndChar

StartChar: n
Encoding: 110 110 81
Width: 609
Flags: W
LayerCount: 2
Fore
SplineSet
268 481 m 0,0,1
 247 481 247 481 219 467.5 c 128,-1,2
 191 454 191 454 165 433.5 c 128,-1,3
 139 413 139 413 121 388.5 c 128,-1,4
 103 364 103 364 103 342 c 2,5,-1
 103 40 l 2,6,7
 103 36 103 36 98.5 33.5 c 128,-1,8
 94 31 94 31 88.5 29.5 c 128,-1,9
 83 28 83 28 77 27.5 c 128,-1,10
 71 27 71 27 68 27 c 0,11,12
 55 27 55 27 49 31.5 c 128,-1,13
 43 36 43 36 41.5 44 c 128,-1,14
 40 52 40 52 40.5 62 c 128,-1,15
 41 72 41 72 41 82 c 1,16,17
 40 90 40 90 39 117 c 2,18,-1
 37 178 l 2,19,20
 36 213 36 213 34.5 252.5 c 128,-1,21
 33 292 33 292 32 327.5 c 128,-1,22
 31 363 31 363 29.5 389.5 c 128,-1,23
 28 416 28 416 28 425 c 2,24,-1
 28 463 l 2,25,26
 28 469 28 469 30 474 c 128,-1,27
 32 479 32 479 38 483.5 c 128,-1,28
 44 488 44 488 55 492 c 1,29,30
 58 492 58 492 62.5 486.5 c 128,-1,31
 67 481 67 481 68 479 c 0,32,33
 69 475 69 475 71.5 465 c 128,-1,34
 74 455 74 455 76 444.5 c 128,-1,35
 78 434 78 434 80 424 c 128,-1,36
 82 414 82 414 82 410 c 1,37,38
 83 409 83 409 85 409 c 128,-1,39
 87 409 87 409 89 409 c 0,40,41
 103 409 103 409 122.5 426.5 c 128,-1,42
 142 444 142 444 167.5 465 c 128,-1,43
 193 486 193 486 221 503.5 c 128,-1,44
 249 521 249 521 280 521 c 0,45,46
 319 521 319 521 341.5 500.5 c 128,-1,47
 364 480 364 480 374.5 445.5 c 128,-1,48
 385 411 385 411 388.5 368 c 128,-1,49
 392 325 392 325 394.5 280.5 c 128,-1,50
 397 236 397 236 402 192.5 c 128,-1,51
 407 149 407 149 421 115 c 128,-1,52
 435 81 435 81 461.5 60.5 c 128,-1,53
 488 40 488 40 534 40 c 0,54,55
 549 40 549 40 564.5 42 c 128,-1,56
 580 44 580 44 595 47 c 128,-1,57
 610 50 610 50 625.5 52.5 c 128,-1,58
 641 55 641 55 657 55 c 0,59,60
 659 55 659 55 664.5 55 c 128,-1,61
 670 55 670 55 670 55 c 1,62,63
 634 28 634 28 597 13.5 c 128,-1,64
 560 -1 560 -1 513 -1 c 0,65,66
 463 -1 463 -1 432.5 19.5 c 128,-1,67
 402 40 402 40 384 74.5 c 128,-1,68
 366 109 366 109 359 152 c 128,-1,69
 352 195 352 195 348 239.5 c 128,-1,70
 344 284 344 284 342 327.5 c 128,-1,71
 340 371 340 371 333 405 c 128,-1,72
 326 439 326 439 311 460 c 128,-1,73
 296 481 296 481 268 481 c 0,0,1
EndSplineSet
EndChar

StartChar: o
Encoding: 111 111 82
Width: 431
Flags: W
LayerCount: 2
Fore
SplineSet
21 144 m 1,0,1
 24 182 24 182 32 222.5 c 128,-1,2
 40 263 40 263 54 300.5 c 128,-1,3
 68 338 68 338 89 371 c 128,-1,4
 110 404 110 404 139 428.5 c 128,-1,5
 168 453 168 453 206 465.5 c 128,-1,6
 244 478 244 478 292 474 c 1,7,8
 357 418 357 418 385 360.5 c 128,-1,9
 413 303 413 303 413.5 250.5 c 128,-1,10
 414 198 414 198 392.5 152 c 128,-1,11
 371 106 371 106 336.5 72.5 c 128,-1,12
 302 39 302 39 260 19 c 128,-1,13
 218 -1 218 -1 178 -1 c 0,14,15
 147 -1 147 -1 118.5 8.5 c 128,-1,16
 90 18 90 18 68.5 36.5 c 128,-1,17
 47 55 47 55 34 82 c 128,-1,18
 21 109 21 109 21 144 c 1,0,1
365 247 m 0,19,20
 365 277 365 277 360.5 302 c 128,-1,21
 356 327 356 327 346 348 c 128,-1,22
 336 369 336 369 319.5 388.5 c 128,-1,23
 303 408 303 408 279 427 c 1,24,-1
 277 419 l 1,25,26
 241 422 241 422 204 402 c 128,-1,27
 167 382 167 382 137 346 c 128,-1,28
 107 310 107 310 89 261 c 128,-1,29
 71 212 71 212 75 157 c 1,30,31
 75 124 75 124 88 99 c 128,-1,32
 101 74 101 74 130 55 c 1,33,34
 133 55 133 55 141 54.5 c 128,-1,35
 149 54 149 54 157.5 54 c 128,-1,36
 166 54 166 54 174 53.5 c 128,-1,37
 182 53 182 53 184 53 c 0,38,39
 229 53 229 53 263 66.5 c 128,-1,40
 297 80 297 80 319.5 105 c 128,-1,41
 342 130 342 130 353.5 166 c 128,-1,42
 365 202 365 202 365 247 c 0,19,20
EndSplineSet
EndChar

StartChar: p
Encoding: 112 112 83
Width: 465
Flags: W
LayerCount: 2
Fore
SplineSet
28 -493 m 1,0,1
 28 -479 28 -479 27.5 -449.5 c 128,-1,2
 27 -420 27 -420 27 -383 c 128,-1,3
 27 -346 27 -346 26.5 -305 c 128,-1,4
 26 -264 26 -264 26 -227 c 2,5,-1
 26 -117 l 2,6,7
 26 -79 26 -79 25 -29 c 128,-1,8
 24 21 24 21 23 76.5 c 128,-1,9
 22 132 22 132 22 191 c 128,-1,10
 22 250 22 250 22.5 307.5 c 128,-1,11
 23 365 23 365 26.5 417.5 c 128,-1,12
 30 470 30 470 35 512 c 0,13,14
 36 513 36 513 42 513.5 c 128,-1,15
 48 514 48 514 49 514 c 0,16,17
 63 514 63 514 72.5 507.5 c 128,-1,18
 82 501 82 501 90 485 c 1,19,20
 121 487 121 487 158.5 489 c 128,-1,21
 196 491 196 491 234.5 490 c 128,-1,22
 273 489 273 489 308.5 482 c 128,-1,23
 344 475 344 475 372 458.5 c 128,-1,24
 400 442 400 442 416.5 413.5 c 128,-1,25
 433 385 433 385 433 341 c 1,26,27
 428 242 428 242 396.5 173.5 c 128,-1,28
 365 105 365 105 316.5 67 c 128,-1,29
 268 29 268 29 208.5 20.5 c 128,-1,30
 149 12 149 12 90 31 c 1,31,-1
 89 -438 l 2,32,33
 89 -441 89 -441 86.5 -452.5 c 128,-1,34
 84 -464 84 -464 79 -476 c 128,-1,35
 74 -488 74 -488 66 -498 c 128,-1,36
 58 -508 58 -508 49 -508 c 0,37,38
 35 -508 35 -508 28 -493 c 1,0,1
75 367 m 2,39,40
 75 336 75 336 76.5 297.5 c 128,-1,41
 78 259 78 259 81.5 219.5 c 128,-1,42
 85 180 85 180 88.5 141.5 c 128,-1,43
 92 103 92 103 95 68 c 1,44,-1
 103 68 l 2,45,46
 107 68 107 68 113 67.5 c 128,-1,47
 119 67 119 67 123 67 c 2,48,-1
 130 67 l 2,49,50
 176 67 176 67 220.5 88 c 128,-1,51
 265 109 265 109 300 145 c 128,-1,52
 335 181 335 181 356.5 228 c 128,-1,53
 378 275 378 275 378 328 c 0,54,55
 378 373 378 373 359 398 c 128,-1,56
 340 423 340 423 309.5 434 c 128,-1,57
 279 445 279 445 241 446 c 128,-1,58
 203 447 203 447 166 447 c 0,59,60
 159 447 159 447 149 446.5 c 128,-1,61
 139 446 139 446 129.5 445.5 c 128,-1,62
 120 445 120 445 112 444.5 c 128,-1,63
 104 444 104 444 103 444 c 2,64,-1
 76 417 l 1,65,-1
 76 410 l 2,66,67
 76 404 76 404 75.5 396.5 c 128,-1,68
 75 389 75 389 75 380 c 2,69,-1
 75 367 l 2,39,40
EndSplineSet
EndChar

StartChar: q
Encoding: 113 113 84
Width: 429
Flags: W
LayerCount: 2
Fore
SplineSet
182 -440 m 2,0,-1
 182 -422 l 2,1,2
 182 -410 182 -410 182 -399 c 128,-1,3
 182 -388 182 -388 182.5 -379.5 c 128,-1,4
 183 -371 183 -371 183 -369 c 0,5,6
 184 -361 184 -361 186.5 -342 c 128,-1,7
 189 -323 189 -323 193 -297.5 c 128,-1,8
 197 -272 197 -272 201.5 -243.5 c 128,-1,9
 206 -215 206 -215 210 -189.5 c 128,-1,10
 214 -164 214 -164 217.5 -142.5 c 128,-1,11
 221 -121 221 -121 224 -110 c 0,12,13
 225 -104 225 -104 229 -87 c 128,-1,14
 233 -70 233 -70 239 -47.5 c 128,-1,15
 245 -25 245 -25 251 0 c 128,-1,16
 257 25 257 25 263 48 c 128,-1,17
 269 71 269 71 273 87.5 c 128,-1,18
 277 104 277 104 279 110 c 0,19,20
 279 112 279 112 278 116 c 128,-1,21
 277 120 277 120 277 121 c 1,22,23
 268 121 268 121 257 115 c 128,-1,24
 246 109 246 109 233 100.5 c 128,-1,25
 220 92 220 92 206.5 81.5 c 128,-1,26
 193 71 193 71 179.5 62 c 128,-1,27
 166 53 166 53 154.5 47 c 128,-1,28
 143 41 143 41 134 41 c 0,29,30
 93 41 93 41 70.5 63 c 128,-1,31
 48 85 48 85 48 126 c 1,32,33
 33 171 33 171 36 221 c 128,-1,34
 39 271 39 271 53.5 318 c 128,-1,35
 68 365 68 365 94 406.5 c 128,-1,36
 120 448 120 448 151.5 475.5 c 128,-1,37
 183 503 183 503 219 513.5 c 128,-1,38
 255 524 255 524 291 509 c 1,39,40
 314 509 314 509 332.5 501.5 c 128,-1,41
 351 494 351 494 363.5 479.5 c 128,-1,42
 376 465 376 465 383 446 c 128,-1,43
 390 427 390 427 390 406 c 0,44,45
 390 403 390 403 390 398 c 128,-1,46
 390 393 390 393 389.5 387.5 c 128,-1,47
 389 382 389 382 388.5 377.5 c 128,-1,48
 388 373 388 373 388 371 c 0,49,50
 354 274 354 274 326 166.5 c 128,-1,51
 298 59 298 59 277.5 -51 c 128,-1,52
 257 -161 257 -161 246.5 -271.5 c 128,-1,53
 236 -382 236 -382 236 -483 c 0,54,55
 236 -499 236 -499 236.5 -523 c 128,-1,56
 237 -547 237 -547 242 -571.5 c 128,-1,57
 247 -596 247 -596 258 -613 c 128,-1,58
 269 -630 269 -630 292 -630 c 0,59,60
 322 -630 322 -630 350 -618 c 128,-1,61
 378 -606 378 -606 402.5 -584.5 c 128,-1,62
 427 -563 427 -563 447.5 -536 c 128,-1,63
 468 -509 468 -509 482.5 -480 c 128,-1,64
 497 -451 497 -451 505 -421 c 128,-1,65
 513 -391 513 -391 513 -364 c 0,66,67
 513 -336 513 -336 501 -319 c 128,-1,68
 489 -302 489 -302 471.5 -289 c 128,-1,69
 454 -276 454 -276 435.5 -264 c 128,-1,70
 417 -252 417 -252 402 -232 c 1,71,72
 404 -232 404 -232 411.5 -231.5 c 128,-1,73
 419 -231 419 -231 422 -231 c 0,74,75
 454 -231 454 -231 477 -246 c 128,-1,76
 500 -261 500 -261 514 -284.5 c 128,-1,77
 528 -308 528 -308 534.5 -336 c 128,-1,78
 541 -364 541 -364 541 -391 c 256,79,80
 541 -418 541 -418 531.5 -450 c 128,-1,81
 522 -482 522 -482 505.5 -513.5 c 128,-1,82
 489 -545 489 -545 466.5 -573.5 c 128,-1,83
 444 -602 444 -602 417 -624.5 c 128,-1,84
 390 -647 390 -647 359.5 -660 c 128,-1,85
 329 -673 329 -673 298 -673 c 0,86,87
 269 -673 269 -673 249 -661.5 c 128,-1,88
 229 -650 229 -650 216 -630.5 c 128,-1,89
 203 -611 203 -611 196.5 -586 c 128,-1,90
 190 -561 190 -561 186.5 -535 c 128,-1,91
 183 -509 183 -509 182.5 -484.5 c 128,-1,92
 182 -460 182 -460 182 -440 c 2,0,-1
301 468 m 1,93,94
 257 471 257 471 223 450 c 128,-1,95
 189 429 189 429 162.5 394 c 128,-1,96
 136 359 136 359 118.5 314.5 c 128,-1,97
 101 270 101 270 92.5 226 c 128,-1,98
 84 182 84 182 85.5 142.5 c 128,-1,99
 87 103 87 103 100 79 c 1,100,101
 126 79 126 79 155 97.5 c 128,-1,102
 184 116 184 116 211 146 c 128,-1,103
 238 176 238 176 263.5 214 c 128,-1,104
 289 252 289 252 307.5 291 c 128,-1,105
 326 330 326 330 337 365.5 c 128,-1,106
 348 401 348 401 348 427 c 0,107,108
 348 447 348 447 333.5 457.5 c 128,-1,109
 319 468 319 468 301 468 c 1,93,94
224 -581 m 256,110,111
 219 -581 219 -581 219 -588.5 c 128,-1,112
 219 -596 219 -596 224 -596 c 256,113,114
 229 -596 229 -596 229 -588.5 c 128,-1,115
 229 -581 229 -581 224 -581 c 256,110,111
EndSplineSet
EndChar

StartChar: r
Encoding: 114 114 85
Width: 436
Flags: W
LayerCount: 2
Fore
SplineSet
37 311 m 2,0,-1
 37 457 l 2,1,2
 37 463 37 463 38 467.5 c 128,-1,3
 39 472 39 472 42 475.5 c 128,-1,4
 45 479 45 479 52 480 c 1,5,6
 66 471 66 471 71 454.5 c 128,-1,7
 76 438 76 438 79 421.5 c 128,-1,8
 82 405 82 405 87.5 390.5 c 128,-1,9
 93 376 93 376 106 371 c 1,10,11
 123 400 123 400 140 425 c 128,-1,12
 157 450 157 450 178.5 469 c 128,-1,13
 200 488 200 488 226 498 c 128,-1,14
 252 508 252 508 288 508 c 0,15,16
 309 508 309 508 331.5 504 c 128,-1,17
 354 500 354 500 372.5 490 c 128,-1,18
 391 480 391 480 403 462.5 c 128,-1,19
 415 445 415 445 415 419 c 1,20,21
 395 419 395 419 379.5 426.5 c 128,-1,22
 364 434 364 434 349 443 c 128,-1,23
 334 452 334 452 317 459.5 c 128,-1,24
 300 467 300 467 277 467 c 0,25,26
 247 467 247 467 223 451.5 c 128,-1,27
 199 436 199 436 180 410 c 128,-1,28
 161 384 161 384 147 350 c 128,-1,29
 133 316 133 316 122.5 278 c 128,-1,30
 112 240 112 240 106 201.5 c 128,-1,31
 100 163 100 163 96 127.5 c 128,-1,32
 92 92 92 92 90.5 62 c 128,-1,33
 89 32 89 32 89 13 c 1,34,-1
 49 13 l 1,35,36
 45 40 45 40 43 75.5 c 128,-1,37
 41 111 41 111 40 150.5 c 128,-1,38
 39 190 39 190 38 231 c 128,-1,39
 37 272 37 272 37 311 c 2,0,-1
EndSplineSet
EndChar

StartChar: s
Encoding: 115 115 86
Width: 514
Flags: W
LayerCount: 2
Fore
SplineSet
21 137 m 0,0,1
 20 140 20 140 20 150.5 c 128,-1,2
 20 161 20 161 20 165 c 0,3,4
 20 168 20 168 19.5 174.5 c 128,-1,5
 19 181 19 181 20 187 c 128,-1,6
 21 193 21 193 24 198 c 128,-1,7
 27 203 27 203 34 205 c 1,8,9
 33 185 33 185 43 166 c 128,-1,10
 53 147 53 147 69 128.5 c 128,-1,11
 85 110 85 110 105.5 93.5 c 128,-1,12
 126 77 126 77 148.5 65.5 c 128,-1,13
 171 54 171 54 192.5 47 c 128,-1,14
 214 40 214 40 233 40 c 0,15,16
 268 40 268 40 304 52 c 128,-1,17
 340 64 340 64 368.5 85.5 c 128,-1,18
 397 107 397 107 415 138 c 128,-1,19
 433 169 433 169 433 208 c 0,20,21
 433 232 433 232 418.5 248.5 c 128,-1,22
 404 265 404 265 380.5 277.5 c 128,-1,23
 357 290 357 290 327.5 298.5 c 128,-1,24
 298 307 298 307 266.5 315 c 128,-1,25
 235 323 235 323 205 332 c 128,-1,26
 175 341 175 341 151.5 353.5 c 128,-1,27
 128 366 128 366 114 383 c 128,-1,28
 100 400 100 400 100 426 c 0,29,30
 100 449 100 449 110.5 466.5 c 128,-1,31
 121 484 121 484 138.5 498 c 128,-1,32
 156 512 156 512 178.5 521.5 c 128,-1,33
 201 531 201 531 224 537.5 c 128,-1,34
 247 544 247 544 269.5 546.5 c 128,-1,35
 292 549 292 549 310 549 c 0,36,37
 333 549 333 549 350.5 548.5 c 128,-1,38
 368 548 368 548 383 543 c 128,-1,39
 398 538 398 538 410 527 c 128,-1,40
 422 516 422 516 431 492 c 1,41,42
 427 484 427 484 422.5 481.5 c 128,-1,43
 418 479 418 479 410 479 c 0,44,45
 399 479 399 479 391.5 487.5 c 128,-1,46
 384 496 384 496 376 507 c 1,47,48
 373 507 373 507 364 507.5 c 128,-1,49
 355 508 355 508 345.5 508 c 128,-1,50
 336 508 336 508 327.5 508 c 128,-1,51
 319 508 319 508 315 508 c 0,52,53
 303 508 303 508 285.5 507 c 128,-1,54
 268 506 268 506 248.5 503 c 128,-1,55
 229 500 229 500 210.5 494 c 128,-1,56
 192 488 192 488 176.5 479 c 128,-1,57
 161 470 161 470 151.5 456.5 c 128,-1,58
 142 443 142 443 142 425 c 0,59,60
 142 409 142 409 148.5 400 c 128,-1,61
 155 391 155 391 171 382 c 1,62,63
 178 382 178 382 192 377.5 c 128,-1,64
 206 373 206 373 223.5 368 c 128,-1,65
 241 363 241 363 260.5 357.5 c 128,-1,66
 280 352 280 352 297.5 346 c 128,-1,67
 315 340 315 340 328.5 335 c 128,-1,68
 342 330 342 330 349 328 c 0,69,70
 373 319 373 319 398 310 c 128,-1,71
 423 301 423 301 443 287.5 c 128,-1,72
 463 274 463 274 475 254.5 c 128,-1,73
 487 235 487 235 487 205 c 0,74,75
 487 160 487 160 463 122.5 c 128,-1,76
 439 85 439 85 402.5 57.5 c 128,-1,77
 366 30 366 30 322.5 14.5 c 128,-1,78
 279 -1 279 -1 238 -1 c 0,79,80
 202 -1 202 -1 171 9.5 c 128,-1,81
 140 20 140 20 113.5 39 c 128,-1,82
 87 58 87 58 64 82.5 c 128,-1,83
 41 107 41 107 21 137 c 0,0,1
EndSplineSet
EndChar

StartChar: t
Encoding: 116 116 87
Width: 390
Flags: W
LayerCount: 2
Fore
SplineSet
10 402 m 1,0,1
 4 429 4 429 5.5 441 c 128,-1,2
 7 453 7 453 16 456.5 c 128,-1,3
 25 460 25 460 39.5 458.5 c 128,-1,4
 54 457 54 457 71.5 458 c 128,-1,5
 89 459 89 459 109.5 466 c 128,-1,6
 130 473 130 473 150 493 c 1,7,8
 152 504 152 504 154.5 530.5 c 128,-1,9
 157 557 157 557 160.5 591 c 128,-1,10
 164 625 164 625 167.5 662.5 c 128,-1,11
 171 700 171 700 174 734 c 128,-1,12
 177 768 177 768 179.5 794 c 128,-1,13
 182 820 182 820 184 831 c 1,14,-1
 192 831 l 2,15,16
 195 831 195 831 199 832 c 128,-1,17
 203 833 203 833 207 834 c 128,-1,18
 211 835 211 835 214 834.5 c 128,-1,19
 217 834 217 834 220 830 c 1,20,21
 222 796 222 796 219 753 c 128,-1,22
 216 710 216 710 211.5 663 c 128,-1,23
 207 616 207 616 204 569 c 128,-1,24
 201 522 201 522 205 481 c 1,25,-1
 399 494 l 1,26,-1
 392 455 l 1,27,-1
 221 432 l 1,28,29
 198 390 198 390 190 342.5 c 128,-1,30
 182 295 182 295 185 250.5 c 128,-1,31
 188 206 188 206 199.5 167 c 128,-1,32
 211 128 211 128 227.5 101 c 128,-1,33
 244 74 244 74 263 62.5 c 128,-1,34
 282 51 282 51 300 61 c 1,35,36
 319 60 319 60 333.5 66.5 c 128,-1,37
 348 73 348 73 358 84 c 128,-1,38
 368 95 368 95 375 108.5 c 128,-1,39
 382 122 382 122 387.5 135 c 128,-1,40
 393 148 393 148 399.5 158 c 128,-1,41
 406 168 406 168 414 173 c 1,42,43
 414 171 414 171 414.5 161.5 c 128,-1,44
 415 152 415 152 415 149 c 0,45,46
 415 120 415 120 405 94.5 c 128,-1,47
 395 69 395 69 378.5 51 c 128,-1,48
 362 33 362 33 338.5 23 c 128,-1,49
 315 13 315 13 288 13 c 1,50,51
 244 15 244 15 217 36.5 c 128,-1,52
 190 58 190 58 174 93 c 128,-1,53
 158 128 158 128 152.5 170.5 c 128,-1,54
 147 213 147 213 147 257 c 128,-1,55
 147 301 147 301 149.5 342.5 c 128,-1,56
 152 384 152 384 155 417 c 1,57,-1
 10 402 l 1,0,1
EndSplineSet
EndChar

StartChar: u
Encoding: 117 117 88
Width: 547
Flags: W
LayerCount: 2
Fore
SplineSet
287 124 m 0,0,1
 286 124 286 124 284 123.5 c 128,-1,2
 282 123 282 123 281 122 c 0,3,4
 263 101 263 101 246 80.5 c 128,-1,5
 229 60 229 60 211 45.5 c 128,-1,6
 193 31 193 31 171 21.5 c 128,-1,7
 149 12 149 12 121 12 c 0,8,9
 105 12 105 12 92.5 20 c 128,-1,10
 80 28 80 28 71 40 c 128,-1,11
 62 52 62 52 56 67 c 128,-1,12
 50 82 50 82 49 95 c 0,13,14
 48 102 48 102 47.5 127 c 128,-1,15
 47 152 47 152 47 187 c 2,16,-1
 47 341 l 2,17,18
 47 379 47 379 47 408.5 c 128,-1,19
 47 438 47 438 45 450 c 0,20,21
 45 452 45 452 44.5 460.5 c 128,-1,22
 44 469 44 469 44 472 c 0,23,24
 44 484 44 484 47 495 c 128,-1,25
 50 506 50 506 66 506 c 0,26,27
 73 506 73 506 77.5 502.5 c 128,-1,28
 82 499 82 499 85 490 c 0,29,30
 87 481 87 481 88.5 453 c 128,-1,31
 90 425 90 425 91.5 387 c 128,-1,32
 93 349 93 349 94 307 c 128,-1,33
 95 265 95 265 96.5 227.5 c 128,-1,34
 98 190 98 190 99.5 161.5 c 128,-1,35
 101 133 101 133 103 122 c 0,36,37
 105 110 105 110 108.5 100 c 128,-1,38
 112 90 112 90 116.5 82.5 c 128,-1,39
 121 75 121 75 129.5 71 c 128,-1,40
 138 67 138 67 150 67 c 0,41,42
 153 67 153 67 161 67 c 128,-1,43
 169 67 169 67 171 68 c 0,44,45
 211 103 211 103 241 153.5 c 128,-1,46
 271 204 271 204 290 261 c 128,-1,47
 309 318 309 318 319.5 377 c 128,-1,48
 330 436 330 436 333 490 c 1,49,50
 333 490 333 490 335.5 490.5 c 128,-1,51
 338 491 338 491 339 491 c 0,52,53
 346 491 346 491 350.5 488 c 128,-1,54
 355 485 355 485 359 478 c 1,55,56
 360 454 360 454 359.5 419.5 c 128,-1,57
 359 385 359 385 359 347 c 128,-1,58
 359 309 359 309 361 268 c 128,-1,59
 363 227 363 227 368 188.5 c 128,-1,60
 373 150 373 150 384.5 117.5 c 128,-1,61
 396 85 396 85 415 62.5 c 128,-1,62
 434 40 434 40 461.5 30 c 128,-1,63
 489 20 489 20 527 28 c 1,64,65
 519 15 519 15 508.5 9.5 c 128,-1,66
 498 4 498 4 485 1 c 128,-1,67
 472 -2 472 -2 459 -2 c 2,68,-1
 433 -2 l 2,69,70
 407 -2 407 -2 387 7.5 c 128,-1,71
 367 17 367 17 352 31 c 128,-1,72
 337 45 337 45 327 61 c 128,-1,73
 317 77 317 77 310 91 c 128,-1,74
 303 105 303 105 297.5 114.5 c 128,-1,75
 292 124 292 124 287 124 c 0,0,1
EndSplineSet
EndChar

StartChar: v
Encoding: 118 118 89
Width: 438
Flags: W
LayerCount: 2
Fore
SplineSet
220 13 m 1,0,1
 192 62 192 62 167 112.5 c 128,-1,2
 142 163 142 163 118 213 c 128,-1,3
 94 263 94 263 68 313 c 128,-1,4
 42 363 42 363 13 410 c 1,5,-1
 13 445 l 1,6,7
 24 445 24 445 34.5 440.5 c 128,-1,8
 45 436 45 436 54 429 c 128,-1,9
 63 422 63 422 70.5 413.5 c 128,-1,10
 78 405 78 405 82 397 c 2,11,-1
 233 95 l 1,12,-1
 247 95 l 1,13,14
 251 109 251 109 260.5 138 c 128,-1,15
 270 167 270 167 282 203.5 c 128,-1,16
 294 240 294 240 307 280 c 128,-1,17
 320 320 320 320 333 356.5 c 128,-1,18
 346 393 346 393 355.5 422 c 128,-1,19
 365 451 365 451 370 465 c 0,20,21
 376 483 376 483 383 491.5 c 128,-1,22
 390 500 390 500 410 500 c 1,23,-1
 410 452 l 1,24,-1
 274 13 l 2,25,26
 274 12 274 12 268.5 9.5 c 128,-1,27
 263 7 263 7 256.5 5.5 c 128,-1,28
 250 4 250 4 243.5 2 c 128,-1,29
 237 0 237 0 233 0 c 256,30,31
 229 0 229 0 224.5 5 c 128,-1,32
 220 10 220 10 220 13 c 1,0,1
EndSplineSet
EndChar

StartChar: w
Encoding: 119 119 90
Width: 643
Flags: W
LayerCount: 2
Fore
SplineSet
21 382 m 1,0,1
 22 392 22 392 26.5 401.5 c 128,-1,2
 31 411 31 411 41 411 c 0,3,4
 52 411 52 411 59.5 396.5 c 128,-1,5
 67 382 67 382 72 357.5 c 128,-1,6
 77 333 77 333 81 302 c 128,-1,7
 85 271 85 271 88 238.5 c 128,-1,8
 91 206 91 206 93.5 175 c 128,-1,9
 96 144 96 144 100 119.5 c 128,-1,10
 104 95 104 95 109.5 80.5 c 128,-1,11
 115 66 115 66 123 66 c 0,12,13
 124 66 124 66 126.5 66.5 c 128,-1,14
 129 67 129 67 130 68 c 0,15,16
 151 104 151 104 161.5 136.5 c 128,-1,17
 172 169 172 169 177 202.5 c 128,-1,18
 182 236 182 236 183 273 c 128,-1,19
 184 310 184 310 184 355 c 1,20,21
 189 367 189 367 197.5 369.5 c 128,-1,22
 206 372 206 372 214 372 c 0,23,24
 218 372 218 372 222 371.5 c 128,-1,25
 226 371 226 371 226 370 c 2,26,-1
 254 137 l 2,27,28
 256 121 256 121 268 108.5 c 128,-1,29
 280 96 280 96 296.5 86.5 c 128,-1,30
 313 77 313 77 331 72 c 128,-1,31
 349 67 349 67 363 67 c 0,32,33
 409 67 409 67 447.5 78.5 c 128,-1,34
 486 90 486 90 513 113 c 128,-1,35
 540 136 540 136 555 169 c 128,-1,36
 570 202 570 202 570 247 c 0,37,38
 570 284 570 284 560.5 308.5 c 128,-1,39
 551 333 551 333 536.5 349 c 128,-1,40
 522 365 522 365 505.5 375.5 c 128,-1,41
 489 386 489 386 474.5 397 c 128,-1,42
 460 408 460 408 450.5 421.5 c 128,-1,43
 441 435 441 435 441 457 c 1,44,45
 487 457 487 457 519.5 438 c 128,-1,46
 552 419 552 419 572 388.5 c 128,-1,47
 592 358 592 358 601 320 c 128,-1,48
 610 282 610 282 610 241 c 0,49,50
 610 189 610 189 590 149 c 128,-1,51
 570 109 570 109 535 81.5 c 128,-1,52
 500 54 500 54 454.5 40 c 128,-1,53
 409 26 409 26 357 26 c 0,54,55
 306 26 306 26 268 48.5 c 128,-1,56
 230 71 230 71 198 109 c 1,57,58
 193 97 193 97 185 78 c 128,-1,59
 177 59 177 59 166.5 41.5 c 128,-1,60
 156 24 156 24 142 11.5 c 128,-1,61
 128 -1 128 -1 109 -1 c 0,62,63
 92 -1 92 -1 80.5 15.5 c 128,-1,64
 69 32 69 32 62.5 53.5 c 128,-1,65
 56 75 56 75 52.5 95 c 128,-1,66
 49 115 49 115 49 122 c 1,67,68
 47 133 47 133 45 153.5 c 128,-1,69
 43 174 43 174 40 199.5 c 128,-1,70
 37 225 37 225 34 253.5 c 128,-1,71
 31 282 31 282 28 307.5 c 128,-1,72
 25 333 25 333 23.5 353 c 128,-1,73
 22 373 22 373 21 382 c 1,0,1
EndSplineSet
EndChar

StartChar: x
Encoding: 120 120 91
Width: 643
Flags: W
LayerCount: 2
Fore
SplineSet
74 -61 m 1,0,1
 78 -53 78 -53 88 -33.5 c 128,-1,2
 98 -14 98 -14 110 10 c 128,-1,3
 122 34 122 34 135 60.5 c 128,-1,4
 148 87 148 87 160.5 112 c 128,-1,5
 173 137 173 137 182.5 156 c 128,-1,6
 192 175 192 175 196 184 c 0,7,8
 197 187 197 187 199.5 193 c 128,-1,9
 202 199 202 199 204 205.5 c 128,-1,10
 206 212 206 212 207.5 218 c 128,-1,11
 209 224 209 224 210 226 c 1,12,13
 208 234 208 234 202.5 249.5 c 128,-1,14
 197 265 197 265 190 286 c 2,15,-1
 149 408 l 2,16,17
 144 424 144 424 141 431 c 1,18,19
 139 440 139 440 134 450 c 128,-1,20
 129 460 129 460 122 468 c 128,-1,21
 115 476 115 476 106.5 481.5 c 128,-1,22
 98 487 98 487 87 487 c 0,23,24
 67 487 67 487 51.5 479.5 c 128,-1,25
 36 472 36 472 19 459 c 1,26,27
 10 463 10 463 7 467.5 c 128,-1,28
 4 472 4 472 4 480 c 0,29,30
 4 498 4 498 13 507.5 c 128,-1,31
 22 517 22 517 34.5 522 c 128,-1,32
 47 527 47 527 61.5 528.5 c 128,-1,33
 76 530 76 530 87 530 c 0,34,35
 117 530 117 530 137 518 c 128,-1,36
 157 506 157 506 171.5 486.5 c 128,-1,37
 186 467 186 467 196 442 c 128,-1,38
 206 417 206 417 214 390.5 c 128,-1,39
 222 364 222 364 230 339 c 128,-1,40
 238 314 238 314 251 294 c 1,41,42
 274 320 274 320 293.5 353.5 c 128,-1,43
 313 387 313 387 330 422 c 128,-1,44
 347 457 347 457 361.5 491.5 c 128,-1,45
 376 526 376 526 387 554 c 1,46,-1
 418 554 l 1,47,48
 418 511 418 511 404.5 466.5 c 128,-1,49
 391 422 391 422 372 379.5 c 128,-1,50
 353 337 353 337 331 298 c 128,-1,51
 309 259 309 259 292 226 c 1,52,-1
 292 199 l 2,53,54
 292 198 292 198 303 186.5 c 128,-1,55
 314 175 314 175 329 159.5 c 128,-1,56
 344 144 344 144 360 128 c 128,-1,57
 376 112 376 112 387 103 c 0,58,59
 397 94 397 94 408.5 90.5 c 128,-1,60
 420 87 420 87 432.5 86.5 c 128,-1,61
 445 86 445 86 457.5 86.5 c 128,-1,62
 470 87 470 87 481 87 c 0,63,64
 499 87 499 87 523 89 c 128,-1,65
 547 91 547 91 568 99 c 128,-1,66
 589 107 589 107 600 124 c 0,67,68
 606 132 606 132 608 144 c 1,69,70
 609 139 609 139 609 138 c 0,71,72
 609 105 609 105 594 86.5 c 128,-1,73
 579 68 579 68 556 59.5 c 128,-1,74
 533 51 533 51 505.5 49 c 128,-1,75
 478 47 478 47 454 47 c 0,76,77
 422 47 422 47 394.5 53.5 c 128,-1,78
 367 60 367 60 343 72.5 c 128,-1,79
 319 85 319 85 296.5 102.5 c 128,-1,80
 274 120 274 120 251 144 c 1,81,-1
 238 130 l 1,82,-1
 128 -75 l 2,83,84
 120 -91 120 -91 105.5 -100 c 128,-1,85
 91 -109 91 -109 74 -109 c 1,86,-1
 74 -61 l 1,0,1
607 171 m 1,87,88
 608 159 608 159 608 149 c 2,89,-1
 608 155 l 2,90,91
 608 160 608 160 607.5 164.5 c 128,-1,92
 607 169 607 169 607 171 c 1,87,88
EndSplineSet
EndChar

StartChar: y
Encoding: 121 121 92
Width: 431
Flags: W
LayerCount: 2
Fore
SplineSet
-77 -294 m 0,0,1
 -77 -292 -77 -292 -73.5 -279 c 128,-1,2
 -70 -266 -70 -266 -65 -251.5 c 128,-1,3
 -60 -237 -60 -237 -54 -225 c 128,-1,4
 -48 -213 -48 -213 -41 -213 c 1,5,6
 -41 -259 -41 -259 -24 -300.5 c 128,-1,7
 -7 -342 -7 -342 22.5 -373 c 128,-1,8
 52 -404 52 -404 92.5 -421.5 c 128,-1,9
 133 -439 133 -439 179 -439 c 0,10,11
 221 -439 221 -439 250 -422.5 c 128,-1,12
 279 -406 279 -406 298 -378 c 128,-1,13
 317 -350 317 -350 327.5 -315 c 128,-1,14
 338 -280 338 -280 343 -242.5 c 128,-1,15
 348 -205 348 -205 349 -169.5 c 128,-1,16
 350 -134 350 -134 350 -104 c 0,17,18
 350 -94 350 -94 349.5 -74.5 c 128,-1,19
 349 -55 349 -55 349 -36 c 128,-1,20
 349 -17 349 -17 349 -2.5 c 128,-1,21
 349 12 349 12 349 13 c 0,22,23
 349 17 349 17 347.5 32 c 128,-1,24
 346 47 346 47 343.5 64.5 c 128,-1,25
 341 82 341 82 339 98 c 128,-1,26
 337 114 337 114 336 122 c 0,27,28
 335 126 335 126 333.5 136 c 128,-1,29
 332 146 332 146 329 157 c 128,-1,30
 326 168 326 168 321 178 c 128,-1,31
 316 188 316 188 308 192 c 1,32,33
 296 168 296 168 274.5 141.5 c 128,-1,34
 253 115 253 115 225.5 92.5 c 128,-1,35
 198 70 198 70 168.5 55 c 128,-1,36
 139 40 139 40 109 40 c 0,37,38
 86 40 86 40 70.5 52.5 c 128,-1,39
 55 65 55 65 45.5 84 c 128,-1,40
 36 103 36 103 30.5 128 c 128,-1,41
 25 153 25 153 23 177.5 c 128,-1,42
 21 202 21 202 20.5 223.5 c 128,-1,43
 20 245 20 245 20 259 c 0,44,45
 20 283 20 283 24 312 c 128,-1,46
 28 341 28 341 33.5 372 c 128,-1,47
 39 403 39 403 44.5 433.5 c 128,-1,48
 50 464 50 464 55 490 c 1,49,50
 63 506 63 506 76 506 c 0,51,52
 77 506 77 506 79.5 505.5 c 128,-1,53
 82 505 82 505 83 505 c 1,54,55
 83 496 83 496 82.5 472.5 c 128,-1,56
 82 449 82 449 81 419 c 128,-1,57
 80 389 80 389 78.5 354.5 c 128,-1,58
 77 320 77 320 76.5 290 c 128,-1,59
 76 260 76 260 75.5 237 c 128,-1,60
 75 214 75 214 76 205 c 1,61,62
 76 195 76 195 77 176.5 c 128,-1,63
 78 158 78 158 82 140 c 128,-1,64
 86 122 86 122 94.5 108 c 128,-1,65
 103 94 103 94 121 94 c 0,66,67
 136 94 136 94 155 97 c 128,-1,68
 174 100 174 100 184 109 c 0,69,70
 198 121 198 121 218 140.5 c 128,-1,71
 238 160 238 160 256 180 c 128,-1,72
 274 200 274 200 287.5 215 c 128,-1,73
 301 230 301 230 301 233 c 2,74,-1
 322 531 l 2,75,76
 322 535 322 535 325 538 c 128,-1,77
 328 541 328 541 332.5 542.5 c 128,-1,78
 337 544 337 544 341.5 545 c 128,-1,79
 346 546 346 546 350 546 c 0,80,81
 363 546 363 546 369.5 537.5 c 128,-1,82
 376 529 376 529 384 517 c 1,83,84
 376 446 376 446 379 365.5 c 128,-1,85
 382 285 382 285 388 203.5 c 128,-1,86
 394 122 394 122 400 41.5 c 128,-1,87
 406 -39 406 -39 406 -110 c 0,88,89
 406 -118 406 -118 406 -139.5 c 128,-1,90
 406 -161 406 -161 405.5 -185 c 128,-1,91
 405 -209 405 -209 404 -230.5 c 128,-1,92
 403 -252 403 -252 403 -260 c 0,93,94
 399 -302 399 -302 380 -343.5 c 128,-1,95
 361 -385 361 -385 331 -419 c 128,-1,96
 301 -453 301 -453 261.5 -474 c 128,-1,97
 222 -495 222 -495 177 -495 c 0,98,99
 157 -495 157 -495 129.5 -487.5 c 128,-1,100
 102 -480 102 -480 74 -466.5 c 128,-1,101
 46 -453 46 -453 19 -434.5 c 128,-1,102
 -8 -416 -8 -416 -29 -394 c 128,-1,103
 -50 -372 -50 -372 -63.5 -346.5 c 128,-1,104
 -77 -321 -77 -321 -77 -294 c 0,0,1
EndSplineSet
EndChar

StartChar: z
Encoding: 122 122 93
Width: 697
Flags: W
LayerCount: 2
Fore
SplineSet
24 78 m 1,0,1
 24 101 24 101 30 113 c 128,-1,2
 36 125 36 125 45.5 130.5 c 128,-1,3
 55 136 55 136 68.5 135.5 c 128,-1,4
 82 135 82 135 97 134 c 128,-1,5
 112 133 112 133 127 132.5 c 128,-1,6
 142 132 142 132 157 137 c 0,7,8
 181 144 181 144 207 161.5 c 128,-1,9
 233 179 233 179 256 202 c 128,-1,10
 279 225 279 225 296.5 250.5 c 128,-1,11
 314 276 314 276 322 301 c 1,12,-1
 226 301 l 2,13,14
 217 301 217 301 214 308.5 c 128,-1,15
 211 316 211 316 211 321 c 0,16,17
 211 328 211 328 214 333 c 128,-1,18
 217 338 217 338 226 342 c 0,19,20
 231 344 231 344 244.5 348 c 128,-1,21
 258 352 258 352 274 357 c 128,-1,22
 290 362 290 362 303 365 c 2,23,-1
 322 370 l 1,24,-1
 322 377 l 2,25,26
 322 383 322 383 322 390 c 128,-1,27
 322 397 322 397 322 402 c 2,28,-1
 322 410 l 2,29,30
 322 425 322 425 321.5 446.5 c 128,-1,31
 321 468 321 468 316 487.5 c 128,-1,32
 311 507 311 507 299.5 521 c 128,-1,33
 288 535 288 535 267 535 c 0,34,35
 265 535 265 535 260 535 c 128,-1,36
 255 535 255 535 254 534 c 0,37,38
 246 531 246 531 226 523.5 c 128,-1,39
 206 516 206 516 184.5 507.5 c 128,-1,40
 163 499 163 499 143.5 490.5 c 128,-1,41
 124 482 124 482 117 479 c 1,42,-1
 103 492 l 1,43,44
 114 512 114 512 133 528 c 128,-1,45
 152 544 152 544 175 554.5 c 128,-1,46
 198 565 198 565 222.5 570.5 c 128,-1,47
 247 576 247 576 270 576 c 0,48,49
 310 576 310 576 332.5 555.5 c 128,-1,50
 355 535 355 535 366.5 504 c 128,-1,51
 378 473 378 473 382.5 437 c 128,-1,52
 387 401 387 401 391 370 c 1,53,-1
 596 370 l 1,54,-1
 608 355 l 1,55,-1
 596 342 l 1,56,-1
 391 314 l 2,57,58
 389 314 389 314 383.5 309 c 128,-1,59
 378 304 378 304 376 301 c 0,60,61
 375 298 375 298 371.5 288 c 128,-1,62
 368 278 368 278 363 266.5 c 128,-1,63
 358 255 358 255 354 245 c 128,-1,64
 350 235 350 235 349 233 c 0,65,66
 346 228 346 228 334 218.5 c 128,-1,67
 322 209 322 209 307 196.5 c 128,-1,68
 292 184 292 184 274.5 170.5 c 128,-1,69
 257 157 257 157 243 144 c 128,-1,70
 229 131 229 131 220 120 c 128,-1,71
 211 109 211 109 211 103 c 0,72,73
 211 93 211 93 226.5 84.5 c 128,-1,74
 242 76 242 76 266 69.5 c 128,-1,75
 290 63 290 63 318 57 c 128,-1,76
 346 51 346 51 373 47.5 c 128,-1,77
 400 44 400 44 419.5 42 c 128,-1,78
 439 40 439 40 446 40 c 0,79,80
 474 40 474 40 504.5 43 c 128,-1,81
 535 46 535 46 565 52.5 c 128,-1,82
 595 59 595 59 623.5 69.5 c 128,-1,83
 652 80 652 80 678 95 c 1,84,85
 678 95 678 95 678.5 92.5 c 128,-1,86
 679 90 679 90 679 89 c 0,87,88
 679 75 679 75 663 62 c 128,-1,89
 647 49 647 49 622.5 39.5 c 128,-1,90
 598 30 598 30 568 22 c 128,-1,91
 538 14 538 14 510 9 c 128,-1,92
 482 4 482 4 459 1 c 128,-1,93
 436 -2 436 -2 425 -2 c 0,94,95
 372 -2 372 -2 322.5 10.5 c 128,-1,96
 273 23 273 23 224 38 c 128,-1,97
 175 53 175 53 125.5 65.5 c 128,-1,98
 76 78 76 78 24 78 c 1,0,1
EndSplineSet
EndChar

StartChar: braceleft
Encoding: 123 123 94
Width: 349
Flags: W
LayerCount: 2
Fore
SplineSet
75 122 m 0,0,1
 75 153 75 153 90 183.5 c 128,-1,2
 105 214 105 214 123.5 242.5 c 128,-1,3
 142 271 142 271 157.5 295 c 128,-1,4
 173 319 173 319 173 336 c 0,5,6
 173 337 173 337 172.5 339.5 c 128,-1,7
 172 342 172 342 171 342 c 2,8,-1
 117 370 l 2,9,10
 116 370 116 370 115.5 372 c 128,-1,11
 115 374 115 374 115 376 c 0,12,13
 115 386 115 386 128 398.5 c 128,-1,14
 141 411 141 411 157.5 423.5 c 128,-1,15
 174 436 174 436 190 447 c 128,-1,16
 206 458 206 458 211 465 c 1,17,-1
 198 479 l 1,18,-1
 61 507 l 2,19,20
 54 508 54 508 46.5 517.5 c 128,-1,21
 39 527 39 527 33.5 539 c 128,-1,22
 28 551 28 551 24 562.5 c 128,-1,23
 20 574 20 574 20 581 c 0,24,25
 20 620 20 620 36 654 c 128,-1,26
 52 688 52 688 79.5 713.5 c 128,-1,27
 107 739 107 739 141.5 753.5 c 128,-1,28
 176 768 176 768 214 768 c 2,29,-1
 240 768 l 2,30,31
 254 768 254 768 266.5 765.5 c 128,-1,32
 279 763 279 763 290 757 c 128,-1,33
 301 751 301 751 309 739 c 1,34,35
 265 745 265 745 221.5 741.5 c 128,-1,36
 178 738 178 738 142 722 c 128,-1,37
 106 706 106 706 83 674.5 c 128,-1,38
 60 643 60 643 60 592 c 0,39,40
 60 563 60 563 74.5 548 c 128,-1,41
 89 533 89 533 111 525 c 128,-1,42
 133 517 133 517 158.5 514 c 128,-1,43
 184 511 184 511 206 506.5 c 128,-1,44
 228 502 228 502 242 493 c 128,-1,45
 256 484 256 484 256 465 c 0,46,47
 256 452 256 452 247 443.5 c 128,-1,48
 238 435 238 435 226.5 427 c 128,-1,49
 215 419 215 419 206 411 c 128,-1,50
 197 403 197 403 197 390 c 0,51,52
 197 381 197 381 204 374.5 c 128,-1,53
 211 368 211 368 219.5 362.5 c 128,-1,54
 228 357 228 357 234.5 351 c 128,-1,55
 241 345 241 345 241 336 c 0,56,57
 241 334 241 334 231.5 325.5 c 128,-1,58
 222 317 222 317 207.5 302 c 128,-1,59
 193 287 193 287 177 267.5 c 128,-1,60
 161 248 161 248 147 224.5 c 128,-1,61
 133 201 133 201 123.5 174.5 c 128,-1,62
 114 148 114 148 114 121 c 0,63,64
 114 95 114 95 126.5 79 c 128,-1,65
 139 63 139 63 158.5 53 c 128,-1,66
 178 43 178 43 203 39.5 c 128,-1,67
 228 36 228 36 253 34.5 c 128,-1,68
 278 33 278 33 300.5 34 c 128,-1,69
 323 35 323 35 338 35 c 1,70,71
 338 22 338 22 327.5 14.5 c 128,-1,72
 317 7 317 7 302 4 c 128,-1,73
 287 1 287 1 271.5 0 c 128,-1,74
 256 -1 256 -1 247 -1 c 0,75,76
 215 -1 215 -1 184.5 4.5 c 128,-1,77
 154 10 154 10 129.5 24.5 c 128,-1,78
 105 39 105 39 90 62.5 c 128,-1,79
 75 86 75 86 75 122 c 0,0,1
EndSplineSet
EndChar

StartChar: bar
Encoding: 124 124 95
Width: 116
Flags: W
LayerCount: 2
Fore
SplineSet
49 588 m 2,0,1
 49 589 49 589 53.5 591.5 c 128,-1,2
 58 594 58 594 59 594 c 0,3,4
 68 594 68 594 73.5 589.5 c 128,-1,5
 79 585 79 585 82.5 578.5 c 128,-1,6
 86 572 86 572 87.5 563.5 c 128,-1,7
 89 555 89 555 89 547 c 2,8,-1
 89 28 l 2,9,10
 89 26 89 26 84 20.5 c 128,-1,11
 79 15 79 15 76 13 c 0,12,13
 73 12 73 12 67 10 c 128,-1,14
 61 8 61 8 54.5 6 c 128,-1,15
 48 4 48 4 42 2.5 c 128,-1,16
 36 1 36 1 34 0 c 1,17,-1
 34 519 l 1,18,-1
 49 588 l 2,0,1
EndSplineSet
EndChar

StartChar: braceright
Encoding: 125 125 96
Width: 301
Flags: W
LayerCount: 2
Fore
SplineSet
34 13 m 1,0,1
 36 22 36 22 52 27 c 128,-1,2
 68 32 68 32 91 36.5 c 128,-1,3
 114 41 114 41 140 48 c 128,-1,4
 166 55 166 55 188.5 68.5 c 128,-1,5
 211 82 211 82 225.5 104.5 c 128,-1,6
 240 127 240 127 240 164 c 0,7,8
 240 209 240 209 224 238.5 c 128,-1,9
 208 268 208 268 181 286.5 c 128,-1,10
 154 305 154 305 119.5 314.5 c 128,-1,11
 85 324 85 324 48 328 c 1,12,13
 53 346 53 346 64 359.5 c 128,-1,14
 75 373 75 373 89 382 c 1,15,-1
 6 425 l 1,16,-1
 6 438 l 1,17,18
 41 453 41 453 77.5 472.5 c 128,-1,19
 114 492 114 492 144 518 c 128,-1,20
 174 544 174 544 193.5 576.5 c 128,-1,21
 213 609 213 609 213 652 c 0,22,23
 213 681 213 681 199.5 702 c 128,-1,24
 186 723 186 723 164 736 c 128,-1,25
 142 749 142 749 115 756 c 128,-1,26
 88 763 88 763 61 767 c 1,27,-1
 61 785 l 1,28,29
 100 785 100 785 134.5 778 c 128,-1,30
 169 771 169 771 195.5 754.5 c 128,-1,31
 222 738 222 738 238 708.5 c 128,-1,32
 254 679 254 679 254 634 c 0,33,34
 254 607 254 607 242.5 584 c 128,-1,35
 231 561 231 561 214.5 542.5 c 128,-1,36
 198 524 198 524 177.5 508.5 c 128,-1,37
 157 493 157 493 140.5 479.5 c 128,-1,38
 124 466 124 466 113 454.5 c 128,-1,39
 102 443 102 443 102 430 c 0,40,41
 102 420 102 420 111 417.5 c 128,-1,42
 120 415 120 415 130 413 c 128,-1,43
 140 411 140 411 148.5 407 c 128,-1,44
 157 403 157 403 157 390 c 0,45,46
 157 384 157 384 155 380.5 c 128,-1,47
 153 377 153 377 150 373.5 c 128,-1,48
 147 370 147 370 144.5 365.5 c 128,-1,49
 142 361 142 361 142 355 c 0,50,51
 142 350 142 350 151.5 343.5 c 128,-1,52
 161 337 161 337 175 327.5 c 128,-1,53
 189 318 189 318 205 304 c 128,-1,54
 221 290 221 290 235 270.5 c 128,-1,55
 249 251 249 251 258.5 226 c 128,-1,56
 268 201 268 201 268 167 c 0,57,58
 268 130 268 130 256.5 99.5 c 128,-1,59
 245 69 245 69 223.5 46.5 c 128,-1,60
 202 24 202 24 171.5 11.5 c 128,-1,61
 141 -1 141 -1 103 -1 c 0,62,63
 94 -1 94 -1 85.5 0 c 128,-1,64
 77 1 77 1 69.5 2.5 c 128,-1,65
 62 4 62 4 53.5 6.5 c 128,-1,66
 45 9 45 9 34 13 c 1,0,1
EndSplineSet
EndChar

StartChar: asciitilde
Encoding: 126 126 97
Width: 670
Flags: W
LayerCount: 2
Fore
SplineSet
119 670 m 1,0,1
 119 708 119 708 132 727 c 128,-1,2
 145 746 145 746 166 751.5 c 128,-1,3
 187 757 187 757 213.5 750 c 128,-1,4
 240 743 240 743 267.5 731 c 128,-1,5
 295 719 295 719 320.5 704 c 128,-1,6
 346 689 346 689 365 676 c 1,7,8
 409 689 409 689 445 694.5 c 128,-1,9
 481 700 481 700 503 700 c 128,-1,10
 525 700 525 700 531.5 694 c 128,-1,11
 538 688 538 688 526 679 c 128,-1,12
 514 670 514 670 479.5 656.5 c 128,-1,13
 445 643 445 643 385 630 c 1,14,15
 363 631 363 631 339 640 c 128,-1,16
 315 649 315 649 291 660 c 128,-1,17
 267 671 267 671 243 681.5 c 128,-1,18
 219 692 219 692 197 696 c 128,-1,19
 175 700 175 700 155 694.5 c 128,-1,20
 135 689 135 689 119 670 c 1,0,1
EndSplineSet
EndChar

StartChar: cent
Encoding: 162 162 99
Width: 514
Flags: W
LayerCount: 2
Fore
SplineSet
243 588 m 2,0,1
 244 589 244 589 248 591.5 c 128,-1,2
 252 594 252 594 255 594 c 0,3,4
 263 594 263 594 268.5 589.5 c 128,-1,5
 274 585 274 585 278 578.5 c 128,-1,6
 282 572 282 572 283 563.5 c 128,-1,7
 284 555 284 555 284 547 c 2,8,-1
 283 481 l 1,9,10
 298 477 298 477 309 469 c 0,11,12
 322 460 322 460 322 443 c 1,13,-1
 282 443 l 1,14,-1
 274 50 l 1,15,16
 301 59 301 59 325 70 c 0,17,18
 354 84 354 84 378.5 99 c 128,-1,19
 403 114 403 114 423.5 127 c 128,-1,20
 444 140 444 140 460 148.5 c 128,-1,21
 476 157 476 157 490 157 c 1,22,23
 490 126 490 126 472 101.5 c 128,-1,24
 454 77 454 77 427 59.5 c 128,-1,25
 400 42 400 42 365 30.5 c 128,-1,26
 330 19 330 19 294 12 c 0,27,28
 283 10 283 10 274 8 c 1,29,-1
 272 -76 l 2,30,31
 272 -77 272 -77 267 -82.5 c 128,-1,32
 262 -88 262 -88 258 -89 c 1,33,34
 256 -91 256 -91 250.5 -93 c 128,-1,35
 245 -95 245 -95 238 -97 c 128,-1,36
 231 -99 231 -99 225.5 -101 c 128,-1,37
 220 -103 220 -103 218 -104 c 1,38,-1
 220 1 l 1,39,40
 191 -1 191 -1 170 -1 c 0,41,42
 136 -1 136 -1 107.5 10.5 c 128,-1,43
 79 22 79 22 59.5 43.5 c 128,-1,44
 40 65 40 65 29.5 93.5 c 128,-1,45
 19 122 19 122 19 156 c 0,46,47
 19 184 19 184 25 219.5 c 128,-1,48
 31 255 31 255 43 291.5 c 128,-1,49
 55 328 55 328 72 363 c 128,-1,50
 89 398 89 398 111 425 c 128,-1,51
 133 452 133 452 160 468.5 c 128,-1,52
 187 485 187 485 220 485 c 2,53,-1
 229 485 l 1,54,-1
 229 519 l 1,55,-1
 243 588 l 2,0,1
155 426 m 256,56,57
 142 409 142 409 130.5 383.5 c 128,-1,58
 119 358 119 358 108.5 327 c 128,-1,59
 98 296 98 296 91 267 c 128,-1,60
 84 238 84 238 79.5 215.5 c 128,-1,61
 75 193 75 193 75 184 c 0,62,63
 75 154 75 154 82.5 127.5 c 128,-1,64
 90 101 90 101 105 81.5 c 128,-1,65
 120 62 120 62 143 51 c 128,-1,66
 166 40 166 40 197 40 c 0,67,68
 209 40 209 40 220 40 c 1,69,-1
 228 443 l 1,70,-1
 182 443 l 2,71,72
 168 443 168 443 155 426 c 256,56,57
EndSplineSet
EndChar

StartChar: sterling
Encoding: 163 163 100
Width: 652
Flags: W
LayerCount: 2
Fore
SplineSet
4 319 m 1,0,-1
 58 318 l 1,1,2
 56 327 56 327 55 335 c 0,3,4
 48 381 48 381 43.5 420.5 c 128,-1,5
 39 460 39 460 39.5 493 c 128,-1,6
 40 526 40 526 49 550 c 128,-1,7
 58 574 58 574 76 589 c 1,8,9
 98 604 98 604 128 604.5 c 128,-1,10
 158 605 158 605 189.5 596 c 128,-1,11
 221 587 221 587 250 572 c 128,-1,12
 279 557 279 557 296.5 542.5 c 128,-1,13
 314 528 314 528 318 518 c 128,-1,14
 322 508 322 508 303 507.5 c 128,-1,15
 284 507 284 507 239.5 519.5 c 128,-1,16
 195 532 195 532 117 564 c 0,17,18
 107 568 107 568 102 562.5 c 128,-1,19
 97 557 97 557 96 546 c 128,-1,20
 95 535 95 535 96.5 519 c 128,-1,21
 98 503 98 503 100.5 487 c 128,-1,22
 103 471 103 471 105.5 456.5 c 128,-1,23
 108 442 108 442 109 433 c 1,24,25
 109 419 109 419 113 392.5 c 128,-1,26
 117 366 117 366 121 333 c 1,27,-1
 122 317 l 1,28,-1
 239 315 l 2,29,30
 248 315 248 315 251.5 308 c 128,-1,31
 255 301 255 301 255 295 c 0,32,33
 255 287 255 287 249 280.5 c 128,-1,34
 243 274 243 274 234 274 c 2,35,-1
 226 274 l 1,36,37
 198 276 198 276 163 279 c 0,38,39
 144 281 144 281 128 282 c 1,40,41
 129 274 129 274 130 264 c 0,42,43
 136 228 136 228 140 195 c 128,-1,44
 144 162 144 162 146.5 135.5 c 128,-1,45
 149 109 149 109 149 95 c 1,46,47
 146 85 146 85 151.5 85 c 128,-1,48
 157 85 157 85 170.5 92.5 c 128,-1,49
 184 100 184 100 206.5 110.5 c 128,-1,50
 229 121 229 121 258 130 c 128,-1,51
 287 139 287 139 322.5 145 c 128,-1,52
 358 151 358 151 400 148 c 1,53,54
 423 148 423 148 450 133 c 128,-1,55
 477 118 477 118 504.5 100 c 128,-1,56
 532 82 532 82 558.5 67 c 128,-1,57
 585 52 585 52 608 52 c 0,58,59
 618 52 618 52 624 45.5 c 128,-1,60
 630 39 630 39 630 31 c 0,61,62
 630 17 630 17 615.5 18.5 c 128,-1,63
 601 20 601 20 579 28 c 128,-1,64
 557 36 557 36 529.5 49.5 c 128,-1,65
 502 63 502 63 476 75 c 128,-1,66
 450 87 450 87 428 96.5 c 128,-1,67
 406 106 406 106 395 106 c 0,68,69
 363 106 363 106 333 94 c 128,-1,70
 303 82 303 82 275 67 c 128,-1,71
 247 52 247 52 217 40 c 128,-1,72
 187 28 187 28 156 28 c 0,73,74
 144 28 144 28 132.5 25 c 128,-1,75
 121 22 121 22 110 19 c 128,-1,76
 99 16 99 16 87.5 13.5 c 128,-1,77
 76 11 76 11 65 11 c 1,78,79
 65 44 65 44 68.5 74.5 c 128,-1,80
 72 105 72 105 82 137 c 1,81,82
 77 190 77 190 69 239 c 1,83,84
 66 265 66 265 62 288 c 1,85,86
 50 289 50 289 41 290 c 2,87,-1
 19 292 l 1,88,-1
 4 319 l 1,0,-1
EndSplineSet
EndChar

StartChar: currency
Encoding: 164 164 101
Width: 521
Flags: W
LayerCount: 2
Fore
SplineSet
105 193 m 1,0,1
 91 204 91 204 86 222 c 128,-1,2
 81 240 81 240 81.5 261 c 128,-1,3
 82 282 82 282 87 303.5 c 128,-1,4
 92 325 92 325 98 344.5 c 128,-1,5
 104 364 104 364 110.5 381 c 128,-1,6
 117 398 117 398 120 408 c 1,7,8
 102 430 102 430 89 457.5 c 128,-1,9
 76 485 76 485 71 506 c 1,10,-1
 104 533 l 1,11,-1
 174 438 l 1,12,13
 178 455 178 455 196 466.5 c 128,-1,14
 214 478 214 478 239 483.5 c 128,-1,15
 264 489 264 489 291.5 488 c 128,-1,16
 319 487 319 487 341 480 c 128,-1,17
 363 473 363 473 377 460.5 c 128,-1,18
 391 448 391 448 390 430 c 1,19,20
 398 433 398 433 404.5 439 c 128,-1,21
 411 445 411 445 419 453 c 128,-1,22
 427 461 427 461 435.5 468 c 128,-1,23
 444 475 444 475 449 479 c 128,-1,24
 454 483 454 483 457 481 c 1,25,-1
 498 430 l 1,26,-1
 436 384 l 1,27,28
 441 367 441 367 443.5 347 c 128,-1,29
 446 327 446 327 445.5 307 c 128,-1,30
 445 287 445 287 440.5 269 c 128,-1,31
 436 251 436 251 427 239 c 0,32,33
 425 235 425 235 434.5 224.5 c 128,-1,34
 444 214 444 214 456 203 c 128,-1,35
 468 192 468 192 479.5 182 c 128,-1,36
 491 172 491 172 492 168 c 1,37,-1
 436 125 l 1,38,-1
 387 187 l 1,39,40
 361 159 361 159 333.5 147.5 c 128,-1,41
 306 136 306 136 280 134 c 128,-1,42
 254 132 254 132 231 138 c 128,-1,43
 208 144 208 144 191 150.5 c 128,-1,44
 174 157 174 157 163 161.5 c 128,-1,45
 152 166 152 166 151 163 c 0,46,47
 150 159 150 159 140 148 c 128,-1,48
 130 137 130 137 120 124.5 c 128,-1,49
 110 112 110 112 102 103 c 0,50,51
 97 98 97 98 95 96 c 1,52,-1
 61 133 l 1,53,-1
 105 193 l 1,0,1
384 312 m 0,54,55
 384 332 384 332 380 347.5 c 128,-1,56
 376 363 376 363 368 376 c 128,-1,57
 360 389 360 389 346 400 c 128,-1,58
 332 411 332 411 311 422 c 1,59,60
 282 423 282 423 251 410.5 c 128,-1,61
 220 398 220 398 194.5 375 c 128,-1,62
 169 352 169 352 154 321.5 c 128,-1,63
 139 291 139 291 142 256 c 1,64,65
 142 236 142 236 153 219.5 c 128,-1,66
 164 203 164 203 188 192 c 1,67,68
 191 192 191 192 197 191.5 c 128,-1,69
 203 191 203 191 211 191 c 128,-1,70
 219 191 219 191 225 190.5 c 128,-1,71
 231 190 231 190 234 190 c 0,72,73
 309 190 309 190 346.5 223 c 128,-1,74
 384 256 384 256 384 312 c 0,54,55
EndSplineSet
EndChar

StartChar: yen
Encoding: 165 165 102
Width: 458
Flags: W
LayerCount: 2
Fore
SplineSet
317 242 m 1,0,-1
 183 242 l 1,1,2
 184 217 184 217 186 193 c 0,3,4
 190 145 190 145 192.5 97 c 128,-1,5
 195 49 195 49 195 0 c 1,6,-1
 165 0 l 2,7,8
 160 0 160 0 157 24.5 c 128,-1,9
 154 49 154 49 151 88.5 c 128,-1,10
 148 128 148 128 144 174 c 1,11,12
 142 209 142 209 139 242 c 1,13,-1
 30 242 l 1,14,15
 31 246 31 246 36 251 c 128,-1,16
 41 256 41 256 44 256 c 0,17,18
 48 257 48 257 57.5 259.5 c 128,-1,19
 67 262 67 262 78 263.5 c 128,-1,20
 89 265 89 265 99 267 c 128,-1,21
 109 269 109 269 112 269 c 0,22,23
 120 270 120 270 136 270 c 2,24,-1
 138 270 l 1,25,26
 136 292 136 292 133 313 c 1,27,-1
 34 313 l 1,28,-1
 21 327 l 1,29,-1
 61 340 l 1,30,-1
 130 340 l 1,31,32
 127 371 127 371 122 382 c 1,33,34
 121 387 121 387 115 401 c 128,-1,35
 109 415 109 415 101 433.5 c 128,-1,36
 93 452 93 452 83 472 c 128,-1,37
 73 492 73 492 64.5 510.5 c 128,-1,38
 56 529 56 529 49.5 542.5 c 128,-1,39
 43 556 43 556 41 561 c 0,40,41
 38 568 38 568 33 577.5 c 128,-1,42
 28 587 28 587 23.5 597 c 128,-1,43
 19 607 19 607 15.5 617 c 128,-1,44
 12 627 12 627 12 636 c 0,45,46
 12 643 12 643 12.5 648.5 c 128,-1,47
 13 654 13 654 15 659.5 c 128,-1,48
 17 665 17 665 21.5 667.5 c 128,-1,49
 26 670 26 670 34 670 c 0,50,51
 41 670 41 670 46 667.5 c 128,-1,52
 51 665 51 665 55 657 c 2,53,-1
 137 479 l 1,54,-1
 165 479 l 1,55,56
 170 486 170 486 182.5 500 c 128,-1,57
 195 514 195 514 211.5 531.5 c 128,-1,58
 228 549 228 549 245.5 568.5 c 128,-1,59
 263 588 263 588 279 605.5 c 128,-1,60
 295 623 295 623 308.5 636.5 c 128,-1,61
 322 650 322 650 328 657 c 1,62,63
 334 662 334 662 344.5 672.5 c 128,-1,64
 355 683 355 683 368.5 693.5 c 128,-1,65
 382 704 382 704 396.5 711.5 c 128,-1,66
 411 719 411 719 425 719 c 1,67,-1
 425 684 l 1,68,-1
 205 452 l 2,69,70
 187 433 187 433 182 418.5 c 128,-1,71
 177 404 177 404 177 384 c 2,72,-1
 177 340 l 1,73,-1
 341 340 l 1,74,75
 341 334 341 334 337.5 329.5 c 128,-1,76
 334 325 334 325 329 321 c 128,-1,77
 324 317 324 317 318.5 315 c 128,-1,78
 313 313 313 313 309 313 c 2,79,-1
 179 313 l 1,80,-1
 180 289 l 2,81,82
 180 280 180 280 181 271 c 1,83,84
 197 272 197 272 214 273 c 0,85,86
 237 274 237 274 257 274 c 128,-1,87
 277 274 277 274 293 274 c 128,-1,88
 309 274 309 274 317 274 c 1,89,-1
 317 242 l 1,0,-1
EndSplineSet
EndChar

StartChar: brokenbar
Encoding: 166 166 103
Width: 128
Flags: W
LayerCount: 2
Fore
SplineSet
90 250 m 1,0,1
 93 213 93 213 92.5 180 c 128,-1,2
 92 147 92 147 91 116 c 128,-1,3
 90 85 90 85 89 55 c 128,-1,4
 88 25 88 25 88 -5 c 1,5,6
 58 -5 58 -5 55 28 c 0,7,8
 53 39 53 39 51.5 60 c 128,-1,9
 50 81 50 81 49 109.5 c 128,-1,10
 48 138 48 138 46.5 172 c 128,-1,11
 45 206 45 206 44 244 c 1,12,-1
 90 250 l 1,0,1
44 274 m 1,13,14
 42 301 42 301 41.5 326 c 128,-1,15
 41 351 41 351 40 371.5 c 128,-1,16
 39 392 39 392 38.5 408 c 128,-1,17
 38 424 38 424 37 432 c 1,18,-1
 37 437 l 2,19,20
 37 442 37 442 36.5 448 c 128,-1,21
 36 454 36 454 36 459 c 2,22,-1
 36 468 l 2,23,24
 36 471 36 471 35.5 478.5 c 128,-1,25
 35 486 35 486 36 493 c 128,-1,26
 37 500 37 500 40 506 c 128,-1,27
 43 512 43 512 51 514 c 1,28,29
 52 511 52 511 54.5 505.5 c 128,-1,30
 57 500 57 500 58.5 493.5 c 128,-1,31
 60 487 60 487 62 481 c 128,-1,32
 64 475 64 475 65 472 c 0,33,34
 72 430 72 430 76 381 c 128,-1,35
 80 332 80 332 83 280 c 1,36,-1
 44 274 l 1,13,14
EndSplineSet
EndChar

StartChar: section
Encoding: 167 167 104
Width: 490
Flags: W
LayerCount: 2
Fore
SplineSet
46 -38 m 0,0,1
 45 -34 45 -34 44.5 -24.5 c 128,-1,2
 44 -15 44 -15 44 -13 c 0,3,4
 44 -9 44 -9 45.5 -1.5 c 128,-1,5
 47 6 47 6 50 14 c 128,-1,6
 53 22 53 22 56.5 29 c 128,-1,7
 60 36 60 36 66 38 c 1,8,9
 66 11 66 11 80 -15.5 c 128,-1,10
 94 -42 94 -42 114.5 -63.5 c 128,-1,11
 135 -85 135 -85 159.5 -98 c 128,-1,12
 184 -111 184 -111 203 -111 c 0,13,14
 230 -111 230 -111 256.5 -103 c 128,-1,15
 283 -95 283 -95 303.5 -77.5 c 128,-1,16
 324 -60 324 -60 336.5 -33.5 c 128,-1,17
 349 -7 349 -7 349 28 c 0,18,19
 349 44 349 44 343 58 c 1,20,21
 278 33 278 33 234 36.5 c 128,-1,22
 190 40 190 40 163 65 c 128,-1,23
 136 90 136 90 122.5 133 c 128,-1,24
 109 176 109 176 103 231 c 1,25,26
 103 262 103 262 119 283 c 128,-1,27
 135 304 135 304 157.5 317.5 c 128,-1,28
 180 331 180 331 205 337.5 c 128,-1,29
 230 344 230 344 251 346 c 1,30,31
 233 352 233 352 215.5 361.5 c 128,-1,32
 198 371 198 371 183 382.5 c 128,-1,33
 168 394 168 394 158.5 409.5 c 128,-1,34
 149 425 149 425 149 443 c 0,35,36
 149 475 149 475 170 498.5 c 128,-1,37
 191 522 191 522 220 537.5 c 128,-1,38
 249 553 249 553 279.5 560.5 c 128,-1,39
 310 568 310 568 329 568 c 0,40,41
 346 568 346 568 358 565 c 128,-1,42
 370 562 370 562 379.5 554 c 128,-1,43
 389 546 389 546 396 532.5 c 128,-1,44
 403 519 403 519 410 498 c 1,45,46
 408 490 408 490 404 487.5 c 128,-1,47
 400 485 400 485 395 485 c 0,48,49
 387 485 387 485 381.5 493 c 128,-1,50
 376 501 376 501 371 511 c 1,51,52
 368 511 368 511 361.5 511.5 c 128,-1,53
 355 512 355 512 348 512.5 c 128,-1,54
 341 513 341 513 334.5 513.5 c 128,-1,55
 328 514 328 514 325 514 c 0,56,57
 311 514 311 514 289.5 511 c 128,-1,58
 268 508 268 508 248 499.5 c 128,-1,59
 228 491 228 491 213 475.5 c 128,-1,60
 198 460 198 460 198 435 c 0,61,62
 198 421 198 421 202 412 c 128,-1,63
 206 403 206 403 219 395 c 1,64,65
 226 393 226 393 245 386.5 c 128,-1,66
 264 380 264 380 285 372 c 128,-1,67
 306 364 306 364 324 356.5 c 128,-1,68
 342 349 342 349 349 345 c 0,69,70
 368 336 368 336 386 327.5 c 128,-1,71
 404 319 404 319 418.5 306.5 c 128,-1,72
 433 294 433 294 442.5 275.5 c 128,-1,73
 452 257 452 257 452 230 c 0,74,75
 452 183 452 183 430 144.5 c 128,-1,76
 408 106 408 106 375 79 c 1,77,78
 382 69 382 69 386 56 c 128,-1,79
 390 43 390 43 390 25 c 0,80,81
 390 -16 390 -16 372.5 -51.5 c 128,-1,82
 355 -87 355 -87 328 -112.5 c 128,-1,83
 301 -138 301 -138 268.5 -152.5 c 128,-1,84
 236 -167 236 -167 206 -167 c 0,85,86
 179 -167 179 -167 156 -157 c 128,-1,87
 133 -147 133 -147 113.5 -130 c 128,-1,88
 94 -113 94 -113 77 -89.5 c 128,-1,89
 60 -66 60 -66 46 -38 c 0,0,1
396 215 m 0,90,91
 396 247 396 247 382 263.5 c 128,-1,92
 368 280 368 280 348 287.5 c 128,-1,93
 328 295 328 295 305 296.5 c 128,-1,94
 282 298 282 298 265 300 c 1,95,96
 252 300 252 300 231 296.5 c 128,-1,97
 210 293 210 293 190.5 284.5 c 128,-1,98
 171 276 171 276 156.5 260 c 128,-1,99
 142 244 142 244 142 219 c 0,100,101
 142 177 142 177 154.5 151 c 128,-1,102
 167 125 167 125 186.5 110 c 128,-1,103
 206 95 206 95 230.5 90.5 c 128,-1,104
 255 86 255 86 278 87 c 128,-1,105
 301 88 301 88 320.5 94.5 c 128,-1,106
 340 101 340 101 350 107 c 0,107,108
 364 117 364 117 373 127.5 c 128,-1,109
 382 138 382 138 387 150.5 c 128,-1,110
 392 163 392 163 394 178.5 c 128,-1,111
 396 194 396 194 396 215 c 0,90,91
EndSplineSet
EndChar

StartChar: dieresis
Encoding: 168 168 105
Width: 576
Flags: W
LayerCount: 2
Fore
SplineSet
314 522 m 1,0,1
 314 532 314 532 318 538.5 c 128,-1,2
 322 545 322 545 329 549 c 128,-1,3
 336 553 336 553 344 555 c 128,-1,4
 352 557 352 557 359 557 c 1,5,-1
 359 549 l 2,6,7
 359 541 359 541 357.5 532 c 128,-1,8
 356 523 356 523 352.5 515.5 c 128,-1,9
 349 508 349 508 342 508 c 0,10,11
 340 508 340 508 336 509.5 c 128,-1,12
 332 511 332 511 327.5 513.5 c 128,-1,13
 323 516 323 516 319.5 518 c 128,-1,14
 316 520 316 520 314 522 c 1,0,1
225 522 m 1,15,16
 225 532 225 532 229 538.5 c 128,-1,17
 233 545 233 545 240 549 c 128,-1,18
 247 553 247 553 255 555 c 128,-1,19
 263 557 263 557 270 557 c 1,20,-1
 270 549 l 2,21,22
 270 541 270 541 268 532 c 128,-1,23
 266 523 266 523 263 515.5 c 128,-1,24
 260 508 260 508 253 508 c 0,25,26
 251 508 251 508 247 509.5 c 128,-1,27
 243 511 243 511 238.5 513.5 c 128,-1,28
 234 516 234 516 230.5 518 c 128,-1,29
 227 520 227 520 225 522 c 1,15,16
EndSplineSet
EndChar

